<svg xmlns="http://www.w3.org/2000/svg" viewBox="0 0 711.46 151.27"><defs><style>.b{fill:#63b44e}</style></defs><path d="M229.52 72c-6.55 5.55-15.33 5.62-17.79 5.62-3.24 0-13.63-.15-21.18-8.09a20.11 20.11 0 0 1-2.62-3.53l8.55-5.93c2.39 3.54 6.85 8.17 16.87 8.17a18.89 18.89 0 0 0 4-.38c1.16-.23 6.47-1.7 6.47-6.78a5.53 5.53 0 0 0-1-3.24c-1.85-2.46-6.78-3.16-9.47-3.77l-6.47-1.46a33.06 33.06 0 0 1-8.24-2.54 13.65 13.65 0 0 1-7.78-12.63 16.25 16.25 0 0 1 2.08-8c2.46-4.16 8.4-8.94 19.41-8.94a25.77 25.77 0 0 1 22 11l-8.4 6.24c-1.69-2.7-5.55-8.09-14.1-8.09-.54 0-7.39-.08-9.63 4.16a4.87 4.87 0 0 0-.62 2.46 4.58 4.58 0 0 0 .69 2.46c1.31 2.23 4.31 2.93 9.32 4L217.2 44c5.16 1.16 10.86 2.7 14.48 6.93 1.54 1.69 3.16 4.16 3.16 9.17a14.54 14.54 0 0 1-5.32 11.9zm13.02-40.27v-9.32h9.17v9.32zm0 44.52V37.73h9.17v38.52zm67.7 0V52.68c0-1.46-.31-7.47-6.47-7.47a8.09 8.09 0 0 0-6.86 3.93c-1.77 2.77-1.85 5.93-1.85 9v18.1h-9.16V54.68c0-.85-.08-1.69-.08-2.54a7.21 7.21 0 0 0-2.08-5.39 6.23 6.23 0 0 0-4.16-1.46 7.65 7.65 0 0 0-4.85 1.85c-3.77 3.24-3.85 8.63-3.85 12.94v16.17h-9.24V37.73h9.24L271 42a5.9 5.9 0 0 1 1.23-1.39 17 17 0 0 1 10.86-4.08 12 12 0 0 1 10.71 5.85 13.65 13.65 0 0 1 3.54-3.31 15.09 15.09 0 0 1 8.86-2.54c5.85 0 11.09 2.54 12.71 8.55a25.14 25.14 0 0 1 .54 6.78v24.39zm54.69-10.79a18.77 18.77 0 0 1-18 11.94 20.72 20.72 0 0 1-8.7-1.77c-4-1.77-11.32-7.16-11.32-18.79a23.24 23.24 0 0 1 1.69-8.63c1.62-3.85 6.55-11.63 18-11.63a21.13 21.13 0 0 1 8.47 1.77c4.16 1.77 11.32 6.93 11.4 18.49a23.57 23.57 0 0 1-1.54 8.62zM346.44 44.9a10.32 10.32 0 0 0-5.24 1.46c-2 1.31-4.7 4.47-4.7 10.24a15.16 15.16 0 0 0 .77 5.24c.62 1.85 3.31 7.09 9.63 7.09 7 0 10.17-6.16 9.94-12.25s-3.62-11.78-10.4-11.78zm52.07 31.35V56.61a23.56 23.56 0 0 0-.38-5.93 6.17 6.17 0 0 0-6.39-5.08 7.33 7.33 0 0 0-4.85 1.77c-2.77 2.31-3.62 5.55-3.62 12.17v16.71h-9.32V37.73h9.32v4.54a17.79 17.79 0 0 1 1.69-2c3.62-3.39 8.86-3.7 10.17-3.7 5.7 0 9 2.93 10.24 4.7 2.46 3.54 2.23 8.4 2.23 12.32v22.66zm40.28-4.93c-1.39 4.78-3.39 12.94-7 15.87-2.39 1.93-4.85 2.31-7.86 2.31a21.58 21.58 0 0 1-5.47-.54v-8c3.7.46 5.78 0 7.16-1.16a5.62 5.62 0 0 0 1.62-2.8L413.3 37.73h9.94l8.63 28.73 7.24-28.73h9.47zm15.49-39.59v-9.32h9.17v9.32zm0 44.52V37.73h9.17v38.52zm76.02 0l-14.48-25.58L507 60.84v15.41h-10.13V21.87H507v25l21.8-25h11.9l-17.8 20.49 19 33.89zm39.36 0l-.23-3a12.94 12.94 0 0 1-3.54 2.16 18 18 0 0 1-7.78 1.77c-1.85 0-8.78-.23-12.32-5.93a10.9 10.9 0 0 1-1.69-6.16 11.22 11.22 0 0 1 5.24-9.63c3.16-2.16 6.16-2.62 9.71-3.31a72.37 72.37 0 0 0 10.63-2.62 7.39 7.39 0 0 0-.54-3.16c-.77-1.46-2.7-2.62-6.08-2.62-3.54 0-5.78 1.08-6.78 2.39a5 5 0 0 0-1 3.39l-9.4-.54a11.6 11.6 0 0 1 4.12-8.87c2.39-2 6-3.54 12.71-3.54 6.32 0 10 1.31 12.4 3a9 9 0 0 1 2.77 3.08c1 2 1 4.7 1 6.86V70c0 2.93.15 3.77 1.69 6.24zm0-19.18a24 24 0 0 1-7.32 2.16c-2.08.39-4.31.46-6.24 1.62a4.53 4.53 0 0 0-2.23 3.85c0 2.31 1.69 4.54 6.32 4.54 5.08 0 8.09-2.62 8.93-4.39a7.14 7.14 0 0 0 .54-3.54zm-3.77-25H559l3.85-10.24h11.4zm32.5 21.38a19.45 19.45 0 0 0-.69 6.32v16.48h-8.94V37.73h8.94v5.47A11.9 11.9 0 0 1 600 40c3.08-3 8.09-3.16 9.17-3.16h.77v9.47c-1.94.05-9.32.05-11.55 7.14zm53.45 12.01a18.77 18.77 0 0 1-18 11.94 20.72 20.72 0 0 1-8.7-1.77c-4-1.77-11.32-7.16-11.32-18.79a23.24 23.24 0 0 1 1.69-8.63c1.62-3.85 6.55-11.63 18-11.63a21.12 21.12 0 0 1 8.49 1.77c4.16 1.77 11.32 6.93 11.4 18.49a23.56 23.56 0 0 1-1.56 8.62zM633.35 44.9a10.32 10.32 0 0 0-5.24 1.46c-2 1.31-4.7 4.47-4.7 10.24a15.16 15.16 0 0 0 .77 5.24c.62 1.85 3.31 7.09 9.63 7.09 7 0 10.17-6.16 9.94-12.25s-3.62-11.78-10.4-11.78zM661 76.25V21.87h9.4v54.38zm40.67-4.93c-1.39 4.78-3.39 12.94-7 15.87-2.39 1.93-4.85 2.31-7.86 2.31a21.58 21.58 0 0 1-5.47-.54v-8c3.7.46 5.78 0 7.16-1.16a5.61 5.61 0 0 0 1.62-2.8l-13.94-39.27h9.94l8.63 28.73L702 37.73h9.47zM210 126.95c-3.28 2.78-7.68 2.82-8.91 2.82-1.62 0-6.83-.08-10.61-4.05a10 10 0 0 1-1.31-1.78l4.28-3c1.2 1.77 3.43 4.09 8.45 4.09a9.49 9.49 0 0 0 2-.19c.58-.12 3.24-.85 3.24-3.4a2.77 2.77 0 0 0-.5-1.62c-.93-1.24-3.4-1.58-4.75-1.89l-3.24-.73a16.59 16.59 0 0 1-4.13-1.27 6.84 6.84 0 0 1-3.9-6.33 8.14 8.14 0 0 1 1-4c1.23-2.08 4.21-4.48 9.72-4.48a12.91 12.91 0 0 1 11 5.52l-4.21 3.13a7.91 7.91 0 0 0-7.06-4.05c-.27 0-3.7 0-4.82 2.08a2.44 2.44 0 0 0-.25 1.2 2.29 2.29 0 0 0 .35 1.24c.66 1.12 2.16 1.47 4.67 2l2.82.62c2.59.58 5.44 1.35 7.25 3.47a6.19 6.19 0 0 1 1.58 4.59 7.28 7.28 0 0 1-2.67 6.03zm22 2.12v-4.17l14.9-18.52h-13.67v-4.55h20v4.32l-14.32 18.33h14.32v4.59zm58.46 0l-1.58-5.33h-10.23l-1.58 5.33h-5.48l9.22-27.24h5.79l9.3 27.24zm-6.68-22.34L280 119.27h7.52zm49.36 22.34l-7.25-12.81-4.44 5.09v7.72h-5.06v-27.25h5.06v12.5l10.92-12.5h6l-8.91 10.26 9.53 17zm42.76 0l-7.25-12.81-4.44 5.09v7.72h-5.06v-27.25h5.06v12.5l10.92-12.5h6l-8.91 10.26 9.53 17zm47.1-3.21a12.2 12.2 0 0 1-4.63 3.13 13.71 13.71 0 0 1-4.75.77 11.49 11.49 0 0 1-9.34-4.21 14.67 14.67 0 0 1-3.63-10.07 16.74 16.74 0 0 1 .81-5.29 12.87 12.87 0 0 1 21.92-4.75 14.49 14.49 0 0 1 3.4 10 15.38 15.38 0 0 1-3.78 10.42zm-3-16.48a7.13 7.13 0 0 0-6.33-3.59 7.75 7.75 0 0 0-3.47.81c-1.93 1-4.32 3.59-4.32 8.68 0 1 0 6.06 3.86 8.57a7.34 7.34 0 0 0 4 1.16 7.5 7.5 0 0 0 3.13-.66c2-.93 4.63-3.24 4.75-8.37a12.07 12.07 0 0 0-1.62-6.59zm28.75 19.69v-27.25h5.13v22.61h10.8v4.63zm37.13 0v-27.25H491v22.61h10.8v4.63zm36.97 0v-27.25h19.37v4.55h-14.36v6.41H541v4.4h-13.14v7.29h15.32v4.59zm10.34-29.91h-3.43l2-4.63h5.56zM583 129.07v-2.32a10.22 10.22 0 0 1-7.49 3 12.19 12.19 0 0 1-8.72-3.43 14.64 14.64 0 0 1-4.05-10.61 16.07 16.07 0 0 1 3.2-9.84 12.69 12.69 0 0 1 10-4.75 13 13 0 0 1 4.48.81 12.06 12.06 0 0 1 7 7.22l-4.86 1.93c-.46-1.31-1.89-5.36-6.64-5.36a6.84 6.84 0 0 0-4.9 2c-1.31 1.35-2.7 3.67-2.7 7.87 0 1.12 0 5.21 3.13 7.83a6.83 6.83 0 0 0 4.59 1.54 6.33 6.33 0 0 0 6.14-3.86 8.52 8.52 0 0 0 .58-2.43h-6.79v-4.48h11.46v14.9zm27 0v-27.25h5v27.24zm49.8-5.56c-.89 2.74-4 6.25-10.69 6.25-3.2 0-6.41-.77-8.64-3.24a7.91 7.91 0 0 1-1.74-2.93c-.42-1.39-.42-2.66-.42-5.56v-16.21h5.13v16.75a8.67 8.67 0 0 0 .27 3c.5 1.62 2 3.24 5.6 3.24.66 0 4.4 0 5.52-3.09a9.63 9.63 0 0 0 .35-3.43v-16.47h5.09v15.71c-.01 3.13.03 4.47-.47 5.98zm43.87 5.56l.5-22.38-5.9 22.38h-4.59l-5.9-22.38.5 22.38h-5v-27.25h7.41L696 122l5.25-20.22h7.37v27.24z"/><path d="M75.64 8.1A67.53 67.53 0 1 1 8.1 75.64 67.53 67.53 0 0 1 75.64 8.1m0-8.1a75.64 75.64 0 1 0 75.64 75.64A75.72 75.72 0 0 0 75.64 0z" class="b"/><path d="M141.28 57.76H66.45a3.9 3.9 0 0 1 0-7.79h74.83a3.9 3.9 0 1 1 0 7.79zM53.73 45.32a8.54 8.54 0 1 0 8.54 8.54 8.54 8.54 0 0 0-8.54-8.54m0-8.1a16.64 16.64 0 1 1-16.64 16.64 16.66 16.66 0 0 1 16.64-16.64zM82.8 102.8H12.38a3.45 3.45 0 0 1 0-6.89H82.8a3.45 3.45 0 0 1 0 6.89z" class="b"/><path d="M95.43 90.48A8.54 8.54 0 1 1 86.89 99a8.54 8.54 0 0 1 8.54-8.54m0-8.1A16.64 16.64 0 1 0 112.07 99a16.66 16.66 0 0 0-16.64-16.62z" class="b"/></svg>