<svg xmlns="http://www.w3.org/2000/svg" viewBox="0 0 600 315"><defs><style>.b{fill:#fff}</style><linearGradient id="a" x1="429.43" y1="404.03" x2="170.57" y2="-89.03" gradientTransform="translate(-.5 -.26)" gradientUnits="userSpaceOnUse"><stop offset="0" stop-color="#771213"/><stop offset="1" stop-color="#21235c"/></linearGradient></defs><path fill="url(#a)" d="M0 0h600v315H0z"/><path class="b" d="M129.39 144.05l7 10 7.05-10h5.66l-9.64 13.78 10.46 14.92h-5.78l-7.75-10.82-7.71 10.82H123L133.49 158l-9.72-14zm26.73 0l8.88 23.33 8.94-23.33h5l-11.6 28.7h-5l-11.44-28.7z"/><path class="b" d="M151 90a67.46 67.46 0 0 0-55.77 29.45h9.48a59.85 59.85 0 1 1-9.43 16H190v37.43l-38.4 24.4-38.87-24.76v-28.77h-8v33.13L144.17 202l7.43 4.73L159 202l39.22-25-.26-.41V127.4H90.53A67.54 67.54 0 1 0 151 90zm109.84 31.23c-4.62 0-7.64 1.74-7.64 4.89 0 10.25 25.33 4.76 25.26 21.64 0 8.38-7.37 13.53-17.69 13.53a28.85 28.85 0 0 1-19.16-7.44L245 147c4.82 4.42 10.85 6.83 15.88 6.83 5.49 0 8.78-2.08 8.78-5.7 0-10.45-25.33-4.62-25.33-21.31 0-8 6.9-13.07 17.08-13.07a30.55 30.55 0 0 1 16.42 4.82l-3.28 7a28 28 0 0 0-13.71-4.34zm32.1-7.1V161H285v-46.9zm19.06 0l15.48 31.16 15.41-31.16h9.31V161h-7.3l-.07-35L330 156.14h-5.16L310 126v35h-7.44v-46.9zm95.71 23.45c0 13.4-10.85 23.79-24.86 23.79S358 151 358 137.58s10.85-23.65 24.86-23.65 24.85 10.25 24.85 23.65zm-41.67 0a16.81 16.81 0 0 0 16.88 16.68A16.62 16.62 0 1 0 366 137.58zm55.2-23.45l25.13 33.7v-33.7h7.77V161h-7.77l-25-33.63V161h-7.91v-46.9zm61.84 31.29V161h-7.84v-15.32l-17.49-31.56h8L479.13 137l13.13-22.85h8zm28.68-31.29V161h-7.91v-46.9z"/><path class="b" d="M262 201l-9-12.15-4.75 5.15v7h-4.64v-27.5h4.64v14.23l13.13-14.23h5.46l-10.65 11.75L267.55 201z"/><path class="b" d="M296.24 187.25c0 7.86-6.37 14-14.58 14s-14.58-6.09-14.58-14 6.37-13.87 14.58-13.87 14.58 6.01 14.58 13.87zm-24.45 0a9.86 9.86 0 0 0 9.9 9.79 9.75 9.75 0 1 0-9.9-9.79zm32.4-13.75l14.74 19.77V173.5h4.56V201h-4.56l-14.66-19.73V201h-4.64v-27.5zm43.47 0v4.17h-13.8v7.94h12.5v4.13h-12.5V201h-4.64v-27.5zm22.21 0v4.17h-15v7.47h13.43v4.13h-13.44v7.59h15.49V201h-20.13v-27.5zm22.02 27.5l-5-8.33h-7.78V201h-4.64v-27.5h11.13c7 0 11.08 3.42 11.08 9.39 0 4.4-2 7.51-5.7 8.92l6.17 9.2zm-6.29-12.46c4.24 0 6.68-1.81 6.68-5.54s-2.44-5.34-6.68-5.34h-6.52v10.89zm35.34-15.04v4.17h-15v7.47h13.44v4.13h-13.46v7.59h15.49V201h-20.12v-27.5zm9.12 0l14.74 19.77V173.5h4.56V201h-4.56l-14.66-19.73V201h-4.64v-27.5zm37.27 4.01a9.69 9.69 0 1 0 0 19.38 11.38 11.38 0 0 0 7.66-3.26l2.75 3.07a15.62 15.62 0 0 1-10.65 4.52 14 14 0 0 1-14.31-14c0-7.82 6.33-13.83 14.46-13.83a15.19 15.19 0 0 1 10.46 4.24L475 181a10.74 10.74 0 0 0-7.67-3.49zm18.2-4.01V201h-4.64v-27.5zM509 194.8h-13.92l-2.63 6.2h-4.83l12.14-27.51h4.76l12 27.51h-5zm-1.77-4.13L502 178.45l-5.19 12.22z"/></svg>