<svg xmlns="http://www.w3.org/2000/svg" viewBox="0 0 600 600"><defs><style>.b{fill:#fff}</style><linearGradient id="a" x1="431.29" y1="660.72" x2="168.71" y2="-60.72" gradientTransform="translate(-.5 -.5)" gradientUnits="userSpaceOnUse"><stop offset="0" stop-color="#771213"/><stop offset="1" stop-color="#21235c"/></linearGradient></defs><path fill="url(#a)" d="M0 0h600v600H0z"/><path class="b" d="M216 247.74l27.25 38.72 27.41-38.72h22l-37.45 53.55 40.64 58h-22.46l-30.12-42.07-30 42.07h-22L232 302.08l-37.77-54.34zm103.92 0l34.42 90.68 34.74-90.68h19.6l-45.1 111.55h-19.44l-44.46-111.55z"/><path class="b" d="M300 37.5A262.21 262.21 0 0 0 83.21 152h36.86A232.53 232.53 0 0 1 300 67c128.68 0 233 104.32 233 233S428.68 533 300 533 67 428.68 67 300a232.24 232.24 0 0 1 16.4-85.94h368.24v145.47l-149.29 95.1-151.08-96.24V246.56h-31v128.75h.09l-.08.12L273.46 473l28.89 18.4 28.89-18.4 152.46-97.08-1-1.59V183H65a261.39 261.39 0 0 0-27.5 117C37.5 445 155 562.5 300 562.5S562.5 445 562.5 300 445 37.5 300 37.5z"/></svg>