<svg xmlns="http://www.w3.org/2000/svg" xmlns:xlink="http://www.w3.org/1999/xlink" viewBox="0 0 986.11 325.41"><defs><style>.cls-1{fill:none;}.cls-2{clip-path:url(#clip-path);}.cls-3{fill:#eee;}</style><clipPath id="clip-path"><rect class="cls-1" width="986.11" height="325.41"/></clipPath></defs><title>Artboard 1</title><g id="crowd"><g class="cls-2"><path class="cls-3" d="M-2.63,214.84l3.32-4s1.33-12.6,9-15.58c0,0,.33-16.91,8.62-21.55,0,0,.33-19.89,10.61-22.54,0,0,6-4.64,21.22-1,0,0,8,0,8,3s-.33,3.32,0,4.64,2,5.64.66,8c0,0,2,5.64,1.33,6.63,0,0,3.32,8.29-.66,12.6,0,0,1,.66,0,1.66s1,3.32,1,6c0,0,5.64.66,7.29,2.32a30,30,0,0,1,5.3,9.61s4.31,9.28,5,16.58.33,1.33.33,1.33a11.67,11.67,0,0,1,5,6A58.9,58.9,0,0,1,97.5,244.34s-1.66-18.57,14.92-12.93c0,0-.33-39.78,5.3-34.15,0,0,3.32-8,8.62-8.62,0,0-.33-10.28,10.28-12.27,0,0-10.28-18.23,7-25.86s23.21,9.61,22.88,12.27,2,4.64,0,7.29a4.93,4.93,0,0,1,2.57,4.06,19.7,19.7,0,0,0-2.07,1.33c-.33.33-.41,2.24-.83,2.74l-.83,1s.75.58.75,1.08-.41,4.39-1.57,4.81-9.61,1.66-8.54,3.73,2.24,8.21,13.59,8.87l7.38,1.49s4.72,1.49,6.22,14.17,1.74,10.94,1.74,10.94,12.93,10.69,15.67,32.08,17.16,24.12,17.16,24.12l.25-28.35s-16.41-7.71-9.2-47c0,0,1.74-6.22,15.17-7.71l5.22-7.21s-10.69-4-9.7-14.67,2-20.89,12.68-20.89,17.65,7.21,17.9,13.92a9.57,9.57,0,0,0,6,8.7s6.22-5,12.68-.75,9,5.22,9.95,9.95,6,7.71,6,7.71a50.15,50.15,0,0,1-3.48,6.22c-1.74,2.49.5,4.72,1.49,6s3,1.24,2.74,3.48-5,10.44-6.46,12.68.5,8.45,5.72,9.45c0,0-2.24-5.47-.25-8.21S297.5,210.11,306,210.36s16.16,6.22,16.16,6.22,2.24-1.24,2.74-6c0,0,2.49-5.22,5.47-7.21s8.45-1.49,8.45-1.49l-.5-7.71A21.58,21.58,0,0,1,335.54,184s-8-5.72,1-10.19c0,0-.25-4.72,1-5.72s5.22,0,5.22,0,2.49-13.68,15.42-14.17,14.42,16.16,14.42,16.16v5.47c0,.75,1.24,5.22,0,8.45s.75,6.46-5.47,6l-.5,4.23a12.16,12.16,0,0,1,6.22,3.23s-1-20.39,17.9-22.63a8.85,8.85,0,0,1,2.49-1.49c1-.25,8.7,2,10.94,2.49s5.47,1.24,5,3.48-1.24,1.74-1,3.23,2,2.49,2.49,14.17c0,0,1,10.44-3.73,16.66,0,0-2.74,13.92,6.22,16.16s6.22,2.49,6.22,2.49,5.22,3.73,6.22,4.48.25-12.93,6.22-20.39,4.23-14.17,7-15.91,19.64-9.95,24.12-10.44,2.74-5.47,3-6.46-6.71-9.95-7.71-13.92.5-16.16,6.46-20.39,6-4.48,8-4.48,7.46-.25,9.45,2,6.22,7.21,6.46,9,0,10.94.25,12.93.25,7.46-1.74,9.2c0,0-.75,4.72-.75,6s1.74,4,5.22,5.47,12.93,8.21,14.92,9.7c0,0,.75-29.09-3-45.75s1-25.36,1-25.36l.25-12.43s-5.72-1-5-8.21.75-20.64.75-20.64-2.74-6.46-5.22-6.46-17.65,10.94-18.9,10.94-8.21,3.48-16.41-.25a54.63,54.63,0,0,1-12.68-7.71s-11.69.5-11.94-.75,6.46-1.24,6.46-1.24,3-2.07-5.47-3c-8.16-.88-3.12-2.13-2.32-2.24,1.57-.2,6.12.89,6.3.25s-6.13-1.57-6.13-1.57S431,73.19,432,71.86c.61-.78,9,2.4,9.28,1.33.17-.73-8.45-1.82-8-3.81.26-1.24,6.88.83,8.37.83s4.7,1.58,5.14.83c1-1.72-4.79-7.77-1.82-7.63,1.74.08,7.21,6.71,7.46,8.21a6.16,6.16,0,0,0,.75,2.24,54.62,54.62,0,0,1,9.45,2s7.15-.56,9.7-3c0,0,7.21-6.22,9.45-9.2S491,51.47,499.4,48.24a39.05,39.05,0,0,0,13.92-9.45s-2.74-4-3.23-6-4.48-8.7-4-13.43,0-3.48.25-7.46S510.1.75,515.57,0s14.67,2.49,16.16,4.48,3.23,15.42-2,20.14c0,0-1.24,5.47-.75,6.46s3.48,3.73,3.73,5.47c0,0,20.89,3,29.84,14.67a19.13,19.13,0,0,1,2,4.72c.5,2.24,16.41,12.68,15.91,15.67,0,0,15.17-3.73,19.89-8.7s15.42-2.49,15.42-2.49,3-3.48,4-3S617,61.91,617,61.91l1.74,1.24-4.48,2.74s-2.49,6.71-3.23,7.46-7.46,2-10.19.75c0,0-5.22.75-4.72,2.49s5,1.74,5,1.74,2.49,1.24-.75,1.74l-9.7,1.49s-10.94,8-13.92,8.21-9.95-4.48-16.16-10.94c0,0-1,1.74-9.2-8.45l-.25,20.39s5.47,12.18,3.73,14.92-4.48,3.73-3.73,3.73,2.74,10.69,5.72,13.68l1.74,8s5.22,12.43,6.22,59.93l5.72-2.49.5-2.24s-.75-1.74-1.49-4a15.93,15.93,0,0,1-.5-5.47c0-.75-4.48-7.21-2.74-12.93s3.48-11.94,5.47-13.18,3.48-5,8.7-4c0,0,5.22-3.23,10.69,1.49s5,7,5,7,5,7.46,3.73,15.42c0,0-.5,5.47-.5,7.21s-1.24,1.74-1.24,1.74-1.49,2.74-.5,3.73-1.24.75-1.24.75l-.25,5.22s18.4,6.71,26.85,15.42,9.7,33.82,9.7,33.82,9.7-1.49,9.95-3.48l.25-5,3-2.74-1-5-1-6.22s-3.73-2.74-4-5,1.49-6.22,2.49-5.72-.5-6.71,1.24-9.45S650.09,185,659.54,185s16.66,9.7,16.66,9.7,12.43-2,14.92-3.23,5.22-6.46,5.22-10.44c0,0-4.72-3-5.22-8.45a31.05,31.05,0,0,1,1-10.44v-6s5.22-9.45,6.71-10.69-.75-4.72,7.21-5.22,17.16,8.7,17.16,8.7,5.72,9.7,1,18.9-7,10.69-7,13.18,2,9.95,6.22,12.43,15.67,8,16.91,8,6.46,1,7.71,7.46.5,4.72.5,4.72,6.71-1,8.7-.25,12.68,9,14.92,15.17a25.19,25.19,0,0,1,1.49,11.19l17.41-2.24,6.71-12.18a26.28,26.28,0,0,1-6.71-21.63v-7.71s7.46-8.45,8.21-8.45.25-3.48,1.24-4.23,19.39-3,26.36,10.69c0,0,2.49.5,1.74-2s-6.46-6-6.71-8.45-5.72-6-1-12.68c0,0-.75-4.23,0-5.22s2.24-2.24,2.74-4,2.24-12.68,19.64-10.19,18.15,20.14,18.15,20.14-2.24,7.21-4.48,9-8.7,7.71-9,9.45-.5,3-.5,3,5.22-.75,7,6.46c0,0,14.92,7,16.16,8.45s9.7,24.62,9.45,26.11-7,8.21-9,9.7c0,0,.25,21.14-3,21.63s-6-1.49-6,.75-3.23,4.23-3,5.72a44.34,44.34,0,0,1-.25,6.46,44.93,44.93,0,0,0,7.46-4.48c2.74-2.24,3.23-1.24,5.22-1s7.71-7.71,13.43-8.7,1.24-5.47,2.49-6.71a6.49,6.49,0,0,0,1.74-4.23c.25-1.74,3.23-4.72,4.23-6.71s3.23-9.2,12.68-12.68c0,0,5.22-8.7,12.18-32.57,0,0-5.22-7.21,6.22-13.68s13.68,2,13.68,2a18.32,18.32,0,0,0,1.24-6.22c0-3.23.75-12.18.75-14.17s2.24-13.68,16.66-15.42,23.87,13.68,23.87,13.68,3,7.71-.75,29.34c0,0-3,5-3.73,6,0,0,8.7,5.22,12.68,4.72a11.11,11.11,0,0,1,7,1.49L994.61,944,0,947Z"/></g></g></svg>