<svg xmlns="http://www.w3.org/2000/svg" viewBox="0 0 2165.53 427"><defs><style>.a{fill:none;}.b{fill:#263238;}</style></defs><title>Artboard 1</title><path class="a" d="M1153.68,103.1h179.37l20.05,20.25V21.3a8.73,8.73,0,0,0-8.73-8.73H1153.68A8.73,8.73,0,0,0,1145,21.3V94.37A8.73,8.73,0,0,0,1153.68,103.1ZM1421,293a14.22,14.22,0,0,0,14.22-14.21v-119A14.22,14.22,0,0,0,1421,145.58H1110.55a14.21,14.21,0,0,0-14.21,14.21h0V326L1129,293Zm339.42-75.86H1569.7a8.73,8.73,0,0,0-8.73,8.73V327.92l20-20.25h179.37a8.73,8.73,0,0,0,8.73-8.73V225.87a8.73,8.73,0,0,0-8.72-8.73ZM248.63,199.4v-102a8.73,8.73,0,0,0-8.73-8.73H49.21a8.73,8.73,0,0,0-8.73,8.73v73.08a8.73,8.73,0,0,0,8.73,8.73H228.58Zm29,66.21H86.92a8.73,8.73,0,0,0-8.72,8.73V376.4l20-20.26H277.61a8.73,8.73,0,0,0,8.73-8.73h0V274.35a8.73,8.73,0,0,0-8.72-8.74h0Zm1249.7-95.78h292l32.64,33V36.67a14.21,14.21,0,0,0-14.21-14.21H1527.31a14.22,14.22,0,0,0-14.22,14.21V155.61a14.22,14.22,0,0,0,14.22,14.22Zm379.55-12.54h179.37l20,20.25v-102a8.73,8.73,0,0,0-8.73-8.73H1906.86a8.73,8.73,0,0,0-8.73,8.73v73.05a8.73,8.73,0,0,0,8.71,8.75h0Zm14,97.61v102l20.05-20.25H2120.3a8.73,8.73,0,0,0,8.73-8.73v-73a8.73,8.73,0,0,0-8.73-8.73H1929.6a8.73,8.73,0,0,0-8.7,8.71ZM575.61,224.34H384.91a8.73,8.73,0,0,0-8.73,8.73h0v102l20-20.25H575.61a8.73,8.73,0,0,0,8.73-8.73h0v-73A8.73,8.73,0,0,0,575.61,224.34Zm434.2-185.8H819.09a8.73,8.73,0,0,0-8.73,8.73h0v73.08a8.73,8.73,0,0,0,8.73,8.72h179.4l20,20.25V47.23A8.73,8.73,0,0,0,1009.81,38.54Zm-346,.36H353.32A14.22,14.22,0,0,0,339.1,53.12h0V172.06a14.22,14.22,0,0,0,14.21,14.21h292l32.64,33V53.13A14.22,14.22,0,0,0,663.76,38.9ZM935.27,184.17H744.58a8.73,8.73,0,0,0-8.73,8.73h0V295l20.08-20.25H935.27A8.73,8.73,0,0,0,944,266v0h0V192.9A8.73,8.73,0,0,0,935.27,184.17Z"/><path class="b" d="M2170.76,427V-2H-5.24V427c333.76-50,701.58-77.74,1088-77.74S1837,377,2170.76,427ZM1772.45,298.36a8.78,8.78,0,0,1-8.78,8.78H1583.44l-20.14,20.34V224.93a8.78,8.78,0,0,1,8.78-8.78H1763.7a8.78,8.78,0,0,1,8.78,8.78Zm361.67-44.18V327.6a8.78,8.78,0,0,1-8.78,8.78H1945.11L1925,356.6V254.17a8.78,8.78,0,0,1,8.78-8.78h191.58a8.78,8.78,0,0,1,8.77,8.78Zm-232-180.37a8.78,8.78,0,0,1,8.78-8.78h191.62a8.78,8.78,0,0,1,8.78,8.78V176.37L2091.17,156H1910.85a8.78,8.78,0,0,1-8.78-8.78Zm-386.92-39a14.29,14.29,0,0,1,14.29-14.28h311.94a14.28,14.28,0,0,1,14.28,14.28h0V201.74L1823,168.6H1529.54a14.29,14.29,0,0,1-14.29-14.28Zm-370-15.47a8.78,8.78,0,0,1,8.78-8.78h191.62a8.78,8.78,0,0,1,8.78,8.78V121.87l-20.19-20.32H1154a8.78,8.78,0,0,1-8.78-8.78Zm-48.83,258.74V158.62a14.28,14.28,0,0,1,14.28-14.28h311.93a14.29,14.29,0,0,1,14.29,14.28V278.11a14.29,14.29,0,0,1-14.29,14.28H1129.19l-32.8,33.14ZM35.44,169.22V95.79A8.78,8.78,0,0,1,44.21,87H235.83a8.78,8.78,0,0,1,8.77,8.78V198.33L224.45,178H44.2A8.78,8.78,0,0,1,35.44,169.22Zm247,177.86a8.78,8.78,0,0,1-8.78,8.78H93.49L73.33,376.19V273.64a8.78,8.78,0,0,1,8.78-8.78h191.6a8.78,8.78,0,0,1,8.78,8.78h0ZM581.93,305.6a8.78,8.78,0,0,1-8.78,8.78H392.92l-20.14,20.34V232.16a8.78,8.78,0,0,1,8.78-8.78h191.6a8.78,8.78,0,0,1,8.78,8.78h0ZM676,160.9v57.36l-32.8-33.14H349.8a14.29,14.29,0,0,1-14.28-14.29V51.33A14.29,14.29,0,0,1,349.8,37.07H661.73A14.29,14.29,0,0,1,676,51.33ZM943.3,265.22a8.78,8.78,0,0,1-8.78,8.78H754.35L734.2,294.34V191.8A8.78,8.78,0,0,1,743,183H934.56a8.78,8.78,0,0,1,8.78,8.78h0Zm74.89-152.49V148l-20.08-20.34H817.81a8.78,8.78,0,0,1-8.78-8.78h0V45.43a8.78,8.78,0,0,1,8.78-8.74h191.59a8.78,8.78,0,0,1,8.78,8.78h0Z"/></svg>