<svg xmlns="http://www.w3.org/2000/svg" viewBox="0 0 2160 432"><defs><clipPath id="a"><path fill="none" d="M-8 -2.6H2168V433H-8z"/></clipPath></defs><g clip-path="url(#a)"><path d="M-8-2.6V426.47c333.75-50,701.58-77.75,1088-77.75s754.25,27.71,1088,77.75V-2.6ZM122.56,136.53V63.11a8.77,8.77,0,0,1,8.77-8.77H323a8.77,8.77,0,0,1,8.77,8.77V165.65L311.58,145.3H131.34A8.77,8.77,0,0,1,122.56,136.53Zm243,185.91a8.77,8.77,0,0,1-8.77,8.77H176.57l-20.15,20.35V249a8.77,8.77,0,0,1,8.77-8.77H356.81a8.77,8.77,0,0,1,8.77,8.77ZM811,224.94V282.3l-32.81-33.12H484.81a14.28,14.28,0,0,1-14.28-14.28V115.37a14.28,14.28,0,0,1,14.28-14.28H796.75A14.28,14.28,0,0,1,811,115.37Zm326.72,43.86a8.77,8.77,0,0,1-8.77,8.77H948.74l-20.15,20.35V195.38a8.77,8.77,0,0,1,8.77-8.77H1129a8.77,8.77,0,0,1,8.77,8.77Zm83-163.57v35.23l-20.15-20.35H1020.31a8.77,8.77,0,0,1-8.77-8.77V37.93a8.77,8.77,0,0,1,8.77-8.77h191.62a8.77,8.77,0,0,1,8.77,8.77Zm451,100.9a14.28,14.28,0,0,1-14.28,14.28H1364l-32.81,33.12V86.61a14.28,14.28,0,0,1,14.28-14.28h311.94a14.28,14.28,0,0,1,14.28,14.28Zm112.74-72.44V60.27a8.77,8.77,0,0,1,8.77-8.77H1984.8a8.77,8.77,0,0,1,8.77,8.77V162.81l-20.15-20.35H1793.18A8.77,8.77,0,0,1,1784.4,133.69Zm253,171.27a8.77,8.77,0,0,1-8.77,8.77H1848.42l-20.15,20.35V231.54a8.77,8.77,0,0,1,8.77-8.77h191.62a8.77,8.77,0,0,1,8.77,8.77Z" fill="#263238"/></g></svg>