<svg xmlns="http://www.w3.org/2000/svg" viewBox="0 0 2165.53 427"><defs><style>.a{fill:none;}.b{fill:#263238;}</style></defs><title>Artboard 1</title><path class="a" d="M1153.68,103.1h179.37l20.05,20.25V21.3a8.73,8.73,0,0,0-8.73-8.73H1153.68A8.73,8.73,0,0,0,1145,21.3V94.37A8.73,8.73,0,0,0,1153.68,103.1ZM1421,293a14.22,14.22,0,0,0,14.22-14.21v-119A14.22,14.22,0,0,0,1421,145.58H1110.55a14.21,14.21,0,0,0-14.21,14.21h0V326L1129,293Zm339.42-75.86H1569.7a8.73,8.73,0,0,0-8.73,8.73V327.92L1581,307.67h179.37a8.73,8.73,0,0,0,8.73-8.73V225.87a8.73,8.73,0,0,0-8.72-8.73ZM248.63,199.4V97.35a8.73,8.73,0,0,0-8.73-8.73H49.21a8.73,8.73,0,0,0-8.73,8.73v73.08a8.73,8.73,0,0,0,8.73,8.73H228.58Zm29,66.21H86.92a8.73,8.73,0,0,0-8.72,8.73V376.4l20-20.26H277.61a8.73,8.73,0,0,0,8.73-8.73h0V274.35a8.73,8.73,0,0,0-8.72-8.74h0Zm1249.7-95.78h292l32.64,33V36.67a14.21,14.21,0,0,0-14.21-14.21H1527.31a14.22,14.22,0,0,0-14.22,14.21V155.61a14.22,14.22,0,0,0,14.22,14.22Zm379.55-12.54h179.37l20,20.25V75.49a8.73,8.73,0,0,0-8.73-8.73H1906.86a8.73,8.73,0,0,0-8.73,8.73v73.05a8.73,8.73,0,0,0,8.71,8.75h0Zm14,97.61v102l20.05-20.25H2120.3a8.73,8.73,0,0,0,8.73-8.73v-73a8.73,8.73,0,0,0-8.73-8.73H1929.6a8.73,8.73,0,0,0-8.7,8.71ZM575.61,224.34H384.91a8.73,8.73,0,0,0-8.73,8.73h0v102l20-20.25H575.61a8.73,8.73,0,0,0,8.73-8.73h0V233.07A8.73,8.73,0,0,0,575.61,224.34Zm434.2-185.8H819.09a8.73,8.73,0,0,0-8.73,8.73h0v73.08a8.73,8.73,0,0,0,8.73,8.72h179.4l20,20.25V47.23A8.73,8.73,0,0,0,1009.81,38.54Zm-346,.36H353.32A14.22,14.22,0,0,0,339.1,53.12h0V172.06a14.22,14.22,0,0,0,14.21,14.21h292l32.64,33V53.13A14.22,14.22,0,0,0,663.76,38.9ZM935.27,184.17H744.58a8.73,8.73,0,0,0-8.73,8.73h0V295l20.08-20.25H935.27A8.73,8.73,0,0,0,944,266h0V192.9A8.73,8.73,0,0,0,935.27,184.17Z"/><path class="b" d="M2166.26,426.15V-1.15H-.74V426.15c332.38-49.82,698.68-77.42,1083.5-77.42S1833.89,376.32,2166.26,426.15ZM1769.6,298a8.74,8.74,0,0,1-8.74,8.74H1581.37L1561.31,327V224.88a8.74,8.74,0,0,1,8.74-8.74h190.83a8.74,8.74,0,0,1,8.74,8.74Zm360.17-44v73.12a8.74,8.74,0,0,1-8.74,8.74H1941.54L1921.47,356V254a8.74,8.74,0,0,1,8.74-8.74H2121a8.74,8.74,0,0,1,8.73,8.74Zm-231-179.62a8.74,8.74,0,0,1,8.74-8.74h190.83a8.74,8.74,0,0,1,8.74,8.74V176.52L2087,156.25H1907.42a8.74,8.74,0,0,1-8.74-8.74Zm-385.32-38.8a14.23,14.23,0,0,1,14.23-14.22h310.65a14.22,14.22,0,0,1,14.22,14.22h0V201.78l-32.66-33h-292.2a14.23,14.23,0,0,1-14.23-14.22ZM1145,20.17a8.74,8.74,0,0,1,8.74-8.74h190.83a8.74,8.74,0,0,1,8.74,8.74V122.24L1333.2,102H1153.73a8.74,8.74,0,0,1-8.74-8.74Zm-48.63,257.67v-119a14.22,14.22,0,0,1,14.22-14.22h310.64a14.23,14.23,0,0,1,14.23,14.22v119a14.23,14.23,0,0,1-14.23,14.22H1129l-32.66,33ZM39.77,169.4V96.27a8.74,8.74,0,0,1,8.74-8.74H239.33a8.74,8.74,0,0,1,8.73,8.74V198.39L228,178.13H48.5A8.74,8.74,0,0,1,39.77,169.4Zm246,177.12a8.74,8.74,0,0,1-8.74,8.74H97.58L77.51,375.51V273.39a8.74,8.74,0,0,1,8.74-8.74H277.06a8.74,8.74,0,0,1,8.74,8.74h0ZM584,305.21a8.74,8.74,0,0,1-8.74,8.74H395.77l-20.06,20.26V232.08a8.74,8.74,0,0,1,8.74-8.74H575.26a8.74,8.74,0,0,1,8.74,8.74h0Zm93.68-144.1v57.12l-32.66-33H352.83A14.23,14.23,0,0,1,338.61,171V52A14.23,14.23,0,0,1,352.83,37.8H663.47A14.23,14.23,0,0,1,677.7,52ZM943.88,265a8.74,8.74,0,0,1-8.74,8.74H755.71L735.64,294V191.89a8.74,8.74,0,0,1,8.74-8.74H935.17a8.74,8.74,0,0,1,8.74,8.74h0Zm74.58-151.86v35.11l-20-20.26H818.91a8.74,8.74,0,0,1-8.74-8.74h0V46.12a8.74,8.74,0,0,1,8.74-8.7h190.8a8.74,8.74,0,0,1,8.74,8.74h0Z"/></svg>