<svg xmlns="http://www.w3.org/2000/svg" viewBox="0 0 2160 432"><defs><style>  .cls-1,.cls-4,.cls-5,.cls-6{fill:none;}.cls-2{clip-path:url(#a);}.cls-3{fill:#263238;}.cls-4,.cls-5,.cls-6{stroke:#263238;stroke-linecap:round;stroke-miterlimit:10;}.cls-4{stroke-width:5px;}.cls-5{stroke-width:8.08px;}.cls-6{stroke-width:8.08px;}</style><clipPath><rect class="cls-1" x="-8" y="-2.6" width="2176" height="435.6"/></clipPath></defs><title>  contact divider</title><g class="cls-2"><path class="cls-3" d="M-8-2.6V426.47c333.75-50 701.58-77.75 1088-77.75s754.25 27.71 1088 77.75V-2.6ZM122.56 136.53V63.11a8.77 8.77 0 0 1 8.77-8.77H323a8.77 8.77 0 0 1 8.77 8.77V165.65L311.58 145.3H131.34a8.77 8.77 0 0 1-8.78-8.76Zm243 185.91a8.77 8.77 0 0 1-8.77 8.77H176.57l-20.15 20.35V249a8.77 8.77 0 0 1 8.77-8.77H356.81a8.77 8.77 0 0 1 8.77 8.77ZM811 224.94V282.3l-32.81-33.12H484.81a14.28 14.28 0 0 1-14.28-14.28V115.37a14.28 14.28 0 0 1 14.28-14.28H796.75A14.29 14.29 0 0 1 811 115.37Zm326.72 43.86a8.77 8.77 0 0 1-8.77 8.77H948.74l-20.15 20.35V195.38a8.77 8.77 0 0 1 8.77-8.77H1129a8.77 8.77 0 0 1 8.77 8.77h0Zm83-163.57v35.23l-20.15-20.35H1020.31a8.77 8.77 0 0 1-8.77-8.77h0V37.93a8.77 8.77 0 0 1 8.77-8.77h191.62a8.77 8.77 0 0 1 8.77 8.77h0Zm451 100.9a14.28 14.28 0 0 1-14.28 14.28H1364l-32.81 33.12V86.61a14.28 14.28 0 0 1 14.28-14.28h311.94a14.28 14.28 0 0 1 14.28 14.28h0Zm112.74-72.44V60.27a8.77 8.77 0 0 1 8.77-8.77H1984.8a8.77 8.77 0 0 1 8.77 8.77h0V162.81l-20.15-20.35H1793.18a8.77 8.77 0 0 1-8.78-8.76h0.06Zm253 171.27a8.77 8.77 0 0 1-8.77 8.77H1848.42l-20.15 20.35V231.54a8.77 8.77 0 0 1 8.77-8.77h191.62a8.77 8.77 0 0 1 8.77 8.77h0Z"/></g><line class="cls-4" x1="175.07" x2="224.55" y1="258.6" y2="258.6"/><line class="cls-4" x1="240.12" x2="252.03" y1="258.6" y2="258.6"/><line class="cls-4" x1="267.61" x2="312.51" y1="258.6" y2="258.6"/><line class="cls-4" x1="175.37" x2="196.45" y1="294.3" y2="294.3"/><line class="cls-4" x1="212.02" x2="256.01" y1="294.3" y2="294.3"/><line class="cls-4" x1="299.07" x2="322.9" y1="294.3" y2="294.3"/><line class="cls-4" x1="271.58" x2="283.49" y1="294.3" y2="294.3"/><line class="cls-4" x1="175.07" x2="246.08" y1="276.45" y2="276.45"/><line class="cls-4" x1="175.37" x2="187.28" y1="312.15" y2="312.15"/><line class="cls-4" x1="202.86" x2="270.67" y1="312.15" y2="312.15"/><line class="cls-4" x1="286.24" x2="298.16" y1="312.15" y2="312.15"/><line class="cls-4" x1="313.08" x2="263.59" y1="108.82" y2="108.82"/><line class="cls-4" x1="248.02" x2="236.11" y1="108.82" y2="108.82"/><line class="cls-4" x1="220.53" x2="175.63" y1="108.82" y2="108.82"/><line class="cls-4" x1="312.77" x2="291.69" y1="90.97" y2="90.97"/><line class="cls-4" x1="276.12" x2="232.14" y1="90.97" y2="90.97"/><line class="cls-4" x1="189.07" x2="165.24" y1="90.97" y2="90.97"/><line class="cls-4" x1="216.56" x2="204.65" y1="90.97" y2="90.97"/><line class="cls-4" x1="312.77" x2="244.96" y1="126.67" y2="126.67"/><line class="cls-4" x1="229.39" x2="217.47" y1="126.67" y2="126.67"/><line class="cls-4" x1="313.08" x2="242.06" y1="73.11" y2="73.11"/><line class="cls-4" x1="226.48" x2="205.41" y1="73.11" y2="73.11"/><line class="cls-5" x1="579" x2="499.08" y1="188.96" y2="188.96"/><line class="cls-5" x1="721.08" x2="701.84" y1="188.96" y2="188.96"/><line class="cls-5" x1="676.68" x2="604.16" y1="188.96" y2="188.96"/><line class="cls-5" x1="780.28" x2="746.24" y1="188.96" y2="188.96"/><line class="cls-5" x1="780.28" x2="746.24" y1="131.29" y2="131.29"/><line class="cls-5" x1="721.08" x2="650.04" y1="131.29" y2="131.29"/><line class="cls-5" x1="580.48" x2="542" y1="131.29" y2="131.29"/><line class="cls-5" x1="624.88" x2="605.64" y1="131.29" y2="131.29"/><line class="cls-5" x1="780.78" x2="690" y1="217.79" y2="217.79"/><line class="cls-6" x1="664.84" x2="630.8" y1="217.79" y2="217.79"/><line class="cls-5" x1="780.78" x2="666.07" y1="160.13" y2="160.13"/><line class="cls-5" x1="640.91" x2="606.87" y1="160.13" y2="160.13"/><line class="cls-5" x1="1563.2" x2="1643.1" y1="160.17" y2="160.17"/><line class="cls-5" x1="1421.1" x2="1440.4" y1="160.17" y2="160.17"/><line class="cls-5" x1="1465.5" x2="1538" y1="160.17" y2="160.17"/><line class="cls-5" x1="1361.9" x2="1396" y1="160.17" y2="160.17"/><line class="cls-5" x1="1361.9" x2="1396" y1="102.5" y2="102.5"/><line class="cls-5" x1="1421.1" x2="1492.2" y1="102.5" y2="102.5"/><line class="cls-5" x1="1561.7" x2="1600.2" y1="102.5" y2="102.5"/><line class="cls-5" x1="1517.3" x2="1536.6" y1="102.5" y2="102.5"/><line class="cls-5" x1="1361.4" x2="1452.2" y1="189" y2="189"/><line class="cls-6" x1="1477.4" x2="1511.4" y1="189" y2="189"/><line class="cls-5" x1="1361.4" x2="1476.1" y1="131.33" y2="131.33"/><line class="cls-5" x1="1501.3" x2="1535.3" y1="131.33" y2="131.33"/><line class="cls-4" x1="1846.6" x2="1896.1" y1="294.83" y2="294.83"/><line class="cls-4" x1="1911.7" x2="1923.6" y1="294.83" y2="294.83"/><line class="cls-4" x1="1939.2" x2="1984.1" y1="294.83" y2="294.83"/><line class="cls-4" x1="1846.6" x2="1917.6" y1="276.98" y2="276.98"/><line class="cls-4" x1="1846.9" x2="1868" y1="241.28" y2="241.28"/><line class="cls-4" x1="1883.6" x2="1927.6" y1="241.28" y2="241.28"/><line class="cls-4" x1="1970.6" x2="1994.4" y1="241.28" y2="241.28"/><line class="cls-4" x1="1943.1" x2="1955" y1="241.28" y2="241.28"/><line class="cls-4" x1="1846.9" x2="1858.8" y1="259.13" y2="259.13"/><line class="cls-4" x1="1874.4" x2="1942.2" y1="259.13" y2="259.13"/><line class="cls-4" x1="1957.8" x2="1969.7" y1="259.13" y2="259.13"/><line class="cls-4" x1="1974.6" x2="1925.2" y1="87.85" y2="87.85"/><line class="cls-4" x1="1909.6" x2="1897.7" y1="87.85" y2="87.85"/><line class="cls-4" x1="1882.1" x2="1837.2" y1="87.85" y2="87.85"/><line class="cls-4" x1="1974.3" x2="1953.2" y1="70" y2="70"/><line class="cls-4" x1="1937.7" x2="1893.7" y1="70" y2="70"/><line class="cls-4" x1="1850.6" x2="1826.8" y1="70" y2="70"/><line class="cls-4" x1="1878.1" x2="1866.2" y1="70" y2="70"/><line class="cls-4" x1="1974.3" x2="1906.5" y1="105.7" y2="105.7"/><line class="cls-4" x1="1890.9" x2="1879" y1="105.7" y2="105.7"/><line class="cls-4" x1="1867" x2="1938" y1="123.55" y2="123.55"/><line class="cls-4" x1="1953.6" x2="1974.6" y1="123.55" y2="123.55"/><line class="cls-4" x1="1075.2" x2="1054.1" y1="47.74" y2="47.74"/><line class="cls-4" x1="1174.2" x2="1150.3" y1="47.74" y2="47.74"/><line class="cls-4" x1="1201.6" x2="1189.7" y1="47.74" y2="47.74"/><line class="cls-4" x1="1134.8" x2="1090.8" y1="47.74" y2="47.74"/><line class="cls-4" x1="1090.8" x2="1067" y1="65.59" y2="65.59"/><line class="cls-4" x1="1118.3" x2="1106.4" y1="65.59" y2="65.59"/><line class="cls-4" x1="1201.6" x2="1133.8" y1="65.59" y2="65.59"/><line class="cls-4" x1="1162.2" x2="1150.3" y1="101.3" y2="101.3"/><line class="cls-4" x1="1201.6" x2="1177.8" y1="101.3" y2="101.3"/><line class="cls-4" x1="1134.8" x2="1089.8" y1="101.3" y2="101.3"/><line class="cls-4" x1="1201.6" x2="1157.7" y1="83.44" y2="83.44"/><line class="cls-4" x1="1142.1" x2="1097.2" y1="83.44" y2="83.44"/><line class="cls-4" x1="1081.5" x2="1057.7" y1="83.44" y2="83.44"/><line class="cls-4" x1="1074.1" x2="1095.2" y1="258.76" y2="258.76"/><line class="cls-4" x1="975.13" x2="998.95" y1="258.76" y2="258.76"/><line class="cls-4" x1="947.64" x2="959.55" y1="258.76" y2="258.76"/><line class="cls-4" x1="1014.5" x2="1058.5" y1="258.76" y2="258.76"/><line class="cls-4" x1="1058.5" x2="1082.3" y1="240.91" y2="240.91"/><line class="cls-4" x1="1031" x2="1042.9" y1="240.91" y2="240.91"/><line class="cls-4" x1="947.64" x2="1015.4" y1="240.91" y2="240.91"/><line class="cls-4" x1="1047.5" x2="1059.4" y1="205.21" y2="205.21"/><line class="cls-4" x1="1008.1" x2="1031.9" y1="205.21" y2="205.21"/><line class="cls-4" x1="1075" x2="1119.9" y1="205.21" y2="205.21"/><line class="cls-4" x1="947.64" x2="992.54" y1="205.21" y2="205.21"/><line class="cls-4" x1="975.13" x2="1019.1" y1="223.06" y2="223.06"/><line class="cls-4" x1="1034.7" x2="1102.5" y1="223.06" y2="223.06"/><line class="cls-4" x1="947.64" x2="959.55" y1="223.06" y2="223.06"/></svg>
