<svg xmlns="http://www.w3.org/2000/svg" viewBox="0 0 2160 161.98"><defs><style>.a{fill:#fff;stroke:#fff;}.a,.b,.c,.d{stroke-miterlimit:10;}.a,.b{stroke-width:5px;}.b,.c,.d{fill:none;stroke:#3a3a3a;}.c,.d{stroke-linecap:round;stroke-width:7px;}.d{stroke-dasharray:0.95 12.3;}</style></defs><title>nyeremeny_div</title><path class="a" d="M1198.41,2.79l-126.1,15.45L946.21,33.7a15.82,15.82,0,0,1-13.58,17.78l5.74,46.87,5.74,46.87a15.82,15.82,0,0,1,17.47,14l126.1-15.45,126.1-15.45a15.82,15.82,0,0,1,13.58-17.78l-5.74-46.87-5.74-46.87A15.82,15.82,0,0,1,1198.41,2.79Z"/><path class="b" d="M1196.56,5.43,1072.62,20.62,948.68,35.81a15.37,15.37,0,0,1-13.39,17.13l5.52,45,5.52,45a15.37,15.37,0,0,1,17.13,13.39l123.94-15.19L1211.34,126a15.37,15.37,0,0,1,13.39-17.13l-5.52-45-5.52-45A15.37,15.37,0,0,1,1196.56,5.43Z"/><rect class="b" x="988.56" y="37.73" width="182.91" height="86.37" rx="31.59" ry="31.59" transform="translate(-1.82 131.98) rotate(-6.99)"/><line class="c" x1="964.59" y1="35.32" x2="964.65" y2="35.82"/><line class="d" x1="966.15" y1="48.03" x2="978.29" y2="147.12"/><line class="c" x1="979.04" y1="153.23" x2="979.1" y2="153.72"/><line class="c" x1="1181" y1="8.8" x2="1181.06" y2="9.3"/><line class="d" x1="1182.56" y1="21.51" x2="1194.7" y2="120.6"/><line class="c" x1="1195.45" y1="126.7" x2="1195.51" y2="127.2"/></svg>