<svg xmlns="http://www.w3.org/2000/svg" viewBox="0 0 2160 270.17"><defs><style>.a{fill:#fff;}.b{fill:#f55;}</style></defs><title>Artboard 1</title><path class="a" d="M22.89,163.67c6.42,5.63,7.73,13.36,8.05,16.1.24-1.13,2.28-9.8,10.46-13.67,8-3.75,16.9-.69,21.72,4,5.23,5.14,5.86,12.46,6.45,19.25a47.66,47.66,0,0,1,0,8.05l8.05,3.21a31.1,31.1,0,0,1,5.64-12.86c2-2.63,4.23-5.63,8.44-7.25,1.41-.54,6.23-2.39,11.26,0a13.82,13.82,0,0,1,6.84,7.65c.5-1.82,2.26-7.26,7.41-9.81a12.18,12.18,0,0,1,3-1,18.8,18.8,0,0,1,12.86,2.42c8.4,5.21,8.85,15.3,8.85,16.1l8.05,1.25c.12-.62,1.86-8.52,9.63-11.71,8.2-3.35,15.31,1.74,15.68,2a16.59,16.59,0,0,1,8.44-8.44c4.73-1.94,9.06-.79,12.08,0a25,25,0,0,1,10.46,5.64,18.52,18.52,0,0,1,28.18-13.7c4.22,2.64,6.18,6.63,7.25,8.85a25.67,25.67,0,0,1,2.42,12.86,51,51,0,0,1,21.72,41.83l16.1.81a96.22,96.22,0,0,1,17.7-16.9q3.51-2.57,7.25-4.82c-.18-4.29-.3-10.38,0-17.7.5-12.08,1.61-14.6,2.42-16.1a22.56,22.56,0,0,1,16.1-11.26c9.63-1.52,19.72,3.58,23.32,11.26,2.14,4.55,1.57,9.06.81,15.28-.9,7.15-2.55,6.16-4,15.28-.44,2.8-.8,5.94-3.21,8.85a13.19,13.19,0,0,1-4,3.21,12.47,12.47,0,0,0,4,4c5.3,3.23,11.19,1.14,12.08.81a71.65,71.65,0,0,1,25.33-8.05c.09-2.76.22-6.63.4-11.26.41-10.73.53-11.86.81-13.27a32.73,32.73,0,0,1,7.65-15.68c2.27-2.53,8.92-9.89,18.9-9.65a21.92,21.92,0,0,1,12.86,4.82c6.4,5,8.32,12.35,9.65,17.7,3.17,12.79-.39,20,4.82,24.16,3,2.41,4.81.53,8.05,3.21,5.56,4.61,2.62,12,7.25,16.1,1.92,1.72,5.54,3.18,12.86,1.61a70.88,70.88,0,0,1,0-17.7c1-7.72,1.8-13.54,6.44-16.9a13.6,13.6,0,0,1,7.25-2.42,44.54,44.54,0,0,1,8.85-3.21c7.12-1.76,9.6-.49,11.26-2.42,3.07-3.55-3.86-9.73-2.42-19.3.08-.57,1.49-9,8.85-13.67,6.51-4.15,16.42-4.6,22.52.81,7.24,6.41,5,17.4,4,22.52a35.54,35.54,0,0,1-7.25,15.28,20.43,20.43,0,0,1,8.85,3.21c5.68,3.8,6.8,9.17,14.47,14.47a9.61,9.61,0,0,0,3.15,1.67,10.06,10.06,0,0,1,2-1.11s.36-18.37,9.36-23.4c0,0,.36-21.6,11.52-24.48,0,0,6.48-5,23-1.08,0,0,8.65,0,8.65,3.24s-.36,3.59,0,5,2.15,6.13.71,8.65c0,0,2.15,6.13,1.44,7.21,0,0,3.59,9-.71,13.68,0,0,1.08.71,0,1.8s1.08,3.59,1.08,6.48c0,0,6.13.71,7.92,2.52a32.55,32.55,0,0,1,5.77,10.44s4.68,10.06,5.39,18,.36,1.44.36,1.44a12.67,12.67,0,0,1,5.39,6.48l.52.42,20.9,2.5c2.38-1.09,5.68-1.25,10.27.31,0,0-.36-43.2,5.77-37.08,0,0,3.59-8.65,9.36-9.36,0,0-.36-11.16,11.16-13.32,0,0-11.16-19.81,7.56-28.08S721.62,180,721.3,182.86s2.15,5,0,7.92a5.35,5.35,0,0,1,2.79,4.41,21.4,21.4,0,0,0-2.24,1.44c-.36.36-.45,2.43-.9,3l-.9,1.08s.81.63.81,1.17-.45,4.77-1.71,5.21-10.44,1.8-9.27,4,2.43,8.91,14.75,9.63l8.05,1.62s5.12,1.62,6.75,15.39,2.07,12,2.07,12,7.92,6.56,13.08,19.66l15.22,1.82c-3.65-7.31-6.48-20.13-2.43-42.27,0,0,1.89-6.75,16.48-8.37l5.68-7.83s-11.61-4.32-10.53-15.92,2.15-22.68,13.77-22.68,19.12,7.83,19.45,15.1a10.39,10.39,0,0,0,6.48,9.45s6.75-5.39,13.77-.81,9.71,5.65,10.78,10.8,6.48,8.37,6.48,8.37a54.34,54.34,0,0,1-3.77,6.75c-1.89,2.7.54,5.12,1.62,6.48s3.24,1.35,3,3.77-5.39,11.34-7,13.77.54,9.18,6.21,10.26c0,0-2.43-5.95-.27-8.91s14.31-14.85,23.49-14.57,17.55,6.75,17.55,6.75,2.43-1.35,3-6.48c0,0,2.7-5.68,5.95-7.83s9.18-1.62,9.18-1.62l-.54-8.37a23.43,23.43,0,0,1-3-11.07s-8.65-6.21,1.08-11.07c0,0-.27-5.12,1.08-6.21s5.68,0,5.68,0,2.7-14.85,16.75-15.39,15.66,17.55,15.66,17.55v5.95c0,.81,1.35,5.68,0,9.18s.81,7-5.95,6.48l-.54,4.59a13.19,13.19,0,0,1,6.75,3.5s-1.08-22.14,19.45-24.57a9.61,9.61,0,0,1,2.7-1.62c1.08-.27,9.45,2.15,11.88,2.7s5.95,1.35,5.39,3.77-1.35,1.89-1.08,3.5,2.15,2.7,2.7,15.39c0,0,1.08,11.34-4,18.12,0,0-3,15.1,6.75,17.55s6.75,2.7,6.75,2.7,5.68,4,6.75,4.85.27-14.09,6.75-22.14,4.59-15.39,7.56-17.28,21.33-10.8,26.17-11.34,3-5.95,3.24-7-7.3-10.8-8.37-15.1.54-17.55,7-22.14,6.48-4.85,8.65-4.85,8.05-.27,10.26,2.15,6.75,7.83,7,9.72,0,11.88.27,14.09.27,8.05-1.89,10c0,0-.81,5.12-.81,6.48,0,3.29,3.75,4.79,5.68,5.95a138.08,138.08,0,0,1,13.93,9.67,35.53,35.53,0,0,1,.33-4.77s-2.84-7.63-2.46-29c0,0-2.06-5.29-1.81-6.47s.47-3.87,0-4.4-1.14-4.78-1-6.34.13-8.93,3.49-13.84c0,0,.91-9.31.39-10.48a4.33,4.33,0,0,0-1.32-1.79s-3.41-.51-4-2.19-1.29-21.6-.26-28.07c0,0-2.46-4.65-3.36-6s-3.23-1.68-3.74-1.17-10.22,4.65-11.64,5.83-7.63,6-9.06,6.73-8.53,2.19-14.09-1.42a27.89,27.89,0,0,0-12.54-3.87s-.88-.74,0-.61a10.49,10.49,0,0,0,2.22-.06c.16,0-2.33-2.91-3.84-3.17s-7.57.1-8.86.1-1.55-.39-1.68-.91-.51-1.17,1.17-1.29,3.36,0,4.4-.13.95-.51,1-.95-1.29-1.64-4-1.72-6.47-.73-6.94-1.47,1.25-1.38,2.93-1.17a53.55,53.55,0,0,1,5.38.82c.21.17.09-.56-.13-.6a30.82,30.82,0,0,0-4.27-1.38c-1.68-.3-3.92-.68-4-1.34s.3-1.17,1.42-1.17a27.79,27.79,0,0,1,6.51,1.38c1,.51,1.21.21,1.34,0s.09-1.38-2.84-1.85-4.27-.82-4.65-1.47,1.25-1.29,3.1-.73,5.43,1.29,6,1.59a15.27,15.27,0,0,0,5.25.34c.68-.3,0-1.72-1.12-3a7.56,7.56,0,0,1-1.68-4.48,1,1,0,0,1,1.12-.88h.09c.43.13,2.37,3,2.67,3.92a13.27,13.27,0,0,0,2.46,3.32,10.81,10.81,0,0,1,2.11,3.4c.34,1.12,4.48,1.76,6.73,2.67s3.23.87,4.74.13a93.8,93.8,0,0,1,8.8-3.7c3.14-1.08,13.54-15.6,19.49-19.49s22.14-14.74,23.47-15.77l.06-1.61a30.47,30.47,0,0,1-2.33-3.81c-.71-1.55-3.55-5-3.87-6.41s-.51-6.66.06-7.63-.71-1.94-.64-2.78a19.12,19.12,0,0,0,.06-4.33c-.26-1.17-.51-5.23.51-7.19s4.72-6.6,9-7,10,.64,13.26,3.49,3.68,6.41,3.74,9.25-.45,6.21-.26,7.44-1,5-2.46,6a3.37,3.37,0,0,0-.51,2.19c.06,1.49-.39,3.87.13,4.78s1.94,1.94,3.29,5.36c0,0,25,6.73,28.18,12s3.29,8.05,4.33,9.19a27.51,27.51,0,0,0,6.73,5.51c2.78,1.42,8.28,6,9.19,7.51s.91,2.65,2.59,2.52a25.73,25.73,0,0,0,9-2.78c2.84-1.68,3-1.36,3-1.36l.39.39a29.64,29.64,0,0,0,4.59-2.78c.78-.84,5-4.33,6-4.59s9.44-1.42,10.42-1a28.65,28.65,0,0,1,3.42,2.26,2.67,2.67,0,0,1,.51,2.19,15.34,15.34,0,0,1-3.29.84c-.45.06.45,1.42,0,1.87s-1.55.32-1.81.58.19,1.55.19,1.55-.32,1-1.1.84c0,0,.39,1,.06,1.42a4.73,4.73,0,0,1-1.74.71,3.28,3.28,0,0,1,.19,1.42c-.13.51-.45.26-2,.77s-6.53.77-8,.19-4.46,1-5,1.61.06,1.61.06,1.61a29.65,29.65,0,0,1-2.4,2.72,138.33,138.33,0,0,1-13.65,7.89c-4.59,2.13-7.76,2-8.47,1.68s-10.06-8.28-11.64-10.29-7-6.47-9.25-9.19l-1-1.22s-.76.52-.63,2.58.26,15,.06,20.37c0,0,2.65,9.06,3.1,13.71s-2.06,5.36-2.06,5.36.32,4.65,1,6,4.4,7.57,4.65,8.93a62,62,0,0,1,0,7c0,1,5,9.31,5,20,0,8.22,2,26.92,2.82,37.41a35.92,35.92,0,0,1,11-6.6l.54-2.41s-.81-1.89-1.62-4.32a17.3,17.3,0,0,1-.54-5.95c0-.81-4.85-7.83-3-14.09s3.77-13,5.95-14.31,3.77-5.39,9.45-4.32c0,0,5.68-3.5,11.61,1.62s5.39,7.56,5.39,7.56,5.39,8.05,4,16.75c0,0-.54,5.95-.54,7.83s-1.35,1.89-1.35,1.89-1.62,3-.54,4-1.35.81-1.35.81l-.27,5.68s20,7.3,29.19,16.75S1227.68,265,1227.68,265s10.53-1.62,10.8-3.77l.27-5.39,3.24-3-1.08-5.39-1.08-6.75s-4-3-4.32-5.39,1.62-6.75,2.7-6.21-.54-7.3,1.35-10.26,7-11.88,17.28-11.88S1275,217.47,1275,217.47s13.5-2.15,16.19-3.5,5.68-7,5.68-11.34c0,0-5.12-3.24-5.68-9.18a33.72,33.72,0,0,1,1.08-11.34v-6.48s5.68-10.26,7.3-11.61-.81-5.12,7.83-5.68,18.63,9.45,18.63,9.45,6.21,10.53,1.08,20.52-7.56,11.61-7.56,14.31,2.15,10.8,6.75,13.5,17,8.65,18.37,8.65,7,1.08,8.37,8.05a35.47,35.47,0,0,1,.76,5.09c1.2-.17,7.29-1,9.23-.24,2.15.81,13.77,9.72,16.19,16.48a27.37,27.37,0,0,1,1.62,12.15l18.9-2.43,7.3-13.23a28.54,28.54,0,0,1-7.3-23.49v-8.37s8.05-9.18,8.91-9.18.27-3.77,1.35-4.59,21.07-3.24,28.62,11.61c0,0,2.7.54,1.89-2.15s-7-6.48-7.3-9.18-6.21-6.48-1.08-13.77c0,0-.81-4.59,0-5.68s2.43-2.43,3-4.32,2.43-13.77,21.33-11.07,19.66,22,19.66,22-2.43,7.83-4.85,9.72-9.45,8.37-9.72,10.26-.54,3.24-.54,3.24,5.68-.81,7.56,7c0,0,16.19,7.56,17.55,9.18.53.64,2.29,5,4.21,10.06a17.11,17.11,0,0,1,4.88.27A18.7,18.7,0,0,1,1509,255.1a26.4,26.4,0,0,0-.87-12.08c-.88-2.68-1.69-3.5-2.59-6.89-.75-2.81-1.62-6-.87-9.48.83-3.67,3.16-5.93,6-8.62,3.68-3.44,9.23-8.62,17.23-8.62,4.76,0,8.18,1.85,11.2,3.44l.72.39a22.15,22.15,0,0,1,4.78-3.51c12.42-7,14.85,2.15,14.85,2.15a19.89,19.89,0,0,0,1.35-6.75c0-3.5.81-13.23.81-15.39s2.43-14.85,18.12-16.75,25.92,14.85,25.92,14.85,3.24,8.37-.81,31.87c0,0-3.24,5.39-4,6.48,0,0,8.56,5.12,13.08,5.14V216c3.36-1.67,3.74-5.65,7.59-9.06,4.59-4.09,10.55-4.18,16.38-4.31a40.13,40.13,0,0,1,22.14,6.73.47.47,0,0,0,.24.16c.67.11,1.66-2.13,2.61-4.81a7.72,7.72,0,0,1-1.1-8.62,31.3,31.3,0,0,1-1.44-11.07,22.29,22.29,0,0,1,1.65-8.26,18.87,18.87,0,0,1,8.62-9.48c6.38-3.16,13.91-1.78,19,1.72,6,4.22,7.61,10.84,8.62,15.5,1.58,7.15.45,13.46-.43,18.31a61.87,61.87,0,0,1-2.15,8.4q1,.93,2,1.93a45.71,45.71,0,0,1,11.3,20.25c.49-11.31,6.62-21.26,15.93-25.41,1.75-.8,11.28-4.76,20.89,0a23.59,23.59,0,0,1,9.26,8.4,13.08,13.08,0,0,1,4.84-6.36,12.45,12.45,0,0,1,3.76-1.72,35.36,35.36,0,0,1,1.83-12c1.34-3.94,2.45-7.26,5.72-9.9a16.71,16.71,0,0,1,11.63-3.33c1.71.16,6.57.47,10.06,4,2.63,2.7,3.17,6.37,4.31,13.78a82.21,82.21,0,0,1,.87,10.34c.09,4-.18,5.29,0,9.48.21,4.82.31,7.25.87,8.62,2.23,5.57,8.24,3.93,17.23,10.34,0,0,1.24.84,12.92,12.92a97.63,97.63,0,0,1,17.23-38.77l12.92-3.44a32.81,32.81,0,0,1-2.59-8.62c-.76-5-.14-9.06.87-15.5.56-3.57,1.22-6.52,1.72-8.62-.94-1.14-2.12-3.15-1.72-5.16.73-3.67,6.13-5.16,9.48-6,3.81-1,10.75-2.89,18.12.87,1.39.71,7.77,4.15,10.34,11.2,3.24,8.95-.87,20.39-.87,20.68l-1.72,6.89a28.82,28.82,0,0,0,5.16,5.16c7.46,5.75,12.32,3.48,20.68,8.62,2.87,1.78,8.67,5.46,10.34,12.08a15.93,15.93,0,0,1,.26,6.34l4-2a65.07,65.07,0,0,1,.87-17.23c1.47-7.94,3.74-20.13,14.21-28.87a37,37,0,0,1,20.35-8.2c3.62-.28,9.18-.66,15.22,2.36a26.44,26.44,0,0,1,12,12.38,53.14,53.14,0,0,1,3.54-19,7.9,7.9,0,0,1,.31-5c2.77-6.17,15.72-7.67,25.1-3.63,1.84.8,7.18,3.1,10.34,8.62,3.29,5.72,2.54,12.08,1.72,19.82a59.15,59.15,0,0,1-1.51,8.4,22.14,22.14,0,0,1,11.07-7,22.86,22.86,0,0,1,12.56.49,23.46,23.46,0,0,1,11.2,8,18.12,18.12,0,0,1,2.8-9.91,17.91,17.91,0,0,1,16.1-8.18,17.51,17.51,0,0,1,9.48,3.87,19.24,19.24,0,0,1,4.52-10.34c6.84-7.72,18-6.32,19.82-6a23.74,23.74,0,0,1,5,1.29c-.15-1.07-1.23-9.52,5-15.93a18.27,18.27,0,0,1,13.08-5.61,17.26,17.26,0,0,1,10.56,3.87,18,18,0,0,1,6,11.2,21,21,0,0,1-.87,10.34,18.74,18.74,0,0,1,6.33-2.74V-1H-8V158.75a62.82,62.82,0,0,1,10.06-.6C8.82,158.15,16.47,158,22.89,163.67Z"/><path class="b" d="M1107.83,223l-.12,1.45A2.79,2.79,0,0,0,1107.83,223Z"/><path class="a" d="M1116.45,210.26c2.3-1.36,5.18-3.07,9-3a12.72,12.72,0,0,1,3,.43,26.11,26.11,0,0,0-2.11-7c-2.74-5.65-9.93-18.83-10.44-21.74,0,0-2.05,16.6-6.68,29.79,0,0-.48,4.21-1,9.66C1109.83,214.19,1114.43,211.46,1116.45,210.26Z"/></svg>