<svg xmlns="http://www.w3.org/2000/svg" viewBox="0 0 2160 432" fill="#eee"><path d="M1159.6 210.28l.54-2.41s-.8-1.88-1.61-4.29a17.17 17.17 0 0 1-.54-5.9c0-.8-4.82-7.77-2.95-13.94s3.75-12.87 5.9-14.21 3.75-5.36 9.38-4.29c0 0 5.63-3.48 11.53 1.61s5.36 7.5 5.36 7.5 5.36 8 4 16.62c0 0-.54 5.9-.54 7.77s-1.34 1.88-1.34 1.88-1.61 2.95-.54 4-1.34.8-1.34.8l-.27 5.63s19.83 7.24 28.95 16.62 10.45 36.45 10.45 36.45 10.45-1.61 10.72-3.75l.27-5.36 3.22-2.95-1.07-5.36-1.07-6.7s-4-2.95-4.29-5.36 1.61-6.7 2.68-6.16-.54-7.24 1.34-10.18 7-11.79 17.15-11.79 18 10.45 18 10.45 13.4-2.14 16.08-3.48 5.63-7 5.63-11.26c0 0-5.09-3.22-5.63-9.11a33.47 33.47 0 0 1 1.07-11.26v-6.43s5.63-10.18 7.24-11.53-.8-5.09 7.77-5.63 18.49 9.38 18.49 9.38 6.16 10.45 1.07 20.37-7.5 11.53-7.5 14.21 2.14 10.72 6.7 13.4 16.89 8.58 18.23 8.58 7 1.07 8.31 8 .54 5.09.54 5.09 7.24-1.07 9.38-.27 13.67 9.65 16.08 16.35a27.16 27.16 0 0 1 1.61 12.06l18.76-2.41 7.24-13.13a28.33 28.33 0 0 1-7.24-23.32v-8.31s8-9.11 8.84-9.11.27-3.75 1.34-4.56 20.91-3.22 28.41 11.53c0 0 2.68.54 1.88-2.14s-7-6.43-7.24-9.11-6.16-6.43-1.07-13.67c0 0-.8-4.56 0-5.63s2.41-2.41 2.95-4.29 2.41-13.67 21.17-11 19.57 21.71 19.57 21.71-2.41 7.77-4.82 9.65-9.38 8.31-9.65 10.18-.54 3.22-.54 3.22 5.63-.8 7.5 7c0 0 16.08 7.5 17.42 9.11s10.45 26.53 10.18 28.14-7.5 8.84-9.65 10.45c0 0 .27 22.78-3.22 23.32s-6.43-1.61-6.43.8-3.48 4.56-3.22 6.16a47.79 47.79 0 0 1-.27 7 48.43 48.43 0 0 0 8-4.82c2.95-2.41 3.48-1.34 5.63-1.07s8.31-8.31 14.47-9.38 1.34-5.9 2.68-7.24 1.61-2.68 1.88-4.56 3.48-5.09 4.56-7.24 3.48-9.92 13.67-13.67c0 0 5.63-9.38 13.13-35.11 0 0-5.63-7.77 6.7-14.74s14.74 2.14 14.74 2.14a19.74 19.74 0 0 0 1.34-6.7c0-3.48.8-13.13.8-15.28s2.41-14.74 18-16.62 25.73 14.74 25.73 14.74 3.22 8.31-.8 31.63c0 0-3.22 5.36-4 6.43 0 0 9.38 5.63 13.67 5.09a12 12 0 0 1 7.5 1.61L1616.74 433H544.64l-2.83-194.31 3.57-4.29s1.43-13.58 9.65-16.8c0 0 .36-18.23 9.29-23.23 0 0 .36-21.44 11.44-24.3 0 0 6.43-5 22.87-1.07 0 0 8.58 0 8.58 3.22s-.36 3.57 0 5 2.14 6.08.71 8.58c0 0 2.14 6.08 1.43 7.15 0 0 3.57 8.93-.71 13.58 0 0 1.07.71 0 1.79s1.07 3.57 1.07 6.43c0 0 6.08.71 7.86 2.5a32.31 32.31 0 0 1 5.72 10.36s4.65 10 5.36 17.87.36 1.43.36 1.43a12.58 12.58 0 0 1 5.36 6.43 63.48 63.48 0 0 1 15.37 17.15s-1.79-20 16.08-13.94c0 0-.36-42.88 5.72-36.81 0 0 3.57-8.58 9.29-9.29 0 0-.36-11.08 11.08-13.22 0 0-11.08-19.66 7.5-27.87s25 10.36 24.66 13.22 2.14 5 0 7.86a5.31 5.31 0 0 1 2.77 4.38 21.23 21.23 0 0 0-2.23 1.43c-.36.36-.45 2.41-.89 2.95l-.89 1.07s.8.63.8 1.16-.45 4.74-1.7 5.18-10.36 1.79-9.2 4 2.41 8.84 14.65 9.56l8 1.61s5.09 1.61 6.7 15.28 1.88 11.79 1.88 11.79 13.94 11.53 16.89 34.58 18.49 26 18.49 26l.27-30.55s-17.69-8.31-9.92-50.66c0 0 1.88-6.7 16.35-8.31l5.63-7.77s-11.53-4.29-10.45-15.81 2.14-22.51 13.67-22.51 19 7.77 19.3 15a10.31 10.31 0 0 0 6.43 9.38s6.7-5.36 13.67-.8 9.65 5.63 10.72 10.72 6.43 8.31 6.43 8.31a54 54 0 0 1-3.75 6.7c-1.88 2.68.54 5.09 1.61 6.43s3.22 1.34 2.95 3.75-5.36 11.26-7 13.67.54 9.11 6.16 10.18c0 0-2.41-5.9-.27-8.84s14.21-14.74 23.32-14.47 17.42 6.7 17.42 6.7 2.41-1.34 2.95-6.43c0 0 2.68-5.63 5.9-7.77s9.11-1.61 9.11-1.61l-.54-8.31a23.26 23.26 0 0 1-2.95-11s-8.58-6.16 1.07-11c0 0-.27-5.09 1.07-6.16s5.63 0 5.63 0 2.68-14.74 16.62-15.28 15.55 17.42 15.55 17.42v5.9c0 .8 1.34 5.63 0 9.11s.8 7-5.9 6.43l-.54 4.56a13.1 13.1 0 0 1 6.7 3.48s-1.07-22 19.3-24.39a9.54 9.54 0 0 1 2.68-1.61c1.07-.27 9.38 2.14 11.79 2.68s5.9 1.34 5.36 3.75-1.34 1.88-1.07 3.48 2.14 2.68 2.68 15.28c0 0 1.07 11.26-4 18 0 0-2.95 15 6.7 17.42s6.7 2.68 6.7 2.68 5.63 4 6.7 4.82.27-13.94 6.7-22 4.56-15.28 7.5-17.15 21.17-10.72 26-11.26 2.95-5.9 3.22-7-7.24-10.72-8.31-15 .54-17.42 7-22 6.43-4.82 8.58-4.82 8-.27 10.18 2.14 6.7 7.77 7 9.65 0 11.79.27 13.94.27 8-1.88 9.92c0 0-.8 5.09-.8 6.43 0 3.27 3.73 4.76 5.63 5.9 13.41 8 13.87 11.53 23.3 14.18 2.84.8 7.91 2.17 9.67 0 .92-1.14 0-2.28.33-4.67.73-5.29 6.37-8.64 8.67-10s5.18-3.07 9-3c5.66.11 9.51 3.93 11.67 6a23.15 23.15 0 0 1 6 9.67 35.67 35.67 0 0 1 16.6-12.72z"/><path d="M559.46 244.74l-5.24-26.3a1.64 1.64 0 0 1-.44.25c-.63.24-1.48.14-4-1.6-7.62-5.27-8.74-10.59-14.37-14.37a20.28 20.28 0 0 0-8.78-3.19 35.28 35.28 0 0 0 7.19-15.17c1-5.09 3.18-16-4-22.36-6.07-5.37-15.9-4.92-22.36-.8-7.3 4.67-8.7 13-8.78 13.57-1.44 9.5 5.45 15.63 2.4 19.16-1.65 1.91-4.12.65-11.18 2.4a44.21 44.21 0 0 0-8.78 3.19 13.5 13.5 0 0 0-7.19 2.4c-4.6 3.33-5.41 9.11-6.39 16.77a70.36 70.36 0 0 0 0 17.57c-7.28 1.56-10.86.11-12.77-1.6-4.59-4.09-1.68-11.42-7.19-16-3.22-2.66-5-.8-8-3.19-5.18-4.16-1.64-11.3-4.79-24-1.32-5.31-3.23-12.55-9.58-17.57a21.76 21.76 0 0 0-12.77-4.79c-9.91-.24-16.5 7.07-18.76 9.58a32.49 32.49 0 0 0-7.59 15.57c-.27 1.4-.39 2.52-.8 13.17-.18 4.6-.31 8.44-.4 11.18a71.12 71.12 0 0 0-25.15 8c-.89.33-6.73 2.41-12-.8a12.38 12.38 0 0 1-4-4 13.1 13.1 0 0 0 4-3.19c2.4-2.89 2.75-6 3.19-8.78 1.47-9.06 3.11-8.08 4-15.17.76-6.13 1.33-10.65-.8-15.17-3.58-7.62-13.59-12.69-23.15-11.18a22.39 22.39 0 0 0-16 11.18c-.8 1.5-1.9 4-2.4 16-.3 7.27-.18 13.31 0 17.57a96.4 96.4 0 0 0-7.19 4.79 95.51 95.51 0 0 0-17.57 16.77l-16-.8a50.65 50.65 0 0 0-21.56-41.52 25.48 25.48 0 0 0-2.4-12.77c-1.06-2.2-3-6.16-7.19-8.78a19 19 0 0 0-21.56 1.6 19.18 19.18 0 0 0-6.39 12 24.8 24.8 0 0 0-10.38-5.59c-3-.78-7.3-1.93-12 0a16.46 16.46 0 0 0-8.38 8.38c-.37-.27-7.43-5.33-15.57-2-7.71 3.16-9.44 11-9.56 11.62l-8-1.24c0-.81-.44-10.82-8.78-16a18.66 18.66 0 0 0-12.77-2.4 12.09 12.09 0 0 0-3 1c-5.1 2.54-6.85 7.93-7.35 9.74a13.72 13.72 0 0 0-6.79-7.59c-5-2.37-9.78-.54-11.18 0-4.18 1.61-6.42 4.58-8.38 7.19a30.87 30.87 0 0 0-5.59 12.77l-8-3.19a47.3 47.3 0 0 0 0-8c-.58-6.79-1.19-14.07-6.39-19.16-4.79-4.69-13.66-7.73-21.56-4-8.11 3.84-10.14 12.45-10.38 13.57-.33-2.74-1.63-10.42-8-16S16.69 158 10 158s-16.57 0-24 7.19c-6.53 6.33-7.42 14.7-8 20-.27 2.54-1.69 15.83 5.59 27.15 2.14 3.33 4.61 5.82 6.39 11.18a32.5 32.5 0 0 1 1.6 11.18 25.08 25.08 0 0 1-15.17 4.79 25 25 0 0 1-16.77-7.19 23.62 23.62 0 0 1-4.64-7.23v-8.78a50.26 50.26 0 0 0 4-8 40.79 40.79 0 0 0 2.4-8c.5-2.78 1.85-11-2.4-19.16-1.28-2.46-2.43-4.69-4.79-6.39 0 0-6.71-4.84-20 0C-84 181.43-66.18 434-66.18 434H827V276.73zM2225.16 233c-2.86 1.65-6.54 4.81-9.42 11.48l-4.26-16.61c-9.3-9.34-13.83-16.7-16.25-21.81a21.85 21.85 0 0 0-3.85-6c-4.93-5.34-11.61-6.8-15.39-7.27.09-.89.61-7.13-3.85-11.12a12.14 12.14 0 0 0-6-2.78c-6-1.2-11 1.83-12.4 2.78a20.81 20.81 0 0 0 .86-10.26 17.88 17.88 0 0 0-6-11.12 17.13 17.13 0 0 0-10.48-3.85 18.13 18.13 0 0 0-13 5.56c-6.14 6.37-5.07 14.76-4.92 15.82a23.57 23.57 0 0 0-4.92-1.28c-1.85-.27-12.88-1.66-19.67 6a19.1 19.1 0 0 0-4.49 10.26 17.38 17.38 0 0 0-9.41-3.85 17.77 17.77 0 0 0-16 8.12 18 18 0 0 0-2.78 9.84 23.29 23.29 0 0 0-11.12-7.91 22.69 22.69 0 0 0-12.47-.49 22 22 0 0 0-11 6.91 58.71 58.71 0 0 0 1.5-8.34c.81-7.65 1.56-14-1.71-19.67-3.14-5.47-8.43-7.76-10.26-8.55-9.31-4-22.17-2.51-24.92 3.61a7.84 7.84 0 0 0-.31 4.94 52.75 52.75 0 0 0-3.52 18.87 26.25 26.25 0 0 0-11.83-12.28c-6-3-11.51-2.62-15.11-2.34a36.74 36.74 0 0 0-20.1 8.12c-10.39 8.61-12.65 20.77-14.11 28.65a64.59 64.59 0 0 0-.86 17.1l-4 2a15.81 15.81 0 0 0-.26-6.29c-1.66-6.59-7.41-10.23-10.26-12-8.3-5.09-13.13-2.85-20.53-8.55a28.61 28.61 0 0 1-5.13-5.13l1.71-6.84c0-.29 4.08-11.65.86-20.53-2.55-7-8.88-10.41-10.26-11.12-7.33-3.73-14.21-1.83-18-.86-3.33.87-8.68 2.35-9.41 6-.4 2 .78 4 1.71 5.13-.5 2.08-1.15 5-1.71 8.55-1 6.36-1.62 10.4-.86 15.39a32.57 32.57 0 0 0 2.57 8.55l-12.83 3.42a96.91 96.91 0 0 0-17.1 38.48c-11.6-12-12.83-12.83-12.83-12.83-8.92-6.36-14.88-4.74-17.1-10.26-.55-1.36-.65-3.76-.86-8.55-.18-4.15.09-5.37 0-9.41a81.61 81.61 0 0 0-.86-10.26c-1.13-7.36-1.67-11-4.28-13.68-3.48-3.53-8.3-3.84-10-4a16.58 16.58 0 0 0-11.55 3.31c-3.24 2.63-4.34 5.92-5.67 9.83a35.1 35.1 0 0 0-1.82 11.87 12.36 12.36 0 0 0-3.74 1.71 13 13 0 0 0-4.81 6.31 23.42 23.42 0 0 0-9.19-8.34c-9.54-4.73-19-.79-20.74 0-9.25 4.13-15.33 14-15.82 25.23a45.38 45.38 0 0 0-11.22-20.1q-1-1-2-1.92a61.42 61.42 0 0 0 2.14-8.34c.88-4.81 2-11.08.43-18.17-1-4.63-2.54-11.2-8.55-15.39-5-3.48-12.48-4.85-18.81-1.71a18.73 18.73 0 0 0-8.55 9.41 22.13 22.13 0 0 0-1.64 8.2 31.07 31.07 0 0 0 1.43 11 7.66 7.66 0 0 0 1.09 8.55c-.94 2.66-1.92 4.89-2.59 4.78a.47.47 0 0 1-.24-.16 39.83 39.83 0 0 0-22-6.68c-5.78.13-11.69.22-16.25 4.28-3.81 3.4-4.19 7.34-7.53 9V433c205.67.37 411.33-.37 617 0V232a19 19 0 0 0-1.89 1z"/><path d="M1714.53 262.8c-1.88-.18-6.67 3.87-16.25 12a175.53 175.53 0 0 0-11.12 10.26 103 103 0 0 0-29.93-26.51c-8.69-5.06-20-11.69-35.92-12-5.75-.1-18.19-.15-30.79 7.7a51.41 51.41 0 0 0-14.52 13.69 39.94 39.94 0 0 0-12-11.12c-3.13-1.84-6-2.87-10.26-6a50.59 50.59 0 0 1-6.84-6 26.17 26.17 0 0 0 2.57-12.83 22.3 22.3 0 0 0-1.71-7.7c-3.08-7.22-9.35-10.57-12-12-3-1.58-6.39-3.42-11.12-3.42-7.94 0-13.44 5.13-17.1 8.55-2.86 2.67-5.18 4.9-6 8.55-.75 3.39.11 6.62.86 9.41.89 3.36 1.7 4.18 2.57 6.84a26.21 26.21 0 0 1 .86 12 18.56 18.56 0 0 0-13.68-12.83c-8-1.64-16.57 2.7-20.44 10.74-.29-.47-7.42-11.69-20.13-11.31-.75 0-12.2.55-17.79 10a20.18 20.18 0 0 0-2.74 10.16l3 10.37a14.42 14.42 0 0 1-3.42 8.55c-3 3.27-6.51 3.27-10.56 5.06l-.13 146.49 301.34.55c4.22-152.84-.17-168.58-6.75-169.2z"/><path d="M1492.91 258.61l12.3 52.7-74.5 25.82 3.34-70.76 58.86-7.76z"/><path d="M1088.64 230.76s-.77-10.4 0-15.15c0 0-2.82-7.57-2.44-28.76 0 0-2.05-5.26-1.8-6.42s.47-3.85 0-4.37-1.13-4.75-1-6.29.13-8.86 3.47-13.74c0 0 .9-9.24.39-10.4A4.3 4.3 0 0 0 1086 144s-3.39-.51-4-2.18-1.28-21.44-.26-27.86c0 0-2.44-4.62-3.34-6s-3.21-1.67-3.72-1.16-10.14 4.62-11.56 5.78-7.57 6-9 6.68-8.47 2.18-14-1.41a27.68 27.68 0 0 0-12.45-3.85s-.87-.74 0-.61a10.41 10.41 0 0 0 2.21-.06c.16 0-2.31-2.89-3.82-3.15s-7.51.1-8.79.1-1.54-.39-1.67-.9-.51-1.16 1.16-1.28 3.34 0 4.37-.13.94-.51 1-.94-1.28-1.63-4-1.71-6.42-.73-6.89-1.46 1.24-1.37 2.91-1.16a53.16 53.16 0 0 1 5.35.81c.21.17.09-.56-.13-.6a30.59 30.59 0 0 0-4.24-1.37c-1.67-.3-3.89-.68-4-1.33s.3-1.16 1.41-1.16a27.59 27.59 0 0 1 6.46 1.37c1 .51 1.2.21 1.33 0s.09-1.37-2.82-1.84-4.24-.81-4.62-1.46 1.24-1.28 3.08-.73 5.39 1.28 5.95 1.58a15.16 15.16 0 0 0 5.22.34c.68-.3 0-1.71-1.11-3a7.5 7.5 0 0 1-1.67-4.45 1 1 0 0 1 1.2-.86c.43.13 2.35 3 2.65 3.89a13.17 13.17 0 0 0 2.44 3.3 10.73 10.73 0 0 1 2.1 3.38c.34 1.11 4.45 1.75 6.68 2.65s3.21.86 4.71.13a93.1 93.1 0 0 1 8.73-3.68c3.12-1.07 13.44-15.49 19.34-19.34s22-14.64 23.3-15.66l.06-1.6a30.24 30.24 0 0 1-2.31-3.79c-.71-1.54-3.53-5-3.85-6.36s-.51-6.61.06-7.57-.71-1.93-.64-2.76a18.94 18.94 0 0 0 .06-4.3c-.26-1.16-.51-5.2.51-7.13s4.69-6.55 8.92-6.93 9.89.64 13.16 3.47 3.66 6.36 3.72 9.18-.45 6.16-.26 7.38-1 5-2.44 6a3.35 3.35 0 0 0-.51 2.18c.06 1.48-.39 3.85.13 4.75s1.93 1.93 3.27 5.33c0 0 24.84 6.68 28 11.88s3.27 8 4.3 9.12a27.3 27.3 0 0 0 6.68 5.46c2.76 1.41 8.22 6 9.12 7.45s.9 2.63 2.57 2.5a25.54 25.54 0 0 0 8.92-2.76c2.82-1.67 3-1.35 3-1.35l.39.39a29.42 29.42 0 0 0 4.56-2.76c.77-.83 4.94-4.3 6-4.56s9.37-1.41 10.34-1a28.43 28.43 0 0 1 3.4 2.25 2.65 2.65 0 0 1 .51 2.18 15.23 15.23 0 0 1-3.27.83c-.45.06.45 1.41 0 1.86s-1.54.32-1.8.58.19 1.54.19 1.54-.32 1-1.09.83c0 0 .39 1 .06 1.41a4.7 4.7 0 0 1-1.73.71 3.26 3.26 0 0 1 .19 1.41c-.13.51-.45.26-2 .77s-6.48.77-7.9.19-4.43 1-5 1.6.06 1.6.06 1.6a29.43 29.43 0 0 1-2.38 2.7 137.31 137.31 0 0 1-13.55 7.83c-4.56 2.12-7.7 2-8.41 1.67s-10-8.22-11.56-10.21-6.93-6.42-9.18-9.12-1-1.22-1-1.22-.77.45-.64 2.57.26 14.89.06 20.22c0 0 2.63 9.05 3.08 13.61s-2.05 5.33-2.05 5.33.32 4.62 1 6 4.37 7.51 4.62 8.86a61.51 61.51 0 0 1 0 6.91c0 1 5 9.24 5 19.86s3.42 38.86 3.08 43.82-17.63 7.53-17.63 7.53.51-6.16-.17-7-2.91-3.08-2.4-6.51.34-11.13-2.4-16.78-9.93-18.83-10.44-21.74c0 0-2.05 16.6-6.68 29.79 0 0-1.54 13.52-2.05 23.45s-1.54 11-1.54 11z"/><path stroke="#eee" stroke-linecap="round" stroke-miterlimit="10" stroke-width="1.25" fill="none" d="M1205.25 85.67L1191.92 93"/></svg>