<svg xmlns="http://www.w3.org/2000/svg" viewBox="0 0 2160 270.17"><defs><style>.a{fill:#fff;}.b{fill:#f55;}</style></defs><title>presentations</title><path class="a" d="M30.66,163.46c6.37,5.58,7.67,13.26,8,16,.24-1.12,2.27-9.73,10.38-13.57,7.9-3.73,16.77-.69,21.56,4C75.8,175,76.41,182.26,77,189a47.31,47.31,0,0,1,0,8l8,3.19a30.87,30.87,0,0,1,5.59-12.77c2-2.61,4.2-5.58,8.38-7.19,1.4-.54,6.18-2.37,11.18,0a13.72,13.72,0,0,1,6.79,7.59c.5-1.81,2.25-7.2,7.35-9.74a12.09,12.09,0,0,1,3-1,18.66,18.66,0,0,1,12.77,2.4c8.34,5.18,8.78,15.19,8.78,16l8,1.24c.12-.62,1.85-8.46,9.56-11.62,8.14-3.33,15.2,1.73,15.57,2a16.46,16.46,0,0,1,8.38-8.38c4.7-1.93,9-.78,12,0a24.8,24.8,0,0,1,10.38,5.59,18.38,18.38,0,0,1,28-13.6c4.19,2.62,6.13,6.58,7.19,8.78a25.48,25.48,0,0,1,2.4,12.77,50.65,50.65,0,0,1,21.56,41.52l16,.8a95.51,95.51,0,0,1,17.57-16.77q3.49-2.55,7.19-4.79c-.18-4.26-.3-10.3,0-17.57.5-12,1.6-14.5,2.4-16a22.39,22.39,0,0,1,16-11.18c9.56-1.51,19.57,3.56,23.15,11.18,2.13,4.52,1.56,9,.8,15.17-.89,7.09-2.53,6.11-4,15.17-.44,2.78-.79,5.89-3.19,8.78a13.1,13.1,0,0,1-4,3.19,12.38,12.38,0,0,0,4,4c5.27,3.21,11.11,1.13,12,.8a71.12,71.12,0,0,1,25.15-8c.09-2.74.22-6.58.4-11.18.41-10.65.53-11.77.8-13.17a32.49,32.49,0,0,1,7.59-15.57c2.26-2.51,8.85-9.82,18.76-9.58a21.76,21.76,0,0,1,12.77,4.79c6.35,5,8.26,12.26,9.58,17.57,3.15,12.7-.39,19.84,4.79,24,3,2.39,4.78.53,8,3.19,5.51,4.58,2.6,11.91,7.19,16,1.91,1.71,5.49,3.16,12.77,1.6a70.36,70.36,0,0,1,0-17.57c1-7.66,1.79-13.44,6.39-16.77a13.5,13.5,0,0,1,7.19-2.4,44.21,44.21,0,0,1,8.78-3.19c7.06-1.75,9.53-.49,11.18-2.4,3.05-3.53-3.84-9.66-2.4-19.16.08-.57,1.48-8.9,8.78-13.57,6.46-4.12,16.29-4.57,22.36.8,7.18,6.36,5,17.27,4,22.36a35.28,35.28,0,0,1-7.19,15.17,20.28,20.28,0,0,1,8.78,3.19c5.63,3.78,6.75,9.1,14.37,14.37a9.54,9.54,0,0,0,3.13,1.66A10,10,0,0,1,555,217.6s.36-18.23,9.29-23.23c0,0,.36-21.44,11.44-24.3,0,0,6.43-5,22.87-1.07,0,0,8.58,0,8.58,3.22s-.36,3.57,0,5,2.14,6.08.71,8.58c0,0,2.14,6.08,1.43,7.15,0,0,3.57,8.93-.71,13.58,0,0,1.07.71,0,1.79s1.07,3.57,1.07,6.43c0,0,6.08.71,7.86,2.5a32.31,32.31,0,0,1,5.72,10.36s4.65,10,5.36,17.87.36,1.43.36,1.43a12.58,12.58,0,0,1,5.36,6.43l.52.42,20.75,2.48c2.36-1.08,5.63-1.24,10.19.31,0,0-.36-42.88,5.72-36.81,0,0,3.57-8.58,9.29-9.29,0,0-.36-11.08,11.08-13.22,0,0-11.08-19.66,7.5-27.87s25,10.36,24.66,13.22,2.14,5,0,7.86a5.31,5.31,0,0,1,2.77,4.38,21.24,21.24,0,0,0-2.23,1.43c-.36.36-.45,2.41-.89,3l-.89,1.07s.8.63.8,1.16-.45,4.74-1.7,5.18-10.36,1.79-9.2,4,2.41,8.84,14.65,9.56l8,1.61s5.09,1.61,6.7,15.28S744,248.85,744,248.85s7.86,6.51,13,19.51l15.11,1.81c-3.63-7.25-6.43-20-2.41-41.95,0,0,1.88-6.7,16.35-8.31l5.63-7.77s-11.53-4.29-10.45-15.81,2.14-22.51,13.67-22.51,19,7.77,19.3,15a10.31,10.31,0,0,0,6.43,9.38s6.7-5.36,13.67-.8S843.94,203,845,208.12s6.43,8.31,6.43,8.31a54,54,0,0,1-3.75,6.7c-1.88,2.68.54,5.09,1.61,6.43s3.22,1.34,3,3.75-5.36,11.26-7,13.67.54,9.11,6.16,10.18c0,0-2.41-5.9-.27-8.84s14.21-14.74,23.32-14.47,17.42,6.7,17.42,6.7,2.41-1.34,3-6.43c0,0,2.68-5.63,5.9-7.77s9.11-1.61,9.11-1.61l-.54-8.31a23.26,23.26,0,0,1-3-11s-8.58-6.16,1.07-11c0,0-.27-5.09,1.07-6.16s5.63,0,5.63,0,2.68-14.74,16.62-15.28,15.55,17.42,15.55,17.42v5.9c0,.8,1.34,5.63,0,9.11s.8,7-5.9,6.43l-.54,4.56a13.1,13.1,0,0,1,6.7,3.48s-1.07-22,19.3-24.39a9.54,9.54,0,0,1,2.68-1.61c1.07-.27,9.38,2.14,11.79,2.68s5.9,1.34,5.36,3.75-1.34,1.88-1.07,3.48,2.14,2.68,2.68,15.28c0,0,1.07,11.26-4,18,0,0-3,15,6.7,17.42s6.7,2.68,6.7,2.68,5.63,4,6.7,4.82.27-13.94,6.7-22,4.56-15.28,7.5-17.15,21.17-10.72,26-11.26,2.95-5.9,3.22-7-7.24-10.72-8.31-15,.54-17.42,7-22,6.43-4.82,8.58-4.82,8-.27,10.18,2.14,6.7,7.77,7,9.65,0,11.79.27,13.94.27,8-1.88,9.92c0,0-.8,5.09-.8,6.43,0,3.27,3.73,4.76,5.63,5.9a137.08,137.08,0,0,1,13.83,9.6,35.28,35.28,0,0,1,.33-4.74s-2.82-7.57-2.44-28.76c0,0-2.05-5.26-1.8-6.42s.47-3.85,0-4.37-1.13-4.75-1-6.29.13-8.86,3.47-13.74c0,0,.9-9.24.39-10.4A4.3,4.3,0,0,0,1086,144s-3.39-.51-4-2.18-1.28-21.44-.26-27.86c0,0-2.44-4.62-3.34-6s-3.21-1.67-3.72-1.16-10.14,4.62-11.56,5.78-7.57,6-9,6.68-8.47,2.18-14-1.41a27.68,27.68,0,0,0-12.45-3.85s-.87-.74,0-.61a10.41,10.41,0,0,0,2.21-.06c.16,0-2.31-2.89-3.82-3.15s-7.51.1-8.79.1-1.54-.39-1.67-.9-.51-1.16,1.16-1.28,3.34,0,4.37-.13.94-.51,1-.94-1.28-1.63-4-1.71-6.42-.73-6.89-1.46,1.24-1.37,2.91-1.16a53.16,53.16,0,0,1,5.35.81c.21.17.09-.56-.13-.6a30.59,30.59,0,0,0-4.24-1.37c-1.67-.3-3.89-.68-4-1.33s.3-1.16,1.41-1.16a27.59,27.59,0,0,1,6.46,1.37c1,.51,1.2.21,1.33,0s.09-1.37-2.82-1.84-4.24-.81-4.62-1.46,1.24-1.28,3.08-.73,5.39,1.28,6,1.58a15.16,15.16,0,0,0,5.22.34c.68-.3,0-1.71-1.11-3a7.5,7.5,0,0,1-1.67-4.45,1,1,0,0,1,1.11-.87h.09c.43.13,2.35,3,2.65,3.89a13.17,13.17,0,0,0,2.44,3.3,10.73,10.73,0,0,1,2.1,3.38c.34,1.11,4.45,1.75,6.68,2.65s3.21.86,4.71.13a93.1,93.1,0,0,1,8.73-3.68c3.12-1.07,13.44-15.49,19.34-19.34s22-14.64,23.3-15.66l.06-1.6a30.24,30.24,0,0,1-2.31-3.79c-.71-1.54-3.53-5-3.85-6.36s-.51-6.61.06-7.57-.71-1.93-.64-2.76a18.94,18.94,0,0,0,.06-4.3c-.26-1.16-.51-5.2.51-7.13s4.69-6.55,8.92-6.93,9.89.64,13.16,3.47,3.66,6.36,3.72,9.18-.45,6.16-.26,7.38-1,5-2.44,6a3.35,3.35,0,0,0-.51,2.18c.06,1.48-.39,3.85.13,4.75s1.93,1.93,3.27,5.33c0,0,24.84,6.68,28,11.88s3.27,8,4.3,9.12a27.3,27.3,0,0,0,6.68,5.46c2.76,1.41,8.22,6,9.12,7.45s.9,2.63,2.57,2.5a25.54,25.54,0,0,0,8.92-2.76c2.82-1.67,3-1.35,3-1.35l.39.39a29.42,29.42,0,0,0,4.56-2.76c.77-.83,4.94-4.3,6-4.56s9.37-1.41,10.34-1a28.43,28.43,0,0,1,3.4,2.25,2.65,2.65,0,0,1,.51,2.18,15.23,15.23,0,0,1-3.27.83c-.45.06.45,1.41,0,1.86s-1.54.32-1.8.58.19,1.54.19,1.54-.32,1-1.09.83c0,0,.39,1,.06,1.41a4.7,4.7,0,0,1-1.73.71,3.26,3.26,0,0,1,.19,1.41c-.13.51-.45.26-2,.77s-6.48.77-7.9.19-4.43,1-5,1.6.06,1.6.06,1.6a29.43,29.43,0,0,1-2.38,2.7,137.31,137.31,0,0,1-13.55,7.83c-4.56,2.12-7.7,2-8.41,1.67s-10-8.22-11.56-10.21-6.93-6.42-9.18-9.12l-1-1.21s-.76.52-.63,2.56.26,14.89.06,20.22c0,0,2.63,9,3.08,13.61s-2.05,5.33-2.05,5.33.32,4.62,1,6,4.37,7.51,4.62,8.86a61.49,61.49,0,0,1,0,6.91c0,1,5,9.24,5,19.86,0,8.16,2,26.73,2.8,37.14a35.66,35.66,0,0,1,10.92-6.55l.54-2.39s-.8-1.88-1.61-4.29a17.17,17.17,0,0,1-.54-5.9c0-.8-4.82-7.77-2.95-13.94s3.75-12.87,5.9-14.21,3.75-5.36,9.38-4.29c0,0,5.63-3.48,11.53,1.61s5.36,7.5,5.36,7.5,5.36,8,4,16.62c0,0-.54,5.9-.54,7.77s-1.34,1.88-1.34,1.88-1.61,3-.54,4-1.34.8-1.34.8l-.27,5.63s19.83,7.24,28.95,16.62,10.45,36.45,10.45,36.45,10.45-1.61,10.72-3.75l.27-5.36,3.22-3-1.07-5.36-1.07-6.7s-4-2.95-4.29-5.36,1.61-6.7,2.68-6.16-.54-7.24,1.34-10.18,7-11.79,17.15-11.79,18,10.45,18,10.45,13.4-2.14,16.08-3.48,5.63-7,5.63-11.26c0,0-5.09-3.22-5.63-9.11a33.47,33.47,0,0,1,1.07-11.26v-6.43s5.63-10.18,7.24-11.53-.8-5.09,7.77-5.63,18.49,9.38,18.49,9.38,6.16,10.45,1.07,20.37-7.5,11.53-7.5,14.21,2.14,10.72,6.7,13.4,16.89,8.58,18.23,8.58,7,1.07,8.31,8a35.2,35.2,0,0,1,.76,5.06c1.19-.17,7.23-1,9.16-.24,2.14.8,13.67,9.65,16.08,16.35a27.16,27.16,0,0,1,1.61,12.06l18.76-2.41,7.24-13.13a28.33,28.33,0,0,1-7.24-23.32v-8.31s8-9.11,8.84-9.11.27-3.75,1.34-4.56,20.91-3.22,28.41,11.53c0,0,2.68.54,1.88-2.14s-7-6.43-7.24-9.11-6.16-6.43-1.07-13.67c0,0-.8-4.56,0-5.63s2.41-2.41,2.95-4.29,2.41-13.67,21.17-11S1473.21,192,1473.21,192s-2.41,7.77-4.82,9.65-9.38,8.31-9.65,10.18-.54,3.22-.54,3.22,5.63-.8,7.5,7c0,0,16.08,7.5,17.42,9.11.53.64,2.28,4.92,4.18,10a17,17,0,0,1,4.85.27,18.56,18.56,0,0,1,13.68,12.83,26.21,26.21,0,0,0-.86-12c-.87-2.66-1.68-3.48-2.57-6.84-.75-2.79-1.61-6-.86-9.41.82-3.65,3.14-5.88,6-8.55,3.66-3.42,9.16-8.55,17.1-8.55,4.73,0,8.12,1.84,11.12,3.42l.72.39a22,22,0,0,1,4.75-3.49c12.33-7,14.74,2.14,14.74,2.14a19.74,19.74,0,0,0,1.34-6.7c0-3.48.8-13.13.8-15.28s2.41-14.74,18-16.62,25.73,14.74,25.73,14.74,3.22,8.31-.8,31.63c0,0-3.22,5.36-4,6.43,0,0,8.49,5.09,13,5.11V215.41c3.34-1.66,3.72-5.6,7.53-9,4.56-4.06,10.47-4.15,16.25-4.28a39.83,39.83,0,0,1,22,6.68.47.47,0,0,0,.24.16c.67.11,1.65-2.12,2.59-4.78a7.66,7.66,0,0,1-1.09-8.55,31.07,31.07,0,0,1-1.43-11,22.13,22.13,0,0,1,1.64-8.2,18.73,18.73,0,0,1,8.55-9.41c6.33-3.14,13.81-1.77,18.81,1.71,6,4.19,7.55,10.76,8.55,15.39,1.57,7.09.45,13.36-.43,18.17a61.41,61.41,0,0,1-2.14,8.34q1,.92,2,1.92a45.38,45.38,0,0,1,11.22,20.1c.49-11.23,6.57-21.1,15.82-25.23,1.74-.79,11.2-4.73,20.74,0a23.42,23.42,0,0,1,9.19,8.34,13,13,0,0,1,4.81-6.31,12.36,12.36,0,0,1,3.74-1.71,35.1,35.1,0,0,1,1.82-11.87c1.33-3.91,2.43-7.2,5.67-9.83a16.58,16.58,0,0,1,11.55-3.31c1.7.16,6.52.47,10,4,2.61,2.68,3.15,6.32,4.28,13.68a81.61,81.61,0,0,1,.86,10.26c.09,4-.18,5.26,0,9.41.21,4.79.31,7.19.86,8.55,2.22,5.52,8.18,3.9,17.1,10.26,0,0,1.23.83,12.83,12.83a96.91,96.91,0,0,1,17.1-38.48l12.83-3.42a32.57,32.57,0,0,1-2.57-8.55c-.76-5-.14-9,.86-15.39.56-3.55,1.21-6.47,1.71-8.55-.93-1.13-2.11-3.13-1.71-5.13.73-3.65,6.08-5.13,9.41-6,3.79-1,10.67-2.87,18,.86,1.38.71,7.71,4.12,10.26,11.12,3.22,8.88-.86,20.24-.86,20.53l-1.71,6.84a28.61,28.61,0,0,0,5.13,5.13c7.4,5.7,12.23,3.46,20.53,8.55,2.85,1.77,8.6,5.41,10.26,12a15.81,15.81,0,0,1,.26,6.29l4-2a64.59,64.59,0,0,1,.86-17.1c1.46-7.88,3.72-20,14.11-28.65a36.74,36.74,0,0,1,20.1-8.12c3.6-.28,9.11-.66,15.11,2.34a26.25,26.25,0,0,1,11.83,12.28,52.75,52.75,0,0,1,3.52-18.87,7.84,7.84,0,0,1,.31-4.94c2.75-6.12,15.61-7.61,24.92-3.61,1.83.79,7.12,3.08,10.26,8.55,3.27,5.67,2.52,12,1.71,19.67a58.72,58.72,0,0,1-1.5,8.34,22,22,0,0,1,11-6.91,22.69,22.69,0,0,1,12.47.49,23.29,23.29,0,0,1,11.12,7.91,18,18,0,0,1,2.78-9.84,17.77,17.77,0,0,1,16-8.12,17.38,17.38,0,0,1,9.41,3.85,19.1,19.1,0,0,1,4.49-10.26c6.79-7.66,17.82-6.27,19.67-6a23.57,23.57,0,0,1,4.92,1.28c-.15-1.06-1.22-9.45,4.92-15.82a18.13,18.13,0,0,1,13-5.56,17.13,17.13,0,0,1,10.48,3.85,17.88,17.88,0,0,1,6,11.12,20.81,20.81,0,0,1-.86,10.26A18.6,18.6,0,0,1,2160,179V0H0V158.58A62.35,62.35,0,0,1,10,158C16.69,158,24.29,157.88,30.66,163.46Z"/><path class="b" d="M1107.83,223q-.06.72-.12,1.45A2.79,2.79,0,0,0,1107.83,223Z"/><path class="a" d="M1116.45,210.26c2.3-1.36,5.18-3.07,9-3a12.72,12.72,0,0,1,3,.43,26.11,26.11,0,0,0-2.11-7c-2.74-5.65-9.93-18.83-10.44-21.74,0,0-2.05,16.6-6.68,29.79,0,0-.48,4.21-1,9.66C1109.83,214.19,1114.43,211.46,1116.45,210.26Z"/></svg>