<svg xmlns="http://www.w3.org/2000/svg" viewBox="0 0 2160 270.17"><defs><style>.a{fill:#fff;}.b{fill:#f55;}</style></defs><title>Artboard 1</title><path class="a" d="M29.69,163.49c6.38,5.59,7.68,13.27,8,16,.24-1.12,2.27-9.74,10.39-13.58,7.91-3.73,16.79-.69,21.58,4,5.2,5.11,5.82,12.38,6.41,19.13a47.35,47.35,0,0,1,0,8l8,3.19a30.9,30.9,0,0,1,5.6-12.78c2-2.61,4.2-5.59,8.39-7.2,1.4-.54,6.19-2.37,11.19,0a13.73,13.73,0,0,1,6.8,7.6c.5-1.81,2.25-7.21,7.36-9.75a12.1,12.1,0,0,1,3-1,18.68,18.68,0,0,1,12.78,2.4c8.35,5.18,8.79,15.2,8.79,16l8,1.24c.12-.62,1.85-8.47,9.57-11.63,8.15-3.33,15.21,1.73,15.58,2a16.48,16.48,0,0,1,8.39-8.39c4.7-1.93,9-.78,12,0a24.82,24.82,0,0,1,10.39,5.6,18.4,18.4,0,0,1,28-13.61c4.19,2.62,6.14,6.59,7.2,8.79a25.5,25.5,0,0,1,2.4,12.78,50.7,50.7,0,0,1,21.58,41.56l16,.8a95.6,95.6,0,0,1,17.59-16.79q3.49-2.55,7.2-4.79c-.18-4.26-.3-10.31,0-17.59.5-12,1.6-14.51,2.4-16a22.41,22.41,0,0,1,16-11.19c9.57-1.51,19.59,3.56,23.17,11.19,2.13,4.52,1.56,9,.8,15.18-.89,7.1-2.53,6.12-4,15.18-.44,2.78-.79,5.9-3.19,8.79a13.11,13.11,0,0,1-4,3.19,12.39,12.39,0,0,0,4,4c5.27,3.21,11.12,1.13,12,.8a71.19,71.19,0,0,1,25.17-8c.09-2.74.22-6.59.4-11.19.41-10.66.53-11.78.8-13.18a32.52,32.52,0,0,1,7.6-15.58c2.26-2.51,8.86-9.83,18.78-9.59a21.78,21.78,0,0,1,12.78,4.79c6.36,5,8.27,12.27,9.59,17.59,3.15,12.71-.39,19.86,4.79,24,3,2.39,4.78.53,8,3.19,5.52,4.58,2.6,11.92,7.2,16,1.91,1.71,5.5,3.16,12.78,1.6a70.42,70.42,0,0,1,0-17.59c1-7.67,1.79-13.45,6.4-16.79a13.51,13.51,0,0,1,7.2-2.4,44.25,44.25,0,0,1,8.79-3.19c7.07-1.75,9.54-.49,11.19-2.4,3.05-3.53-3.84-9.67-2.4-19.18.08-.57,1.48-8.91,8.79-13.58,6.47-4.12,16.31-4.57,22.38.8,7.19,6.37,5,17.29,4,22.38a35.31,35.31,0,0,1-7.2,15.18,20.3,20.3,0,0,1,8.79,3.19c5.64,3.78,6.76,9.11,14.38,14.38a9.55,9.55,0,0,0,3.13,1.66,10,10,0,0,1,2-1.1s.36-18.25,9.3-23.25c0,0,.36-21.46,11.45-24.32,0,0,6.44-5,22.89-1.07,0,0,8.59,0,8.59,3.22s-.36,3.57,0,5,2.14,6.09.71,8.59c0,0,2.14,6.09,1.43,7.16,0,0,3.57,8.94-.71,13.59,0,0,1.07.71,0,1.79s1.07,3.57,1.07,6.44c0,0,6.09.71,7.87,2.5a32.34,32.34,0,0,1,5.73,10.37s4.65,10,5.36,17.89.36,1.43.36,1.43a12.59,12.59,0,0,1,5.36,6.44l.52.42,20.77,2.48c2.36-1.08,5.64-1.24,10.2.31,0,0-.36-42.92,5.73-36.84,0,0,3.57-8.59,9.3-9.3,0,0-.36-11.09,11.09-13.23,0,0-11.09-19.68,7.51-27.9s25,10.37,24.68,13.23,2.14,5,0,7.87a5.32,5.32,0,0,1,2.77,4.38,21.26,21.26,0,0,0-2.23,1.43c-.36.36-.45,2.41-.89,3l-.89,1.07s.8.63.8,1.16-.45,4.74-1.7,5.18-10.37,1.79-9.21,4,2.41,8.85,14.66,9.57l8,1.61s5.09,1.61,6.71,15.29S743.69,249,743.69,249s7.87,6.52,13,19.53l15.12,1.81c-3.63-7.26-6.44-20-2.41-42,0,0,1.88-6.71,16.37-8.32l5.64-7.78s-11.54-4.29-10.46-15.82,2.14-22.53,13.68-22.53,19,7.78,19.32,15a10.32,10.32,0,0,0,6.44,9.39s6.71-5.36,13.68-.8,9.65,5.61,10.71,10.73,6.44,8.32,6.44,8.32a54,54,0,0,1-3.75,6.71c-1.88,2.68.54,5.09,1.61,6.44s3.22,1.34,3,3.75-5.36,11.27-7,13.68.54,9.12,6.17,10.19c0,0-2.41-5.91-.27-8.85s14.22-14.75,23.34-14.48,17.44,6.71,17.44,6.71,2.41-1.34,3-6.44c0,0,2.68-5.64,5.91-7.78s9.12-1.61,9.12-1.61l-.54-8.32a23.28,23.28,0,0,1-3-11s-8.59-6.17,1.07-11c0,0-.27-5.09,1.07-6.17s5.64,0,5.64,0,2.68-14.75,16.64-15.29,15.56,17.44,15.56,17.44v5.91c0,.8,1.34,5.64,0,9.12s.8,7-5.91,6.44l-.54,4.56a13.11,13.11,0,0,1,6.71,3.48s-1.07-22,19.32-24.41a9.55,9.55,0,0,1,2.68-1.61c1.07-.27,9.39,2.14,11.8,2.68s5.91,1.34,5.36,3.75-1.34,1.88-1.07,3.48,2.14,2.68,2.68,15.29c0,0,1.07,11.27-4,18,0,0-3,15,6.71,17.44s6.71,2.68,6.71,2.68,5.64,4,6.71,4.82.27-14,6.71-22,4.56-15.29,7.51-17.17,21.19-10.73,26-11.27,3-5.91,3.22-7-7.25-10.73-8.32-15,.54-17.44,7-22,6.44-4.82,8.59-4.82,8-.27,10.19,2.14,6.71,7.78,7,9.66,0,11.8.27,14,.27,8-1.88,9.93c0,0-.8,5.09-.8,6.44,0,3.27,3.73,4.76,5.64,5.91a137.2,137.2,0,0,1,13.84,9.61,35.3,35.3,0,0,1,.33-4.74s-2.82-7.58-2.44-28.79c0,0-2.05-5.26-1.8-6.43s.47-3.85,0-4.37-1.13-4.75-1-6.3.13-8.87,3.47-13.75c0,0,.9-9.25.39-10.41A4.3,4.3,0,0,0,1086,144s-3.39-.51-4-2.18-1.28-21.46-.26-27.89c0,0-2.44-4.62-3.34-6s-3.21-1.67-3.72-1.16-10.15,4.62-11.57,5.79-7.58,6-9,6.69-8.48,2.18-14-1.41a27.71,27.71,0,0,0-12.46-3.85s-.87-.74,0-.61a10.42,10.42,0,0,0,2.21-.06c.16,0-2.31-2.89-3.82-3.15s-7.52.1-8.8.1-1.54-.39-1.67-.9-.51-1.16,1.16-1.28,3.34,0,4.37-.13.94-.51,1-.94-1.28-1.63-4-1.71-6.43-.73-6.9-1.46,1.24-1.37,2.91-1.16a53.21,53.21,0,0,1,5.35.81c.21.17.09-.56-.13-.6a30.62,30.62,0,0,0-4.24-1.37c-1.67-.3-3.89-.68-4-1.33s.3-1.16,1.41-1.16a27.61,27.61,0,0,1,6.47,1.37c1,.51,1.2.21,1.33,0s.09-1.37-2.82-1.84-4.24-.81-4.62-1.46,1.24-1.28,3.08-.73,5.4,1.28,6,1.58a15.17,15.17,0,0,0,5.22.34c.68-.3,0-1.71-1.11-3a7.51,7.51,0,0,1-1.67-4.45,1,1,0,0,1,1.11-.87h.09c.43.13,2.35,3,2.65,3.89a13.18,13.18,0,0,0,2.44,3.3,10.74,10.74,0,0,1,2.1,3.38c.34,1.11,4.45,1.75,6.69,2.65s3.21.86,4.71.13a93.19,93.19,0,0,1,8.74-3.68c3.12-1.07,13.45-15.5,19.36-19.36s22-14.65,23.32-15.67l.06-1.6a30.27,30.27,0,0,1-2.31-3.79c-.71-1.54-3.53-5-3.85-6.37s-.51-6.62.06-7.58-.71-1.93-.64-2.76a19,19,0,0,0,.06-4.3c-.26-1.16-.51-5.2.51-7.14s4.69-6.56,8.93-6.94,9.9.64,13.17,3.47,3.66,6.37,3.72,9.19-.45,6.17-.26,7.39-1,5-2.44,6a3.35,3.35,0,0,0-.51,2.18c.06,1.48-.39,3.85.13,4.75s1.93,1.93,3.27,5.33c0,0,24.86,6.69,28,11.89s3.27,8,4.3,9.13a27.33,27.33,0,0,0,6.69,5.47c2.76,1.41,8.23,6,9.13,7.46s.9,2.63,2.57,2.5a25.56,25.56,0,0,0,8.93-2.76c2.82-1.67,3-1.35,3-1.35l.39.39a29.45,29.45,0,0,0,4.56-2.76c.77-.83,4.94-4.3,6-4.56s9.38-1.41,10.35-1a28.46,28.46,0,0,1,3.4,2.25,2.65,2.65,0,0,1,.51,2.18,15.24,15.24,0,0,1-3.27.83c-.45.06.45,1.41,0,1.86s-1.54.32-1.8.58.19,1.54.19,1.54-.32,1-1.09.83c0,0,.39,1,.06,1.41a4.7,4.7,0,0,1-1.73.71,3.26,3.26,0,0,1,.19,1.41c-.13.51-.45.26-2,.77s-6.49.77-7.91.19-4.43,1-5,1.6.06,1.6.06,1.6a29.47,29.47,0,0,1-2.38,2.7,137.44,137.44,0,0,1-13.56,7.84c-4.56,2.12-7.71,2-8.42,1.67s-10-8.23-11.57-10.22-6.94-6.43-9.19-9.13l-1-1.21s-.76.52-.63,2.56.26,14.9.06,20.24c0,0,2.63,9,3.08,13.62s-2.05,5.33-2.05,5.33.32,4.62,1,6,4.37,7.52,4.62,8.87a61.55,61.55,0,0,1,0,6.92c0,1,5,9.25,5,19.88,0,8.17,2,26.75,2.8,37.17a35.69,35.69,0,0,1,10.93-6.56l.54-2.39s-.8-1.88-1.61-4.29a17.19,17.19,0,0,1-.54-5.91c0-.8-4.82-7.78-3-14s3.75-12.88,5.91-14.22,3.75-5.36,9.39-4.29c0,0,5.64-3.48,11.54,1.61s5.36,7.51,5.36,7.51,5.36,8,4,16.64c0,0-.54,5.91-.54,7.78s-1.34,1.88-1.34,1.88-1.61,3-.54,4-1.34.8-1.34.8l-.27,5.64s19.85,7.25,29,16.64,10.46,36.48,10.46,36.48,10.46-1.61,10.73-3.75l.27-5.36,3.22-3-1.07-5.36-1.07-6.71s-4-3-4.29-5.36,1.61-6.71,2.68-6.17-.54-7.25,1.34-10.19,7-11.8,17.17-11.8,18,10.46,18,10.46,13.41-2.14,16.09-3.48,5.64-7,5.64-11.27c0,0-5.09-3.22-5.64-9.12a33.5,33.5,0,0,1,1.07-11.27v-6.44s5.64-10.19,7.25-11.54-.8-5.09,7.78-5.64,18.51,9.39,18.51,9.39,6.17,10.46,1.07,20.39-7.51,11.54-7.51,14.22,2.14,10.73,6.71,13.41,16.91,8.59,18.25,8.59,7,1.07,8.32,8a35.24,35.24,0,0,1,.76,5.06c1.19-.17,7.24-1,9.17-.24,2.14.8,13.68,9.66,16.09,16.37a27.19,27.19,0,0,1,1.61,12.07l18.78-2.41,7.25-13.14a28.36,28.36,0,0,1-7.25-23.34v-8.32s8-9.12,8.85-9.12.27-3.75,1.34-4.56,20.93-3.22,28.44,11.54c0,0,2.68.54,1.88-2.14s-7-6.44-7.25-9.12-6.17-6.44-1.07-13.68c0,0-.8-4.56,0-5.64s2.41-2.41,3-4.29,2.41-13.68,21.19-11,19.53,21.81,19.53,21.81-2.41,7.78-4.82,9.66-9.39,8.32-9.66,10.19-.54,3.22-.54,3.22,5.64-.8,7.51,7c0,0,16.09,7.51,17.44,9.12.53.64,2.28,4.92,4.18,10a17,17,0,0,1,4.85.27,18.58,18.58,0,0,1,13.69,12.84,26.23,26.23,0,0,0-.86-12c-.87-2.66-1.68-3.48-2.57-6.85-.75-2.79-1.61-6-.86-9.42.82-3.65,3.14-5.89,6-8.56,3.66-3.42,9.17-8.56,17.12-8.56,4.73,0,8.13,1.84,11.13,3.42l.72.39a22,22,0,0,1,4.75-3.49c12.34-7,14.75,2.14,14.75,2.14a19.76,19.76,0,0,0,1.34-6.71c0-3.48.8-13.14.8-15.29s2.41-14.75,18-16.64,25.75,14.75,25.75,14.75,3.22,8.32-.8,31.66c0,0-3.22,5.36-4,6.44,0,0,8.5,5.09,13,5.11V215.48c3.34-1.66,3.72-5.61,7.54-9,4.56-4.06,10.48-4.15,16.27-4.28a39.87,39.87,0,0,1,22,6.69.47.47,0,0,0,.24.16c.67.11,1.65-2.12,2.59-4.78a7.67,7.67,0,0,1-1.09-8.56,31.1,31.1,0,0,1-1.43-11,22.15,22.15,0,0,1,1.64-8.21,18.75,18.75,0,0,1,8.56-9.42c6.34-3.14,13.82-1.77,18.83,1.71,6,4.19,7.56,10.77,8.56,15.4,1.57,7.1.45,13.37-.43,18.19a61.47,61.47,0,0,1-2.14,8.35q1,.92,2,1.92a45.42,45.42,0,0,1,11.23,20.12c.49-11.24,6.58-21.12,15.83-25.25,1.74-.79,11.21-4.73,20.76,0a23.44,23.44,0,0,1,9.2,8.35,13,13,0,0,1,4.81-6.32,12.37,12.37,0,0,1,3.74-1.71,35.13,35.13,0,0,1,1.82-11.88c1.33-3.91,2.43-7.21,5.68-9.84a16.6,16.6,0,0,1,11.56-3.31c1.7.16,6.53.47,10,4,2.61,2.68,3.15,6.33,4.28,13.69a81.69,81.69,0,0,1,.86,10.27c.09,4-.18,5.26,0,9.42.21,4.79.31,7.2.86,8.56,2.22,5.53,8.19,3.9,17.12,10.27,0,0,1.23.83,12.84,12.84a97,97,0,0,1,17.12-38.52l12.84-3.42a32.6,32.6,0,0,1-2.57-8.56c-.76-5-.14-9,.86-15.4.56-3.55,1.21-6.48,1.71-8.56-.93-1.13-2.11-3.13-1.71-5.13.73-3.65,6.09-5.13,9.42-6,3.79-1,10.68-2.87,18,.86,1.38.71,7.72,4.12,10.27,11.13,3.22,8.89-.86,20.26-.86,20.55l-1.71,6.85a28.63,28.63,0,0,0,5.13,5.13c7.41,5.71,12.24,3.46,20.55,8.56,2.85,1.77,8.61,5.42,10.27,12a15.83,15.83,0,0,1,.26,6.3l4-2a64.65,64.65,0,0,1,.86-17.12c1.46-7.89,3.72-20,14.12-28.68A36.77,36.77,0,0,1,1963,181.7c3.6-.28,9.12-.66,15.12,2.34A26.27,26.27,0,0,1,1990,196.34a52.8,52.8,0,0,1,3.52-18.89,7.85,7.85,0,0,1,.31-4.94c2.75-6.13,15.62-7.62,24.94-3.61,1.83.79,7.13,3.08,10.27,8.56,3.27,5.68,2.52,12,1.71,19.69a58.77,58.77,0,0,1-1.5,8.35,22,22,0,0,1,11-6.92,22.71,22.71,0,0,1,12.48.49,23.31,23.31,0,0,1,11.13,7.92,18,18,0,0,1,2.78-9.85,17.79,17.79,0,0,1,16-8.13,17.4,17.4,0,0,1,9.42,3.85,19.12,19.12,0,0,1,4.49-10.27c6.8-7.67,17.84-6.28,19.69-6a23.59,23.59,0,0,1,4.92,1.28c-.15-1.06-1.22-9.46,4.92-15.83a18.15,18.15,0,0,1,13-5.57,17.15,17.15,0,0,1,10.49,3.85,17.9,17.9,0,0,1,6,11.13,20.83,20.83,0,0,1-.86,10.27A18.62,18.62,0,0,1,2161,179V-.13H-1V158.6A62.41,62.41,0,0,1,9,158C15.71,158,23.31,157.9,29.69,163.49Z"/><path class="b" d="M1107.83,223l-.12,1.45A2.79,2.79,0,0,0,1107.83,223Z"/><path class="a" d="M1116.45,210.26c2.3-1.36,5.18-3.07,9-3a12.72,12.72,0,0,1,3,.43,26.11,26.11,0,0,0-2.11-7c-2.74-5.65-9.93-18.83-10.44-21.74,0,0-2.05,16.6-6.68,29.79,0,0-.48,4.21-1,9.66C1109.83,214.19,1114.43,211.46,1116.45,210.26Z"/></svg>