<svg xmlns="http://www.w3.org/2000/svg" viewBox="0 0 163.18 43.01"><path fill="red" d="M95.11 12.02L104.51 8.53 95.11 4.86 95.11 0 111.2 6.48 111.2 10.51 95.11 17.03 95.11 12.02z"/><path d="M6.19,43C2.81,43,0,41.29,0,37.47v-.22c0-4.64,4-6.16,8.89-6.16h2.34v-.9c0-1.87-.83-3-2.77-3a2.58,2.58,0,0,0-2.84,2.45h-5c.36-4.18,3.67-6.23,8.13-6.23s7.78,1.94,7.78,6.62v12.6H11.34V40.46A6,6,0,0,1,6.19,43Zm5-6.66v-1.8H9.14c-2.59,0-3.92.72-3.92,2.41v.18c0,1.3.79,2.2,2.56,2.2S11.23,38.34,11.23,36.36ZM28.4,43c-5.22,0-9-3.24-9-9.61v-.25c0-6.37,4-9.75,9-9.75,4.28,0,7.81,2.16,8.24,7.09h-5c-.32-1.83-1.26-3-3.1-3-2.23,0-3.78,1.76-3.78,5.47v.58c0,3.82,1.37,5.54,3.82,5.54,1.8,0,3.13-1.33,3.42-3.38h4.79C36.43,40,33.51,43,28.4,43ZM48,43c-5.22,0-9-3.24-9-9.61v-.25c0-6.37,4-9.75,9-9.75,4.28,0,7.81,2.16,8.24,7.09h-5c-.32-1.83-1.26-3-3.1-3-2.23,0-3.78,1.76-3.78,5.47v.58c0,3.82,1.37,5.54,3.82,5.54,1.8,0,3.13-1.33,3.42-3.38h4.79C56,40,53.1,43,48,43Zm19.73,0c-5.44,0-9.14-3.24-9.14-9.5v-.36c0-6.3,3.92-9.75,9-9.75,4.68,0,8.6,2.63,8.6,8.85v2.27H63.9c.22,3.38,1.66,4.68,3.92,4.68a3.25,3.25,0,0,0,3.46-2.45h4.86C75.56,40.32,72.65,43,67.71,43ZM64,31H71c-.11-2.77-1.37-4-3.46-4C65.91,27.07,64.4,28,64,31Zm15.41-7.23h5.25V26.6a6.13,6.13,0,0,1,5.69-3.2C93.74,23.4,96,25.45,96,30v12.6H90.75V30.81c0-2.2-.9-3.17-2.81-3.17a3.15,3.15,0,0,0-3.31,3.49V42.62H79.38Zm26.46-5.69v5.69h3.6v3.92h-3.6v8.93c0,1.4.65,2.05,1.87,2.05a4.53,4.53,0,0,0,1.83-.32v4.1a10.74,10.74,0,0,1-3,.4c-4.1,0-6-1.87-6-5.69V27.72h-2.2V23.79h2.2V20.27Zm23.4,24.51H124V39.85A5.74,5.74,0,0,1,118.51,43c-3.38,0-5.87-2.05-5.87-6.48V23.79h5.29v12c0,2.16.86,3.17,2.74,3.17A3.17,3.17,0,0,0,124,35.42V23.79h5.26Zm3.82-18.83h5.25v3.46A5.62,5.62,0,0,1,144,23.54v5.18c-3.56,0-5.65,1.08-5.65,4.21v9.68h-5.25ZM154.76,43c-5.44,0-9.14-3.24-9.14-9.5v-.36c0-6.3,3.92-9.75,9-9.75,4.68,0,8.6,2.63,8.6,8.85v2.27H150.95c.22,3.38,1.66,4.68,3.92,4.68a3.25,3.25,0,0,0,3.46-2.45h4.86C162.61,40.32,159.69,43,154.76,43ZM151,31h7.06c-.11-2.77-1.37-4-3.46-4C153,27.07,151.45,28,151,31Z"/></svg>