<?xml version="1.0" encoding="utf-8"?>
<!-- Generator: Adobe Illustrator 17.1.0, SVG Export Plug-In . SVG Version: 6.00 Build 0)  -->
<!DOCTYPE svg PUBLIC "-//W3C//DTD SVG 1.1//EN" "http://www.w3.org/Graphics/SVG/1.1/DTD/svg11.dtd">
<svg version="1.1" id="Layer_1" xmlns="http://www.w3.org/2000/svg" xmlns:xlink="http://www.w3.org/1999/xlink" x="0px" y="0px"
	 width="126px" height="44px" viewBox="0 0 126 44" enable-background="new 0 0 126 44" xml:space="preserve">
<g>
	<g>
		<path fill="#8DC63F" d="M2.8,44c1.5,0,2.8-1.3,2.8-2.8c0-1.5-1.3-2.8-2.8-2.8S0,39.6,0,41.2C0,42.7,1.3,44,2.8,44"/>
		<path fill="#8DC63F" d="M14.8,44c1.5,0,2.8-1.3,2.8-2.8c0-1.5-1.3-2.8-2.8-2.8c-1.5,0-2.8,1.3-2.8,2.8C12,42.7,13.2,44,14.8,44"/>
		<path fill="#8DC63F" d="M26.8,44c1.5,0,2.8-1.3,2.8-2.8c0-1.5-1.3-2.8-2.8-2.8c-1.5,0-2.8,1.3-2.8,2.8C24,42.7,25.2,44,26.8,44"/>
		<path fill="#8D8A8A" d="M99.4,4.9c-2,0-4.9,1.1-6.2,3.6h-0.1v-3h-3.8v20.4h3.9V14.8c0-4,1.1-4.9,1.6-5.4c1.6-1.6,3.7-1.5,3.7-1.5
			c3.2,0,4.7,1.8,4.7,5.2v12.8h3.9V11.8C107.1,5.3,100.8,4.9,99.4,4.9"/>
		<path fill="#8D8A8A" d="M30,4.9c-2,0-4.9,1.1-6.2,3.6h-0.1v-3H20v20.4h3.9V14.8c0-4,1.1-4.9,1.6-5.4c1.6-1.6,3.7-1.5,3.7-1.5
			c3.2,0,4.7,1.8,4.7,5.2v12.8h3.9V11.8C37.7,5.3,31.4,4.9,30,4.9"/>
		<path fill="#8D8A8A" d="M78.7,4.9c-2,0-4.9,1.1-6.2,3.6h-0.1v-3h-3.8v20.4h3.9V14.8c0-4,1.1-4.9,1.6-5.4c1.6-1.6,3.7-1.5,3.7-1.5
			c3.2,0,4.7,1.8,4.7,5.2v12.8h3.9V11.8C86.4,5.3,80.1,4.9,78.7,4.9"/>
		<path fill="#8D8A8A" d="M13.4,22.9L13.4,22.9c0.1,0.9,0.2,1.8,0.3,2.8c0,0.5,0.7,0.3,1.1,0.3h2.6c-0.1-1.7-0.2-3.4-0.2-4.3v-9.7
			c0-5.7-4.1-6.9-8.3-6.9c-4,0-7.5,1.6-7.7,6h4.1c0-2.1,1.9-3.2,3.8-3.2c3.9,0,4.3,1.9,4.3,5.1h0v3.5c0,3.7-0.9,7.4-5.3,7.4
			c-2.3,0-4-1.3-4-3.8c0-3,3.1-3.8,5.5-3.9h0.7v-2.7H9.9C5.1,13.3,0,15,0,20.7c0,4,3.6,5.8,7.1,5.8C9.9,26.5,12.2,25.4,13.4,22.9"/>
		<path fill="#8D8A8A" d="M125.8,11.9c0-5.7-4.1-6.9-8.3-6.9c-4,0-7.5,1.6-7.7,6h4.1c0-2.1,1.9-3.2,3.8-3.2c3.9,0,4.3,1.8,4.3,5h0
			v3.7c0,3.6-0.9,7.3-5.3,7.3c-2.3,0-4-1.3-4-3.8c0-3,3.1-3.8,5.5-3.9h0.7v-2.7h-0.4c-4.8,0-9.9,1.7-9.9,7.4c0,4,3.6,5.8,7.1,5.8
			c2.8,0,5.1-1.1,6.3-3.6h0.1c0,0.9,0.1,1.8,0.2,2.8c0,0.5,0.7,0.3,1.1,0.3h2.6c-0.1-1.7-0.2-3.4-0.2-4.3V11.9z"/>
		<path fill="#8D8A8A" d="M49.3,23.3c-0.6,0.2-1.4,0.2-2,0.2c-1.4,0-2.5-0.7-2.5-2.2V8.3l4.7,0V5.4l-4.7,0.1V0l-3.9,1.2v4.3
			l-3.5-0.1v2.9l3.5,0v12.9c0,2.7,0.2,2.8,0.9,3.8c0.6,0.9,1.7,1.2,2.3,1.3c0.9,0.2,1.7,0.2,2.6,0.2c0.9,0,1.7-0.2,2.6-0.2V23.3z"/>
		<path fill="#D2232A" d="M66.7,19.6h-4.1c-0.4,3-1.9,4.1-4.9,4.1c-3.8,0-5.3-3.4-5.1-6.8l0-0.1l0.1-3.5v-0.1
			c0.2-3.1,2.1-5.5,5.1-5.5c3.7,0,5.3,2.6,5.2,6h-7.2v2.7H67v-1.9c0-5.6-2.9-9.5-9-9.6c-6.4,0-9.4,5-9.4,10.9c0,6,2.6,10.6,9.1,10.6
			C62.6,26.5,66.1,24.2,66.7,19.6"/>
		<path d="M118.4,43.5h1.5l0.6-1.6h2.9l0.6,1.6h1.6l-2.8-7.2h-1.6L118.4,43.5z M123,40.7h-2.1l1-3h0L123,40.7z M112,43.5h1.4v-7.2
			H112V43.5z M101.6,43.5h1.4v-3h0.5c0.6,0,0.8,0.2,1,0.7l0.9,2.2h1.6l-1.2-2.8c-0.1-0.3-0.4-0.7-0.8-0.7v0c0.9-0.1,1.5-0.8,1.5-1.7
			c0-2-1.8-1.9-3.4-1.9h-1.6V43.5z M103.1,37.4h0.5c0.7,0,1.5,0.1,1.5,0.9c0,0.9-0.8,1-1.5,1h-0.5V37.4z M89.5,43.5H91l0.6-1.6h2.9
			l0.6,1.6h1.6l-2.8-7.2h-1.6L89.5,43.5z M94.1,40.7H92l1-3h0L94.1,40.7z M92.3,35.9h0.9l1.4-1.5h-1.4L92.3,35.9z M84.4,36.5
			c-0.6-0.2-1.3-0.3-2.1-0.3c-2.4,0-3.9,1.4-3.9,3.8c0,2.4,1.6,3.6,3.9,3.6c0.8,0,1.6-0.2,2.3-0.4v-3.9h-2.9v1.1h1.5v1.9
			c-0.2,0.1-0.6,0.1-0.9,0.1c-1.5,0-2.4-1.1-2.4-2.6c0-1.5,0.9-2.6,2.6-2.6c0.6,0,1.3,0.1,1.9,0.4L84.4,36.5z M67.1,43.5h1.4v-5.4h0
			l2.7,5.4H73v-7.2h-1.4v5.4h0l-2.7-5.4h-1.8V43.5z M55.5,40.9c0,1.9,1.1,2.7,2.9,2.7c1.8,0,2.9-0.8,2.9-2.7v-4.6H60v4.1
			c0,1.2-0.4,2-1.5,2c-1.1,0-1.5-0.8-1.5-2v-4.1h-1.4V40.9z M44,43.5h1.4v-3.1h2.9v3.1h1.4v-7.2h-1.4v2.9h-2.9v-2.9H44V43.5z"/>
	</g>
</g>
</svg>
