<svg xmlns="http://www.w3.org/2000/svg" viewBox="0 0 344.75 346.41"><defs><style>.a{fill:#002b5c}</style></defs><path class="a" d="M170.44 97.47A433.18 433.18 0 0 1 183 79.2 95.45 95.45 0 0 0 117.31 253a415.17 415.17 0 0 1 6.72-18.71 76.35 76.35 0 0 1 46.41-136.82zM170.65 250.19a76.75 76.75 0 0 1-13.27-1.19 691.94 691.94 0 0 0-10.87 17.18 95.44 95.44 0 0 0 92.69-158.74 528.8 528.8 0 0 0-13.43 13.57 76.34 76.34 0 0 1-55.13 129.17z"/><path class="a" d="M212.89 169.76s-8.53-5.69-26-11c0 0 32.09-43.87 81.24-83.67 0 0-44-10.15-66.61-10.15-11.78 8.94-49.55 67.43-67 106.42 0 0 14.62 6.91 19.09 11.37a411 411 0 0 0-34.93 82l-12.59-8.94 8.53 43.46 39.2-24-16-4.06s36.28-62.64 75.07-101.43zM131.31 318.67a7.11 7.11 0 0 0-3.85 5.07 5.86 5.86 0 0 0 .71 4.52 7.38 7.38 0 0 0 4 3.06v.07a7.66 7.66 0 0 0-4.13 1.36 5.45 5.45 0 0 0-2.26 3.35 5.25 5.25 0 0 0 1.31 5 12.1 12.1 0 0 0 6.31 3.12l9.45 2.17 5.95-25.95-10-2.28a11 11 0 0 0-7.49.51zm6.61 22.09l-2.19-.5q-4.27-1-3.62-3.84a3.07 3.07 0 0 1 1.59-2.18 4.39 4.39 0 0 1 3-.22l2.57.59zm2.4-10.49l-3.2-.74a5.13 5.13 0 0 1-3-1.61 3 3 0 0 1-.57-2.7 3.22 3.22 0 0 1 1.74-2.3 5 5 0 0 1 3.39-.21l3.17.73zM121 313.09l-6.11 13.39q-1.23 2.7-2.64 6.39l-.15-.07a34.51 34.51 0 0 0 .78-3.72l1.65-18.93-4.46-2L96.9 322a28 28 0 0 0-2.22 2.86l-.14-.06q1.46-2.8 2.57-5.1l6.61-14.49-5.39-2.46L87.29 327l7.79 3.55 11.48-12.07a38.32 38.32 0 0 0 2.56-3.06h.1a22.24 22.24 0 0 0-.72 3.86l-1.6 16.61 8 3.64 11-24.22zM81.36 290.42l-2.8 3.98 8.14 5.74-3.51 4.98-7.11-5.02-2.8 3.97 7.11 5.02-3.41 4.84-7.65-5.39-2.81 3.99 12.54 8.85 15.35-21.75-13.05-9.21zM34 279.73l4.11 4.74 17.56-7.91a15.24 15.24 0 0 0 2.44-1.35l.07.08a13.37 13.37 0 0 0-1.65 2.14L46.2 293.76l4.23 4.88 14.19-24.28-4.45-5.14zM35.01 272.41l14.38-9.68 1.24 1.85 3.85-2.59-5.83-8.67-3.85 2.59 1.24 1.84-14.38 9.68-1.25-1.85-3.85 2.6 5.84 8.67 3.85-2.59-1.24-1.85zM39.57 236.77l-4.29 2.29 4.64 8.69-19.21 10.24 2.83 5.29 23.49-12.52-7.46-13.99zM33 219.53l-.26.1-1.29-6-6.18-.6-2-9.26 5.4-3.09-1.36-6.39-24.02 14.78 1.49 7 27.42 3.83-3.71 1.41 3.5 9.22-20.34 7.72 2.13 5.61 24.89-9.44zm-21.93-7.78a10.2 10.2 0 0 0-2.37 0v-.15a11.65 11.65 0 0 0 2.25-.94L19.1 206l1.42 6.66zM27 186.93l-14.72.24q-3 0-6.9.35v-.17a34.78 34.78 0 0 0 3.7-.89l17.81-6.64-.08-4.9L8.63 169a28.11 28.11 0 0 0-3.54-.78v-.15q3.12.17 5.7.13l15.93-.26-.1-5.92-26.62.41.14 8.57L16 176.17a38.55 38.55 0 0 0 3.86 1v.11a22.29 22.29 0 0 0-3.79 1L.35 184l.14 8.78 26.62-.43zM14.63 156.33a13.36 13.36 0 0 0 10.23-1.52 12.39 12.39 0 0 0 5.57-8.35 12.52 12.52 0 0 0-1.79-10.1 14.09 14.09 0 0 0-9.15-5.66 13.76 13.76 0 0 0-10.35 1.4 12.09 12.09 0 0 0-5.55 8.25 12.66 12.66 0 0 0 1.81 10.29 14.32 14.32 0 0 0 9.23 5.69zm-6-14.75a5.75 5.75 0 0 1 3.25-4.25 10.38 10.38 0 0 1 6.67-.39 9.58 9.58 0 0 1 5.7 3.06 6.41 6.41 0 0 1-2.08 9.56 9.68 9.68 0 0 1-6.5.52A9.86 9.86 0 0 1 9.88 147a6 6 0 0 1-1.28-5.42zM12.72 122.66a7.2 7.2 0 0 0 3 2.08 6.93 6.93 0 0 0 4.78.23 11.65 11.65 0 0 0 4.65-3.17q.91-1 1.75-1.77a12.82 12.82 0 0 1 1.6-1.34A4.81 4.81 0 0 1 30 118a2.31 2.31 0 0 1 1.46.09 2.15 2.15 0 0 1 .89.65 2.48 2.48 0 0 1 .49 1.1 4.63 4.63 0 0 1 0 1.52 8.44 8.44 0 0 1-.53 1.92 11.26 11.26 0 0 1-2 3.31 11.42 11.42 0 0 1-3.17 2.53l5.53 2.17a12.63 12.63 0 0 0 2.33-2.82 22.66 22.66 0 0 0 1.87-3.74 19.54 19.54 0 0 0 1.1-3.93 9.94 9.94 0 0 0 0-3.63 6.85 6.85 0 0 0-1.45-3 7.58 7.58 0 0 0-3.25-2.17 7.65 7.65 0 0 0-2.81-.58 6.61 6.61 0 0 0-2.52.51 10.22 10.22 0 0 0-2.38 1.41 23.19 23.19 0 0 0-2.37 2.15q-.88.91-1.64 1.61a10.7 10.7 0 0 1-1.44 1.13 4.06 4.06 0 0 1-1.3.57 2.1 2.1 0 0 1-1.24-.11 2 2 0 0 1-.91-.7 2.72 2.72 0 0 1-.46-1.14 4.74 4.74 0 0 1 0-1.51 8.16 8.16 0 0 1 .5-1.8 11.8 11.8 0 0 1 .68-1.42 12.45 12.45 0 0 1 .93-1.42 11.57 11.57 0 0 1 1.14-1.3 8.88 8.88 0 0 1 1.29-1.06l-5.17-2a14.42 14.42 0 0 0-1.8 2.48 24.13 24.13 0 0 0-1.58 3.34 17.17 17.17 0 0 0-1 3.9 10.23 10.23 0 0 0 .11 3.62 7.1 7.1 0 0 0 1.42 2.98zM44.07 107.07L31.62 99.2q-2.51-1.59-6-3.48l.09-.14a34.78 34.78 0 0 0 3.59 1.28l18.54 4.2 2.62-4.14L38.51 82A28 28 0 0 0 36 79.38l.08-.13q2.52 1.85 4.7 3.23L54.22 91l3.16-5-22.51-14.23L30.3 79l10.41 13a38.41 38.41 0 0 0 2.68 3l-.06.09a22.24 22.24 0 0 0-3.72-1.23L23.37 90l-4.69 7.42 22.51 14.22zM45.32 56.67l-.45-8.34-3.54 3.83 1.11 7.61 2.88-3.1zM60.88 82.67l10.85-11.71-3.56-3.3-6.78 7.3-4.47-4.14 5.93-6.38-3.57-3.31-5.92 6.39-4.34-4.03 6.36-6.86-3.58-3.32-10.44 11.26 19.52 18.1zM78.75 65l-6.38-8 1.26-1a2.29 2.29 0 0 1 .95-.46 3.44 3.44 0 0 1 1.13 0 7.78 7.78 0 0 1 1.33.28q.72.21 1.57.53l7.52 2.75 5.37-4.31-8.85-3q-.69-.23-1.46-.44a13.54 13.54 0 0 0-1.53-.35 8.22 8.22 0 0 0-1.45-.09 3.83 3.83 0 0 0-1.28.25v-.06a9.74 9.74 0 0 0 1.24-2.38 7.69 7.69 0 0 0 .45-2.45 7.16 7.16 0 0 0-.39-2.41 7.51 7.51 0 0 0-1.28-2.27Q72.38 36 64.82 42l-7.41 6 16.67 20.73zm-7.19-13.12l-2 1.63-4.66-5.78L67 46q3.26-2.61 5.44.11a3.72 3.72 0 0 1 .83 2.93 4.31 4.31 0 0 1-1.71 2.84zM97.57 51.42l-7-12.86q-1.36-2.56-2.16-3.71h.07a24.26 24.26 0 0 0 2.23 1.3l17.62 9.47 5.32-2.89-12.7-23.4L96 22l7 12.94a28.43 28.43 0 0 0 1.87 3.14h-.06q-1.05-.65-2.21-1.27l-17-9.2-5.7 3.12 12.7 23.4zM118.94 37.2a12.39 12.39 0 0 0 10 .77 12.52 12.52 0 0 0 7.93-6.51 14.09 14.09 0 0 0 .46-10.75 13.76 13.76 0 0 0-6.3-8.34 12.08 12.08 0 0 0-9.91-.81 12.66 12.66 0 0 0-8.12 6.62 14.32 14.32 0 0 0-.4 10.82 13.36 13.36 0 0 0 6.34 8.2zm-.51-16.9a6 6 0 0 1 4.08-3.76 5.75 5.75 0 0 1 5.29.75 10.39 10.39 0 0 1 3.61 5.62 9.58 9.58 0 0 1 .12 6.47 6 6 0 0 1-4 3.6 6 6 0 0 1-5.33-.74 9.68 9.68 0 0 1-3.64-5.41 9.87 9.87 0 0 1-.13-6.53zM114 10.92a2.93 2.93 0 0 0 2.19.08 3 3 0 0 0 1.75-1.29 2.35 2.35 0 0 0 .2-2 2.36 2.36 0 0 0-1.3-1.51 2.94 2.94 0 0 0-2.17-.07 3 3 0 0 0-1.74 1.29 2.32 2.32 0 0 0-.23 2 2.36 2.36 0 0 0 1.3 1.5zM122.09 8.39a2.91 2.91 0 0 0 2.16.08 3 3 0 0 0 1.75-1.3 2.34 2.34 0 0 0 .22-2 2.33 2.33 0 0 0-1.32-1.5A3.3 3.3 0 0 0 121 4.9a2.33 2.33 0 0 0-.21 2 2.35 2.35 0 0 0 1.3 1.49zM150.49 32.47l-1.66-12.93h.09a11 11 0 0 0 .89 1.36L159 31.38l6.93-.89V31l10.45-.17-.08-4.64h-2.23l-.28-17.34h2.23l-.07-4.64-10.45.17.06 4.62h2.23l.28 17.34h-2.23l.06 3.47-11.18-11.92 7.59-13.78-7.09.89-5.87 12q-.39 1-.55 1.57h-.09l-1.61-12.5-5.95.76 3.39 26.4zM212.08 30.99l-9.76-2.04 1.24-5.96 8.53 1.78.99-4.76-8.52-1.78 1.21-5.79 9.16 1.91.99-4.78-15.03-3.14-5.44 26.06 15.63 3.26 1-4.76zM216.61 1.07L211.51 0l-5.95 4.88 4.14.87 6.91-4.68zM213.63 35.42a12.61 12.61 0 0 0 2.85 2.2 22.55 22.55 0 0 0 3.8 1.76 19.54 19.54 0 0 0 4 1 9.93 9.93 0 0 0 3.63-.13 6.86 6.86 0 0 0 3-1.53 7.56 7.56 0 0 0 2.06-3.24 7.65 7.65 0 0 0 .5-2.83 6.62 6.62 0 0 0-.58-2.5 10.06 10.06 0 0 0-1.48-2.33 23.21 23.21 0 0 0-2.22-2.31q-.94-.85-1.66-1.59a10.41 10.41 0 0 1-1.17-1.41 4 4 0 0 1-.61-1.28 2.11 2.11 0 0 1 .07-1.25 2 2 0 0 1 .67-.93 2.71 2.71 0 0 1 1.12-.5 4.78 4.78 0 0 1 1.51 0 8.22 8.22 0 0 1 1.81.44 11.74 11.74 0 0 1 1.44.63 12.49 12.49 0 0 1 1.45.88 11.56 11.56 0 0 1 1.33 1.1 8.92 8.92 0 0 1 1.1 1.26l1.87-5.23a14.6 14.6 0 0 0-2.53-1.72 24.14 24.14 0 0 0-3.38-1.48 17.14 17.14 0 0 0-3.93-.92 10.2 10.2 0 0 0-3.62.21 7.08 7.08 0 0 0-3 1.55 7.2 7.2 0 0 0-2 3.08 6.93 6.93 0 0 0-.09 4.78 11.62 11.62 0 0 0 3.31 4.56q1 .89 1.82 1.7a12.88 12.88 0 0 1 1.38 1.56 4.76 4.76 0 0 1 .76 1.48 2.29 2.29 0 0 1 0 1.46 2.12 2.12 0 0 1-.62.91 2.47 2.47 0 0 1-1.08.52 4.64 4.64 0 0 1-1.52.06 8.45 8.45 0 0 1-1.93-.47 11.26 11.26 0 0 1-3.37-1.93 11.43 11.43 0 0 1-2.62-3.1zM256.67 51.9l-1.89-1.19L264 36.02l1.88 1.19 2.47-3.93-8.85-5.56-2.47 3.93 1.89 1.19-9.22 14.68-1.88-1.18-2.47 3.93 8.85 5.56 2.47-3.93zM261 60.69l9.39-11.22q1.86-2.22 2.65-3.4h.06a23.81 23.81 0 0 0-.39 2.55l-2.31 19.92 4.6 3.89L292.13 52l-4.34-3.63-9.45 11.29a28.75 28.75 0 0 0-2.23 2.9h-.06q.22-1.22.37-2.52l2.3-19.21-5-4.15-17.04 20.38zM282.1 80.63l7.82-6.77 5.65 6.53 3.68-3.18-5.65-6.53 4.94-4.27 6.15 7.1 3.69-3.19-10.07-11.64-20.13 17.41 3.92 4.54zM294.08 90.06a12.4 12.4 0 0 0 1.75 9.88 12.53 12.53 0 0 0 8.28 6.06 14.09 14.09 0 0 0 10.52-2.24 13.75 13.75 0 0 0 6.5-8.18 12.08 12.08 0 0 0-1.69-9.8 12.66 12.66 0 0 0-8.44-6.17 14.32 14.32 0 0 0-10.61 2.28 13.37 13.37 0 0 0-6.31 8.17zm9.94-3a9.86 9.86 0 0 1 6.3-1.73 6 6 0 0 1 4.66 3 5.76 5.76 0 0 1 .59 5.31 10.39 10.39 0 0 1-4.54 4.9 9.58 9.58 0 0 1-6.24 1.73 6.41 6.41 0 0 1-5.1-8.27 9.69 9.69 0 0 1 4.31-4.92zM306.5 119.34l9.46-3.78.6 1.5a2.31 2.31 0 0 1 .17 1 3.44 3.44 0 0 1-.28 1.09 7.7 7.7 0 0 1-.65 1.19q-.41.62-1 1.34l-4.8 6.43 2.56 6.39 5.44-7.59q.42-.59.84-1.27a13.82 13.82 0 0 0 .74-1.37 8.28 8.28 0 0 0 .51-1.36 3.89 3.89 0 0 0 .13-1.29h.07a9.73 9.73 0 0 0 1.91 1.88 7.67 7.67 0 0 0 2.22 1.14 7.15 7.15 0 0 0 2.42.33 7.52 7.52 0 0 0 2.55-.56q6.72-2.69 3.12-11.69l-3.51-8.83-24.72 9.88zm20.5-8.22l1 2.52q1.55 3.88-1.69 5.17a3.71 3.71 0 0 1-3-.06 4.3 4.3 0 0 1-2.18-2.46l-1-2.41zM314 140.83l14.49-2.62q2.92-.53 6.75-1.46v.16a34.56 34.56 0 0 0-3.51 1.48l-16.5 9.43.87 4.82 18.92 2.92a28 28 0 0 0 3.62.2v.15q-3.11.34-5.65.79l-15.67 2.83 1.05 5.83 26.2-4.73-1.52-8.42-16.46-2.55a38 38 0 0 0-4-.36v-.11a22.23 22.23 0 0 0 3.57-1.61l14.56-8.16-1.56-8.64-26.2 4.73zM318.38 167.12l-.17 6.49 5.87 2-.24 9.47-6 1.74-.17 6.53 26.86-8.78.18-7.11zm21.52 13.72a11.63 11.63 0 0 0-2.41.38l-9 2.63.18-6.81 8.94 3.13a10.21 10.21 0 0 0 2.31.52zM337.54 204.41l-21.37-3.99-1.11 5.91 21.37 3.99-1.39 7.46 4.8.9 3.88-20.8-4.8-.9-1.38 7.43zM333.67 222.59l-16.59-5.05.66-2.13-4.44-1.36-3.05 10 4.43 1.35.66-2.13 16.58 5.06-.65 2.13 4.44 1.35 3.05-9.99-4.44-1.35-.65 2.12zM307.06 232.28l11.94 5.27v.08a11.22 11.22 0 0 0-1.63.05l-13.71 2.42-2.79 6.32-3 4.61 3.91 4.83-5.22 7.9-6-1.68-3.6 5.45 27.43 6.77 3.92-5.93-16.08-21.68 15.21-3.25 7.86 13.62 2.89-6.54-7.18-11.21q-.67-.87-1.06-1.28v-.08l11.46 5.05 2.42-5.48-24.35-10.76zm3.68 34.58a10.11 10.11 0 0 0 1.68 1.67l-.08.12a11.78 11.78 0 0 0-2.24-.95l-9-2.54 3.75-5.69zM301.63 283.33l-13.16-11.29 1.46-1.69-3.53-3.03-6.8 7.93 3.52 3.03 1.45-1.7 13.15 11.3-1.45 1.69 3.53 3.02 6.8-7.93-3.52-3.02-1.45 1.69zM258.58 294l7.47 10.68-.08.05a11.12 11.12 0 0 0-1.42-.8l-13-5-5.85 4.1-5.16 2.43.83 6.15-8.56 4-4.24-4.55-5.91 2.79 19.92 20 6.43-3-2.5-27.22 15.08 5.22-.32 15.72 5.86-4.1-.34-13.31q-.13-1.09-.25-1.64l.08-.05 7.22 10.31 4.91-3.44-15.27-21.81zm-14.72 34a11.6 11.6 0 0 0-1.42-2l-6.4-6.87 6.16-2.91 1.23 9.4A10.24 10.24 0 0 0 244 328zM214.62 315.95l2.72 9.82-1.56.43a2.3 2.3 0 0 1-1.05.05 3.49 3.49 0 0 1-1.06-.4 7.84 7.84 0 0 1-1.11-.78c-.38-.32-.79-.69-1.23-1.1l-5.82-5.5-6.64 1.83 6.95 6.25q.54.49 1.16 1a13.29 13.29 0 0 0 1.28.89 8.07 8.07 0 0 0 1.3.65 3.77 3.77 0 0 0 1.27.28v.07a9.67 9.67 0 0 0-2.08 1.69 7.66 7.66 0 0 0-1.38 2.08 7.18 7.18 0 0 0-.6 2.37 7.57 7.57 0 0 0 .27 2.59q1.93 7 11.27 4.4l9.16-2.53-7.09-25.66zM217.9 338q-4 1.11-5-2.25a3.72 3.72 0 0 1 .4-3 4.3 4.3 0 0 1 2.69-1.9l2.5-.69 2 7.14z"/><circle class="a" cx="174.15" cy="335.96" r="7.16"/></svg>