<svg xmlns="http://www.w3.org/2000/svg" viewBox="0 0 549.23 549.25"><defs><style>.a{fill:#231f20}</style></defs><path class="a" d="M274.64,509.53c-129.75,0-234.92-105.17-234.92-234.9S144.89,39.7,274.64,39.7s234.9,105.19,234.9,234.93-105.17,234.9-234.91,234.9M274.64,0C123,0,0,123,0,274.63S123,549.25,274.64,549.25s274.6-123,274.6-274.62S426.3,0,274.64,0"/><path class="a" d="M336,270.59a34.59,34.59,0,0,1-7.39,2L285.28,165.28C370.18,131,427.37,230.47,336,270.59M282.47,158.91l-44.25,17.85,39.29,97.39c-26.68-1.2-57.63-7.49-76.41-.29l-28.5-70.63-44.44,17.93,80.23,198.9,44.44-17.93L203.52,279.87c28.35-3.93,54.25,6.22,80.79,11.13l34.15,84.66,44.46-17.94-27.65-68.54a4.23,4.23,0,0,1,.84-.24c46.07-15.61,88-46.3,81.73-88.67-5.71-39.09-52.49-74.81-135.38-41.37"/></svg>