<?xml version="1.0" encoding="UTF-8" standalone="no"?>
<!-- Created with Inkscape (http://www.inkscape.org/) -->
<svg
   xmlns:svg="http://www.w3.org/2000/svg"
   xmlns="http://www.w3.org/2000/svg"
   version="1.0"
   width="708.66144"
   height="121.38053"
   id="svg6053">
  <defs
     id="defs6055">
    <clipPath
       id="clp9">
<path
   d="M 0,842 L 594.96,842 L 594.96,0.015 L 0,0.015 L 0,842 z "
   id="path5367" />

</clipPath>
    <clipPath
       id="clp8">
<path
   d="M 0.362,842.44 L 595.64,842.44 L 595.64,0.555 L 0.362,0.555 L 0.362,842.44 z "
   id="path5362" />

</clipPath>
    <clipPath
       id="clp7">
<path
   d="M 52.685,802.76 L 222.76,802.76 L 222.76,763.08 L 52.685,763.08 L 52.685,802.76 z "
   id="path5357" />

</clipPath>
    <clipPath
       id="clp6">
<path
   d="M 0,842 L 594.96,842 L 594.96,0.015 L 0,0.015 L 0,842 z "
   id="path5351" />

</clipPath>
    <clipPath
       id="clp5">
<path
   d="M 0.362,842.44 L 595.64,842.44 L 595.64,0.555 L 0.362,0.555 L 0.362,842.44 z "
   id="path5346" />

</clipPath>
    <clipPath
       id="clp4">
<path
   d="M 52.685,802.76 L 222.76,802.76 L 222.76,763.08 L 52.685,763.08 L 52.685,802.76 z "
   id="path5341" />

</clipPath>
  </defs>
  <g
     transform="translate(-543.11772,2.1325931)"
     id="layer1">
    <g
       transform="matrix(7.7854725,0,0,-7.7854725,-5.952725,6190.1414)"
       id="q4">
<clipPath
   id="clipPath6074">
<path
   d="M 52.685,802.76 L 222.76,802.76 L 222.76,763.08 L 52.685,763.08 L 52.685,802.76 z "
   id="path6076" />

</clipPath>

<g
   clip-path="url(#clp4)"
   id="g5343">
<clipPath
   id="clipPath6079">
<path
   d="M 0.362,842.44 L 595.64,842.44 L 595.64,0.555 L 0.362,0.555 L 0.362,842.44 z "
   id="path6081" />

</clipPath>

<g
   clip-path="url(#clp5)"
   id="g5348">
<clipPath
   id="clipPath6084">
<path
   d="M 0,842 L 594.96,842 L 594.96,0.015 L 0,0.015 L 0,842 z "
   id="path6086" />

</clipPath>

<g
   clip-path="url(#clp6)"
   id="g5353">
<g
   style="fill:none;stroke:none"
   id="q5">
<clipPath
   id="clipPath6090">
<path
   d="M 52.685,802.76 L 222.76,802.76 L 222.76,763.08 L 52.685,763.08 L 52.685,802.76 z "
   id="path6092" />

</clipPath>

<g
   clip-path="url(#clp7)"
   id="g5359">
<clipPath
   id="clipPath6095">
<path
   d="M 0.362,842.44 L 595.64,842.44 L 595.64,0.555 L 0.362,0.555 L 0.362,842.44 z "
   id="path6097" />

</clipPath>

<g
   clip-path="url(#clp8)"
   id="g5364">
<clipPath
   id="clipPath6100">
<path
   d="M 0,842 L 594.96,842 L 594.96,0.015 L 0,0.015 L 0,842 z "
   id="path6102" />

</clipPath>

<g
   clip-path="url(#clp9)"
   id="g5369">
<g
   style="fill:none;stroke:none"
   id="q6">
<g
   transform="matrix(91.0272,0,0,15.5908,70.525,779.772)"
   id="xfrm7">
<g
   id="q8">
<g
   transform="translate(0,0.99999)"
   id="xfrm9">
<path
   d="M 0,0 L 0.053655,0 L 0.053655,-0.36072 L 0.07879,-0.36072 L 0.15156,0 L 0.22745,0 L 0.12471,-0.48005 L 0.22745,-0.9818 L 0.15156,-0.9818 L 0.07734,-0.60481 L 0.053655,-0.60481 L 0.053655,-0.9818 L 0,-0.9818 L 0,0"
   style="fill:#f25c19;fill-rule:nonzero;stroke:none"
   id="path5375" />

</g>

</g>

<g
   id="q10">
<g
   transform="translate(0.51351,0.99999)"
   id="xfrm11">
<path
   d="M 0,0 L 0.05366,0 L 0.05366,-0.36072 L 0.07879,-0.36072 L 0.15156,0 L 0.22746,0 L 0.12471,-0.48005 L 0.22746,-0.9818 L 0.15156,-0.9818 L 0.07734,-0.60481 L 0.05366,-0.60481 L 0.05366,-0.9818 L 0,-0.9818 L 0,0"
   style="fill:#f25c19;fill-rule:nonzero;stroke:none"
   id="path5379" />

</g>

</g>

<g
   id="q12">
<g
   transform="translate(0.24621,0.99999)"
   id="xfrm13">
<path
   d="M 0,0 L 0.05365,0 L 0.05365,-0.57461 C 0.05365,-0.69924 0.06163,-0.74803 0.08362,-0.74803 L 0.13679,-0.74803 C 0.15879,-0.74803 0.16676,-0.69924 0.16676,-0.57461 L 0.16676,0 L 0.22042,0 L 0.22042,-0.63963 C 0.22042,-0.8835 0.19794,-0.99999 0.14864,-0.99999 L 0.07178,-0.99999 C 0.02248,-0.99999 0,-0.8835 0,-0.63963 L 0,0"
   style="fill:#f25c19;fill-rule:nonzero;stroke:none"
   id="path5383" />

</g>

</g>

<g
   id="q14">
<g
   transform="translate(0.83666,0.40291)"
   id="xfrm15">
<path
   d="M 0,0 L 0.02557,0.35299 L 0.04997,0.35299 L 0.07554,0 L 0,0 z M 0.1034,-0.38472 L 0.1633,-0.38472 L 0.09224,0.59708 L -0.0167,0.59708 L -0.0878,-0.38472 L -0.02786,-0.38472 L -0.0153,-0.21133 L 0.09084,-0.21133 L 0.1034,-0.38472"
   style="fill:#f25c19;fill-rule:nonzero;stroke:none"
   id="path5387" />

</g>

</g>

</g>

</g>

</g>

</g>

</g>

</g>

</g>

</g>

</g>

</g>
  </g>
</svg>
