<svg xmlns="http://www.w3.org/2000/svg" viewBox="0 0 708.66 121.38"><defs><clipPath id="f"><path d="M 0,842 L 594.96,842 L 594.96,0.015 L 0,0.015 L 0,842 z"/></clipPath><clipPath id="e"><path d="M 0.362,842.44 L 595.64,842.44 L 595.64,0.555 L 0.362,0.555 L 0.362,842.44 z"/></clipPath><clipPath id="d"><path d="M 52.685,802.76 L 222.76,802.76 L 222.76,763.08 L 52.685,763.08 L 52.685,802.76 z"/></clipPath><clipPath id="c"><path d="M 0,842 L 594.96,842 L 594.96,0.015 L 0,0.015 L 0,842 z"/></clipPath><clipPath id="b"><path d="M 0.362,842.44 L 595.64,842.44 L 595.64,0.555 L 0.362,0.555 L 0.362,842.44 z"/></clipPath><clipPath id="a"><path d="M 52.685,802.76 L 222.76,802.76 L 222.76,763.08 L 52.685,763.08 L 52.685,802.76 z"/></clipPath></defs><g clip-path="url(#a)" transform="matrix(7.78547 0 0 -7.78547 -549.07 6192.27)"><g clip-path="url(#b)"><g clip-path="url(#c)"><g clip-path="url(#d)" fill="none"><g clip-path="url(#e)"><g clip-path="url(#f)"><path d="M 0,0 L 0.053655,0 L 0.053655,-0.36072 L 0.07879,-0.36072 L 0.15156,0 L 0.22745,0 L 0.12471,-0.48005 L 0.22745,-0.9818 L 0.15156,-0.9818 L 0.07734,-0.60481 L 0.053655,-0.60481 L 0.053655,-0.9818 L 0,-0.9818 L 0,0" fill="#f25c19" transform="matrix(91.0272 0 0 15.5908 70.53 795.36)"/><path d="M 0,0 L 0.05366,0 L 0.05366,-0.36072 L 0.07879,-0.36072 L 0.15156,0 L 0.22746,0 L 0.12471,-0.48005 L 0.22746,-0.9818 L 0.15156,-0.9818 L 0.07734,-0.60481 L 0.05366,-0.60481 L 0.05366,-0.9818 L 0,-0.9818 L 0,0" fill="#f25c19" transform="matrix(91.0272 0 0 15.5908 117.27 795.36)"/><path d="M 0,0 L 0.05365,0 L 0.05365,-0.57461 C 0.05365,-0.69924 0.06163,-0.74803 0.08362,-0.74803 L 0.13679,-0.74803 C 0.15879,-0.74803 0.16676,-0.69924 0.16676,-0.57461 L 0.16676,0 L 0.22042,0 L 0.22042,-0.63963 C 0.22042,-0.8835 0.19794,-0.99999 0.14864,-0.99999 L 0.07178,-0.99999 C 0.02248,-0.99999 0,-0.8835 0,-0.63963 L 0,0" fill="#f25c19" transform="matrix(91.0272 0 0 15.5908 92.94 795.36)"/><path d="M 0,0 L 0.02557,0.35299 L 0.04997,0.35299 L 0.07554,0 L 0,0 z M 0.1034,-0.38472 L 0.1633,-0.38472 L 0.09224,0.59708 L -0.0167,0.59708 L -0.0878,-0.38472 L -0.02786,-0.38472 L -0.0153,-0.21133 L 0.09084,-0.21133 L 0.1034,-0.38472" fill="#f25c19" transform="matrix(91.0272 0 0 15.5908 146.68 786.05)"/></g></g></g></g></g></g></svg>
