<svg xmlns="http://www.w3.org/2000/svg" viewBox="0 0 290 240"><path d="m252.51,120c0,64.618-53.234,117.8-117.92,117.8-64.685,0-117.92-53.185-117.92-117.8,0-64.622,51.99-117.8,117.92-117.8,63.437,0,117.92,53.181,117.92,117.8" fill="#1a5dad"/><path d="m161.19,182c50.379,20.724,41.636-31.647,14.782-71.747-15.22-22.718-35.07-41.645-47.59-50.78-41.513-30.298-67.14-11.922-37.826,47.83,9.4777,19.319,21.651,32.358,31.159,44.648,7.261,9.3828,21.404,14.081,16.422,18.534-5.6144,5.0207-19.209-17.124-19.209-17.124-10.04-12.11-19.61-25.03-29.473-42.76-22.535-40.499-19.286-81.833,21.503-63.828,34.615,15.288,67.678,58.166,80.971,88.616,6.1401,14.059,22.88,69.692-30.437,47.2" fill="#FFF"/><path d="M4.526,154.92c22.163-14.76,43.176-24.29,78.935-36.1,50.249-16.6,88.069-27.758,134.47-51.082,20.77-10.438,56.81-33.847,69.7-54.198-3.86,7.876-15.81,23.206-21.22,29.987-62.96,78.833-197.07,74.363-261,112.21" fill="#ee293d"/><path d="M36.678 97.303c20.284.15916 18.294-.04072 18.531.1969.35457 0 16.196 27.282 16.196 27.517 0 .11657-.11844-9.6951-.11844-21.966 0-1.4172-3.8995-5.5505-3.7829-5.5505 5.7896 0 13.357.11844 13.357.11844-2.8354 3.3069-3.4018 3.0357-3.4254 5.079-.07995 6.5716-.15468 18.716 0 32.358.02204 2.0448 1.5371 2.8343 4.0194 6.3777h-18.562c-6.0291-10.038-17.077-28.869-17.022-28.816.08481.0863-.238 11.812.11545 21.257.11956 3.1216 1.5382 4.133 4.1405 6.9688 0 0 2.9931-.0803-14.542.11694 5.3196-2.8343 4.6131-6.3766 4.6105-6.4947-.19129-13.052-.0396-24.211-.0396-31.415 0-1.1806-.08033-1.0641-3.7433-5.5505M100.1 117.46c1.7033-5.9126 3.1582-11.197 3.8487-14.642.11694-.59107-1.3002-2.7159-3.5464-4.8425l-.15916-.32991c10.831.03512 22.146.09341 22.146.09341 2.9554 7.2042 9.6936 27.397 14.777 39.798 1.3443 3.2778 3.6649 3.8965 3.6649 3.8965-9.221-.11657-26.333-.0377-26.242-.11657 4.609-4.136 4.0179-4.136 2.0082-10.157h-14.421c-2.9554 6.8478.92098 10.063 1.4172 10.038-3.2823.16925-14.421 0-14.421 0 6.0291-4.2529 5.6731-5.5505 5.6731-5.5505 1.6566-5.892 3.5756-12.347 5.2554-18.191l5.9167.001c-1.2711 4.0766-2.5421 8.1498-2.5421 8.1498h11.47l-6.3852-16.298s-1.2711 4.0747-2.5425 8.148l-5.9167-.001M199.17 118.05c1.7-5.9111 3.1567-11.197 3.8457-14.644.11657-.58808-1.3021-2.7129-3.5468-4.841l-.16028-.32841c10.834.03512 22.152.09341 22.152.09341 2.9509 7.2042 9.6906 27.398 14.773 39.798 1.3428 3.2793 3.6634 3.898 3.6634 3.898-9.2165-.11956-26.329-.0377-26.241-.11956 4.612-4.1315 4.0209-4.1315 2.0112-10.155h-14.424c-2.9557 6.8492.91911 10.063 1.4156 10.04-3.2796.16775-14.42 0-14.42 0 6.0276-4.2529 5.6742-5.552 5.6742-5.552 1.6566-5.8931 3.5759-12.346 5.2572-18.189h5.9152c-1.274 4.0762-2.5395 8.1509-2.5395 8.1509h11.464l-6.3848-16.298s-1.267 4.0732-2.5395 8.1468h-5.9152M180.52 108.37c-.23651-8.3874 0-11.103 0-11.103-3.6664 2.9539-1.8169 2.5772-10.993 1.0637-26.445-4.3635-28.46 20.325-14.069 25.863 12.08 4.6497 16.361 5.5606 14.539 9.9186-.59107 1.4201-11.584 6.6157-22.931-3.8954l.23352 14.644c1.4186-1.4609 5.3226-4.133 5.3226-4.133.11657 0 12.3 5.3678 23.286-.238 16.908-8.6195 8.4693-22.572-9.5741-28.106-15.014-4.6064-.82758-15.354 14.066-3.8969M136.25 12.898c0 .5283-.4319.9617-.96021.9617-.52531 0-.96021-.4334-.96021-.9617 0-.52382.4349-.95872.96021-.95872.52831 0 .96021.4349.96021.95872M142.91 27.44c0 .64786-.53727 1.1806-1.1821 1.1806-.64935 0-1.1836-.53278-1.1836-1.1806 0-.64637.53428-1.1792 1.1836-1.1792.64487 0 1.1821.53279 1.1821 1.1792M160.19 51.206c0 .64674-.53241 1.1806-1.1821 1.1806-.64637 0-1.1821-.53391-1.1821-1.1806 0-.64786.49617-1.1821 1.1459-1.1821.64935 0 1.2184.53428 1.2184 1.1821M132.41 35.633c0 .52681-.43191.95871-.96021.95871-.52718 0-.96208-.43191-.96208-.95871 0-.52569.4349-.96058.96208-.96058.5283 0 .96021.4349.96021.96058M142.76 41.096c0 .52382-.43377.95871-.95908.95871-.52681 0-.96171-.4349-.96171-.95871 0-.52531.4349-.95909.96171-.95909.52531 0 .95908.43378.95908.95909M129.31 25.815c0 .64823-.53391 1.1806-1.1821 1.1806-.64786 0-1.1821-.53241-1.1821-1.1806 0-.64786.53428-1.1821 1.1821-1.1821.64823 0 1.1821.53428 1.1821 1.1821M113.65 35.338c0 .52681-.4334.96021-.9617.96021-.52681 0-.96021-.4334-.96021-.96021 0-.52569.4334-.96058.96021-.96058.5283 0 .9617.4349.9617.96058M116.45 37.255c0 .52868-.4334.96208-.9617.96208-.52681 0-.9617-.4334-.9617-.96208 0-.52531.43489-.95722.9617-.95722.5283 0 .9617.43191.9617.95722M119.26 39.175c0 .5283-.43341.9617-.96059.9617-.5268 0-.9617-.4334-.9617-.9617 0-.52382.4349-.95722.9617-.95722.52718 0 .96059.4334.96059.95722M114.98 42.867c0 .52681-.43639.96021-.96171.96021-.5283 0-.96207-.4334-.96207-.96021 0-.52531.43377-.95871.96207-.95871.52532 0 .96171.4334.96171.95871M92.664 58.514c0 .52681-.4349.95872-.9617.95872-.52681 0-.9617-.43191-.9617-.95872s.4349-.96058.9617-.96058c.52681 0 .9617.43378.9617.96058M96.8 63.535c0 .52569-.4349.95909-.9617.95909-.52681 0-.9617-.4334-.9617-.95909 0-.5283.4349-.96021.9617-.96021.52681 0 .9617.43191.9617.96021M93.512 144.58c0 .52718-.4334.95909-.96058.95909-.52681 0-.96021-.43191-.96021-.95909 0-.52531.4334-.96021.96021-.96021.52718 0 .96058.4349.96058.96021M94.103 166.94c0 .64786-.53428 1.1792-1.1821 1.1792-.64823 0-1.1821-.53129-1.1821-1.1792 0-.64823.53391-1.1806 1.1821-1.1806.64786 0 1.1821.53241 1.1821 1.1806M81.392 178.39c0 .52382-.4334.95871-.95872.95871-.52681 0-.9617-.43489-.9617-.95871 0-.5283.4349-.96058.9617-.96058.52531 0 .95872.43228.95872.96058M66.174 183.03c0 .64786-.53727 1.1792-1.1836 1.1792-.64823 0-1.1821-.53129-1.1821-1.1792 0-.64936.53391-1.1821 1.1821-1.1821.64637 0 1.1836.53278 1.1836 1.1821M63.07 172.7c0 .64488-.53391 1.1792-1.1806 1.1792-.64786 0-1.1821-.53428-1.1821-1.1792 0-.64935.53428-1.1821 1.1821-1.1821.64674 0 1.1806.53279 1.1806 1.1821M61.299 179.27c0 .52681-.4349.95872-.9617.95872-.52681 0-.96208-.43191-.96208-.95872 0-.52531.43527-.96021.96208-.96021s.9617.4349.9617.96021M49.918 173.81c0 .52531-.4334.96021-.95872.96021-.5283 0-.96208-.4349-.96208-.96021 0-.52532.43378-.95909.96208-.95909.52531 0 .95872.43377.95872.95909M89.668 192.26c0 .52718-.39716.96058-.92247.96058-.52681 0-.99832-.4334-.99832-.96058 0-.52531.4349-.96021.96021-.96021.5283 0 .96058.4349.96058.96021M101.64 183.48c0 .64936-.49617 1.1821-1.1459 1.1821-.64786 0-1.2184-.53278-1.2184-1.1821 0-.64524.53391-1.1792 1.1821-1.1792.64936 0 1.1822.53391 1.1822 1.1792M103.01 194.77c0 .52681-.473.96208-.99682.96208-.5283 0-.9617-.43527-.9617-.96208 0-.52531.4334-.95722.9617-.95722.52382 0 .99682.43191.99682.95722M152.21 183.99c0 .52568-.4334.96058-.95871.96058-.5298 0-.9632-.4349-.9632-.96058 0-.52681.4334-.95872.9632-.95872.52531 0 .95871.43191.95871.95872M129.31 192.11c0 .5268-.43191.95871-.96021.95871-.52532 0-.96021-.43191-.96021-.95871 0-.52532.43489-.96021.96021-.96021.5283 0 .96021.43489.96021.96021M190.93 203.78c0 .52538-.4349.95886-.96021.95886-.5283 0-.9632-.43348-.9632-.95886 0-.52689.4349-.96033.9632-.96033.52531 0 .96021.43344.96021.96033M195.95 158.38c0 .64786-.53241 1.1821-1.1821 1.1821-.64936 0-1.1821-.53428-1.1821-1.1821 0-.64824.53278-1.1821 1.1821-1.1821.64973 0 1.1821.5339 1.1821 1.1821M186.5 164.8c0 .52568-.4334.96058-.9632.96058-.52568 0-.95909-.4349-.95909-.96058 0-.52681.43341-.95872.95909-.95872.5298 0 .9632.43191.9632.95872M195.81 166.65c0 .64786-.53278 1.1821-1.1821 1.1821-.64972 0-1.1821-.53428-1.1821-1.1821 0-.64674.53242-1.1806 1.1821-1.1806.64936 0 1.1821.53391 1.1821 1.1806M186.5 178.09c0 .52531-.4334.95871-.9632.95871-.52568 0-.95909-.4334-.95909-.95871 0-.52681.43341-.96059.95909-.96059.5298 0 .9632.43378.9632.96059M210.58 151.96c0 .52681-.43489.96059-.96058.96059-.52531 0-.95871-.43378-.95871-.96059 0-.5268.4334-.95871.95871-.95871.52569 0 .96058.43191.96058.95871M212.91 157.79c0 .64935-.49318 1.1821-1.1425 1.1821-.64972 0-1.2188-.53279-1.2188-1.1821 0-.64824.53278-1.1792 1.1792-1.1792.64936 0 1.1821.53091 1.1821 1.1792M229.5 164.73c0 .64786-.52979 1.1806-1.1821 1.1806-.64972 0-1.1821-.53278-1.1821-1.1806 0-.64637.53242-1.1821 1.1821-1.1821.65235 0 1.1821.53577 1.1821 1.1821M212.65 177.06c0 .52532-.43789.95909-.96357.95909-.52532 0-.96021-.43377-.96021-.95909 0-.5283.43489-.96021.96021-.96021.52568 0 .96357.43191.96357.96021M223.29 167.02c0 .5268-.4334.95871-.95871.95871s-.96021-.43191-.96021-.95871c0-.52681.4349-.96021.96021-.96021s.95871.4334.95871.96021M221.33 182.52c0 .52718-.4334.95909-.95871.95909-.5298 0-.9632-.43191-.9632-.95909 0-.52531.4334-.96021.9632-.96021.52531 0 .95871.4349.95871.96021M225.84 156.76c0 .81001-.66878 1.4754-1.4784 1.4754-.81001 0-1.4773-.66542-1.4773-1.4754 0-.81001.66729-1.4754 1.4773-1.4754.80964 0 1.4784.66542 1.4784 1.4754" fill="#FFF"/><path d="M224.36 152.26l-.44087 4.059-4.028.44348 4.0602.44088.44498 4.2088.44536-4.2088 3.9884-.51523-4.025-.36913-.44498-4.059M215.49 182.44c0 .81002-.66692 1.4754-1.4769 1.4754-.81001 0-1.4784-.66542-1.4784-1.4754 0-.81001.66842-1.4754 1.4784-1.4754.81001 0 1.4769.66542 1.4769 1.4754" fill="#FFF"/><path d="M214.02 177.94l-.44499 4.059-4.0254.44349 4.0616.44386.44535 4.2059.44499-4.2059 3.9873-.51672-4.028-.37063-.44087-4.059M105.26 60.505c0 .81001-.66691 1.4754-1.4769 1.4754-.81301 0-1.4784-.66542-1.4784-1.4754 0-.81001.66542-1.4754 1.4784-1.4754.81001 0 1.4769.66542 1.4769 1.4754" fill="#FFF"/><path d="M103.78 56.003l-.44387 4.0587-4.028.44386 4.0646.44087.44386 4.2089.442-4.2089 3.9903-.51373-4.028-.37101-.44087-4.0587M160.23 24.783c0 .81001-.66841 1.4769-1.4784 1.4769-.81001 0-1.4739-.66692-1.4739-1.4769 0-.81001.66393-1.4769 1.4739-1.4769.81001 0 1.4784.66692 1.4784 1.4769" fill="#FFF"/><path d="M158.75 20.277l-.44088 4.0602-4.028.44386 4.0646.44349.44087 4.2077.44499-4.2077 3.9888-.51821-4.028-.36914-.44237-4.0602M93.4 206.07c0 .81001-.66692 1.4755-1.4769 1.4755-.813 0-1.4799-.6655-1.4799-1.4755 0-.80855.66692-1.477 1.4799-1.477.81001 0 1.4769.66841 1.4769 1.477" fill="#FFF"/><path d="m91.958,201.56-0.442,4.0602-4.0269,0.44367,4.0635,0.44222,0.44349,4.2077,0.44237-4.2077,3.9899-0.51518-4.0265-0.37071-0.44386-4.0602" fill="#FFF"/><path d="M287.62 13.541c-17.97 53.312-89.96 94.479-150.56 133.78-36.559 23.714-72.856 51.011-97.844 74.239-6.5866 6.1255 1.3421-2.2899-1.1821.29629 34.872-40.153 74.986-64.069 97.153-79.122 37.489-25.469 58.812-31.888 123.49-91.463M19.515 145.62c-6.4536 3.1571-12.235 6.2768-17.14 9.3219l2.9846 1.0861c4.2896-2.6419 9.4399-5.3973 14.865-7.8259" fill="#ee293d"/><path d="m53.587,205.28c-5.8995,5.1489-11.997,10.645-18.113,16.406l-0.27013,4.0706c5.5998-5.768,12.479-11.998,20.418-18.608" fill="#ee293d"/><path d="m161.19,182c50.379,20.724,41.636-31.647,14.782-71.747-15.22-22.718-33.99-40.74-47.59-50.78-15.88-11.725-17.43-12.697-17.43-12.697,35.462,16.831,67.678,58.165,80.971,88.616,6.1401,14.059,22.88,69.692-30.437,47.2" fill="#FFF"/></svg>
