<svg xmlns="http://www.w3.org/2000/svg" viewBox="0 0 577.39 138.67"><defs><style>.a{fill:#0067ac}</style></defs><path class="a" d="M83.51 18.63C83.9 11.78 89.82 6 95.9 4.23 111.11-.08 119.23.72 146.48.48 130.15 15.1 117.1 38.13 120 60.66c-5.86-4.81-9.83-11.66-14.93-17.15A57 57 0 0 0 110 32c1.79-6.8 6.71-8.4 12.92-8.22.48 0-.35-5.25-2.09-5.7-4.62-1.26-8.56.24-13.92-1.88-1.74-.67-3.7.24-5.17 1-4.41 2.23-7.2 7.06-12.18 8.61l-6.06-7.2zM.24 14.22C9.54 7.87 18.51 3.51 29.57 1.47c13.9-2.54 28.94-2.73 39.33 7.29 19.63 18.91 35.51 38.72 52.7 60.3.67.84.62 3.17 0 3.52a245.06 245.06 0 0 1-37.32 17.49 6.39 6.39 0 0 1-6-1.34C58.69 70.92 45.26 49.58 26.43 31A62.84 62.84 0 0 0 .73 15.75C0 15.5-.19 14.51.24 14.22z"/><path class="a" d="M68.77 101.18a126.09 126.09 0 0 0-35.2 37.5c-3.4-14.57-3.64-30 1.42-44.12 4.92-13.79 5.85-27.18 6.52-41.56 8.94 10.3 19.09 21.69 27.48 32l-.21 16.12z"/><path d="M105.09 43.51A57 57 0 0 0 110 32c1.79-6.8 6.71-8.4 12.92-8.22.48 0-.35-5.25-2.09-5.7-4.62-1.26-8.56.24-13.92-1.88-1.74-.67-3.7.24-5.17 1-4.41 2.23-7.2 7.06-12.18 8.61l15.52 17.67z" fill="#fff"/><path d="M193 46.65h-9c-6.75-8.17-15.88-18.9-20.19-26.35h-.14v26.35H153v-45h9.84c6.49 8 16.2 19.65 19.43 25.78h.12V1.66H193v45zm31.48-44.99l17.1 45h-14.4l-3.54-10.76H209.7l-4.31 10.74h-10.63l18.34-45zm-3 27.12c-1.48-5.36-2.76-9.64-4.37-16.07H217c-1.74 6.43-3.29 10.71-5 16.07zm24.41 17.87V10.07h-13V1.66h39.55v8.41h-12.97v36.58h-13.58zm30.93 0V1.66h13.56v44.99h-13.56zm16.83-23.01C293.65 11 303.1.88 316 .88S338.4 11 338.4 23.64c0 13.44-8.54 23.78-22.36 23.78s-22.38-10.34-22.38-23.78zm30.61 0c0-8-2.45-13.39-8.22-13.39s-8.23 5.41-8.23 13.39C307.8 32.11 310 38 316 38s8.22-5.93 8.22-14.4zm57.49 23.01h-9.08c-6.75-8.17-15.87-18.9-20.19-26.35h-.14v26.35h-10.65v-45h9.82c6.5 8 16.21 19.65 19.42 25.78h.13V1.66h10.69v45zm30.78-44.99l17.1 45h-14.4l-3.52-10.76h-14l-4.31 10.74h-10.57l18.33-45zm-3 27.12c-1.46-5.36-2.76-9.64-4.35-16.07H405c-1.74 6.43-3.28 10.71-4.95 16.07zm23.15-27.12h13.55v36.58h16.47v8.41h-30.02V1.66zM132.73 105.61V60.58h13.56v45.03h-13.56zm59.4 0h-9.07c-6.74-8.15-15.87-18.9-20.19-26.36h-.13v26.36h-10.66v-45h9.83c6.49 8 16.21 19.69 19.43 25.79h.12V60.58h10.67v45zm28.61-35.68a12.7 12.7 0 0 0-6.62-1.66c-2.64 0-4 1.27-4 2.76 0 2.49 3.79 4.55 8.17 8.61 5.78 5.4 7.2 8.8 7.2 13.5 0 4-3.27 13.24-16.79 13.24-5.28 0-10.55-1.22-14.14-4.1l4.12-7.47c1.91 1.47 4.5 3.16 7.72 3.16 2.69 0 5.65-1.36 5.65-4.72 0-3.59-4.37-6.22-7.9-9.3-4.7-4.12-7.47-6.49-7.47-12 0-7.2 7.26-12.08 15.77-12.08a23.84 23.84 0 0 1 11.75 3l-3.48 7.07zm18.12 35.68V69.02h-12.98v-8.44h39.55v8.44h-12.99v36.59h-13.58zm30.93-45.03h20.07c10.6 0 16.32 4.66 16.32 12.05 0 6.88-3.4 10.93-7.58 13l10 19.31-14.6 1.43-7.1-17.81h-3.53v17h-13.58v-45zm13.58 19.51h3.85a5.44 5.44 0 0 0 5.4-5.53c0-4.44-2.76-5.54-5.67-5.54h-3.59v11.07zm40.43-19.51v23.54c0 8.11 1.23 12.88 7 12.88 4.5 0 7.07-4.49 7.07-13.05V60.58h11.7v27.21c0 13.44-9.13 18.58-19.41 18.58-11.52 0-19.87-4.82-19.87-18.25V60.58zm86.36 45.03H396.6v-31.5h-.12a489.3 489.3 0 0 1-10.69 31.5h-8.55c-3.67-9.84-7.33-19.73-10.86-31.5h-.12v31.5h-10.7v-45H374c3.09 8.64 6.19 17.19 9.21 27.71h.12c2.9-10.52 5.91-19.08 8.88-27.71h18v45zm33.13-36.59h-13.77v8.89h13.44v8.42h-13.44v10.86h16.53v8.42h-30.1V60.58h27.34v8.44zm45.28 36.59h-9.08c-6.75-8.15-15.88-18.9-20.19-26.36h-.13v26.36H448.5v-45h9.83c6.48 8 16.2 19.69 19.41 25.79h.13V60.58h10.69v45zm15.42 0V69.02h-13v-8.44h39.55v8.44h-12.98v36.59h-13.57zm53.1-35.68a12.76 12.76 0 0 0-6.63-1.66c-2.64 0-4 1.27-4 2.76 0 2.49 3.79 4.55 8.17 8.61 5.78 5.4 7.21 8.8 7.21 13.5 0 4-3.29 13.24-16.79 13.24-5.27 0-10.55-1.22-14.15-4.1l4.1-7.47c1.92 1.47 4.47 3.16 7.7 3.16 2.69 0 5.65-1.36 5.65-4.72 0-3.59-4.37-6.22-7.92-9.3-4.67-4.12-7.44-6.49-7.44-12 0-7.2 7.26-12.08 15.75-12.08a23.86 23.86 0 0 1 11.78 3l-3.48 7.07zm7.19-1.59V62h-2.39v-.8h6.05v.8h-2.41v6.36zm13.11 0h-1.26V63l-2.84 5.29h-.58L570 63v5.29h-1v-7.12h1.42l2.7 5.38 2.93-5.38h1.33v7.17z"/></svg>