<svg xmlns="http://www.w3.org/2000/svg" viewBox="0 0 85 40"><path fill="#0077c0" d="M33.424,3.182C33.424,1.431,32.014,0,30.29,0H3.135C1.409,0,0,1.431,0,3.182V30.31 c0,0.044,0.001,0.089,0.005,0.129l-0.004-0.001l0.047,8.276C0.153,39.565,0.576,40,1.14,40c0.289,0,0.612-0.114,0.948-0.341 c2.08-2.053,4.159-4.109,6.235-6.165h0.008V8.75h6.045l12.551,14.734V8.754l6.497-0.007V3.182z"/><path fill="#0077c0" d="M14.685 33.494L26.796 33.494 14.696 19.645zM84.833 19.099H70.259v6.144h7.456c-1.296 1.916-3.485 3.177-5.961 3.177-3.972 0-7.204-3.244-7.204-7.23 0-3.988 3.231-7.232 7.204-7.232 2.259 0 4.278 1.05 5.6 2.689h6.848c-1.853-5.103-6.732-8.754-12.448-8.754-6.978 0-12.709 5.445-13.207 12.325V8.747l-6.53.007v14.731L39.465 8.751h-6.044v25.263h6.351l.011-14.368 12.557 14.371 6.205.005v-11.86c.498 6.879 6.229 12.324 13.207 12.324C79.057 34.486 85 28.522 85 21.19 85 20.477 84.942 19.781 84.833 19.099"/></svg>