<svg xmlns="http://www.w3.org/2000/svg" viewBox="0 0 556.95 117.07"><defs><style>.a{fill:#006c3f}.b{fill:#50b848}</style></defs><path class="a" d="M200.38 59.67c-4.81 27.46-21.91 31-36.38 31-14.28 0-27.44-9.84-23.72-31.11 2.91-16.62 12.78-32 36.78-30.83 16.74.79 26.59 12.27 23.32 30.94zm-26.16-19.1c-5.26 0-11.23 2.68-14.67 19-3.82 18.15 3.8 19.31 7.5 19.31 3.36 0 10.51-1.83 14.07-19.21 2.5-12.16.52-19.1-6.9-19.1zm62.6 47.71l-.9.9a66.94 66.94 0 0 1-10.08 1.23c-8.46 0-20.87-1.28-15.62-22.61 3.55-14.42 6.1-25.21 6.1-25.21l-7.84.22-.67-.9 3.25-11.31.78-.56h7.39l3.25-14.45.78-.78c8.4-1.9 10.64-2.46 18.37-4.71l.67.67-4.93 19.49 11.44-.26.45.78c-1.57 4.7-2 5.94-3.47 11.2l-.9.78-10.3-.22-5 20.79c-3.17 13.08-1.5 12.42 1.67 13.67 2.71 1.07 6.26-.3 8.28-1l.67.56zm40.53-54.09c2.91-2 7.73-5.38 15-5.38 11.2 0 18.7 8.4 18.7 22.62a40 40 0 0 1-8.62 24.64c-11.09 13.55-25.09 13.44-37 13.44l-6.38 26.77-.78.56c-2.58 0-5-.11-7.62-.11-3.81 0-7.17.22-11.31.34l-.56-.79s3.94-11.87 8.86-32.28c5.16-21.42 10-46.51 10.4-51.61l.78-.78L278 28.48l.67.78zm-9.07 42.9a20.56 20.56 0 0 0 15-4.37c4.48-3.81 8.51-11.65 8.51-20.16 0-9.41-6-10.53-8.29-10.53-3.25 0-5.71 1.68-8.06 3.25z"/><path class="b" d="M312.08 88.73c.74-3.4 5.58-23.3 10.51-45.68 4.23-19.19 7.17-31.17 8.2-40.11l.9-.78L343.88 0l.56.79-3.14 12.43-5.15 21.5c4.7-2.58 9.18-5 16.35-5 11.09 0 20.38 7.5 20.38 21.62 0 5.71-1.79 16.46-9.3 25.09-10.08 11.54-22.51 12.32-37 12.88h-6.16l-7.84.11zm13.66-8.18c6.34.3 15.68.11 23-4.82a29.33 29.33 0 0 0 12.21-22.85c0-10.19-6.16-14.11-13.33-14.11-5.71 0-9.74 2.46-13.33 4.7-.04.02-7.86 34.34-8.55 37.09zm107.2-26.87c-3.92 17.25-4.7 21.5-6.94 34.83l-.78.78-10.53.22-.56-.78.78-4.48C413 85.82 408.08 90 398.55 90c-11.42 0-20.72-8.06-20.72-22.06 0-8.85 4.26-18.48 9-24.08 10.38-12.25 24.83-12.92 35.17-12.92l15.46.11.56.9zm-8.29-14.22c-1.68 0-3.36-.11-5-.11-3.7 0-11 .22-17.58 4.7-11.76 8.06-12 22.51-12 23.07 0 5.38 2.91 14 13.1 14 3 0 8-.71 13.44-5.49zm63.75 49.16l-.9.67-11.42.34-.45-.78c1.64-7.54 8.54-32.8 8.62-40.66.07-6.72-4.14-9-9.41-9-6.94 0-11.54 3.47-14.9 5.94-4.14 18.82-5.49 24.75-9.07 43.46l-.78.67-11.42.34-.56-.78s3.4-13.71 6.47-28c2.4-11.16 4.38-20.35 5.29-28l.78-.78a114.28 114.28 0 0 0 11.87-2l.56.78-1.57 5.71c4.37-2.91 10-6.83 19.26-6.83 3.7 0 15.79 1 15.79 14.56.02 8.11-7.06 36.45-8.16 44.36zm42.79-33.4l17.36 33-.67.9-12.43.34-.9-.67C531.65 80.94 519 56.22 519 56.22a654.74 654.74 0 0 0-6.72 32.37l-.78.67-11.31.22-.45-.67S505.7 64 510.87 41c2.42-10.75 6.18-27.77 7.67-38.08l.78-.67 12.21-2 .67.78c-2.25 7.74-12.88 53.65-12.88 53.65 8-7 21.39-21.06 23.18-23l1.23-.67h12.88l.34 1c-3.18 2.51-9.07 7.84-11.2 9.74z"/><path class="a" d="M0 55.32A55.32 55.32 0 0 1 55.25 0v20a35.33 35.33 0 1 0 35.4 35.18h20A55.33 55.33 0 1 1 0 55.32z" fill-rule="evenodd"/><circle class="b" cx="55.45" cy="55.32" r="24.54"/><circle class="a" cx="86.53" cy="24.24" r="14.06"/></svg>