<svg xmlns="http://www.w3.org/2000/svg" viewBox="0 0 519.11 90.07"><defs><style>.a{fill:#004573;fill-rule:evenodd}</style></defs><path class="a" d="M514.75,19.39h-.41v.95h.35c.4,0,.58-.14.58-.47s-.13-.47-.52-.47m1.36,2.41a1,1,0,0,1-.82-.31,3.67,3.67,0,0,1-.58-.79h-.38v1h-.53V19h1c.57,0,.95.26.95.84a.82.82,0,0,1-.5.77,4.15,4.15,0,0,0,.4.54,1.31,1.31,0,0,0,.51.27Zm-1.3-3.35a1.9,1.9,0,0,0-2.1,2,2,2,0,0,0,2.16,2.07,1.9,1.9,0,0,0,2-2A2,2,0,0,0,514.81,18.45Zm0,4.55a2.52,2.52,0,1,1,0-5,2.4,2.4,0,0,1,2.6,2.53A2.4,2.4,0,0,1,514.81,23Zm-8.3,15.91h-5.43V57.29h-7.44V38.91H488.2V33.56h18.31Zm-23,7.56H468.08v.25c0,4.21.66,5.64,4.11,5.64,2.32,0,4.09-.25,4.2-2.76h7.16c-.06,3.36-1.2,5.23-3.09,6.33s-4.82,1.37-8.27,1.37c-9.23,0-11.4-3.12-11.4-11.89,0-9,2-12,11.4-12,8.79,0,11.36,2.37,11.36,12Zm-28.8,19.67H404.63a16.06,16.06,0,0,1-10.78-4.44c-3.73-4-4.55-10.28-4.55-16.26s.81-12.27,4.55-16.28a16.1,16.1,0,0,1,10.78-4.44h50.12Zm61.16-37.53a17.84,17.84,0,0,0-15.32-8.31H403.4a17.85,17.85,0,0,0-15.32,8.31c-2.61,4.53-3.19,11.92-3.19,16.82s.58,12.27,3.19,16.81a17.85,17.85,0,0,0,15.32,8.32h97.2a17.84,17.84,0,0,0,15.32-8.32c2.61-4.53,3.2-11.93,3.2-16.81S518.52,33.14,515.91,28.61Zm-105.28,10c2.68,0,4.13.27,4.13,3.95v.18h-8C406.83,39.62,407.47,38.64,410.64,38.64ZM399.3,45.58c0,8.8,2.2,12,11.47,12,3.44,0,6.31-.27,8.31-1.37s3.09-3,3.12-6.47h-7.3c-.08,2.51-1.78,2.77-4.13,2.77-3.37,0-4-1.38-4-5.58v-.18H422.2V45.58c0-9.62-2.6-12-11.43-12C401.32,33.56,399.3,36.49,399.3,45.58Zm39.31,7.29c-2,0-3.94,0-4-2.68h-7.45c.06,5.19,2.52,6.89,7.07,7.25,1.38.1,2.87.1,4.41.1,6.27,0,11.47-1,11.47-7.85,0-6.48-3.37-6.93-11.48-7.11-4-.09-4.25-.94-4.25-2.26,0-1.59.18-2.1,4.26-2.1,1.49,0,3,.14,3.33,2h7v-1c0-5.64-5.92-5.71-10.35-5.71-6.66,0-11.48.15-11.48,7.62,0,4.7,1.62,6.89,11.48,6.89a9.12,9.12,0,0,1,3.13.31c.77.33,1.13,1,1.13,2.23C442.87,52.66,442.12,52.88,438.61,52.88Zm33.45-14.48c-3.27,0-3.89,1.06-4,4.28h8.19V42.4C476.26,38.67,474.76,38.39,472.06,38.39Z"/><path fill="#004573" d="M361.9 5.08H363.71V86.57H361.9z"/><path class="a" d="M274.66,5.06H246.59V15.38h8.13V59.79h11.81V15.38h8.13ZM226.81,46.5V18.35a4.49,4.49,0,0,1,.85-3,3.33,3.33,0,0,1,2.67-1,3.23,3.23,0,0,1,2.63,1,4.57,4.57,0,0,1,.81,3v8.21h10.87V20q0-8-3.74-11.95c-2.49-2.62-6.14-3.94-11-3.92s-8.56,1.3-11.1,3.92S215,14.64,215,20V44.86q0,8,3.83,11.95c2.54,2.62,6.24,3.94,11.1,3.92s8.47-1.3,11-3.92,3.73-6.61,3.74-11.95V36.65H233.77V46.5a4.57,4.57,0,0,1-.81,3,3.23,3.23,0,0,1-2.63,1,3.33,3.33,0,0,1-2.67-1A4.49,4.49,0,0,1,226.81,46.5Zm-33.15-8q.55-3.77,1.17-8.72T196,19q.55,5.88,1.13,10.83t1.13,8.72l.63,4.3H193Zm8.05,21.27H213.6L204.14,5.06H188.81l-9.38,54.73H190.3l1.17-7.19h9ZM182.32,5.06H154.26V15.38h8.13V59.79h11.81V15.38h8.13Zm-40.66,0V23.51c0,1.26,0,2.65.09,4.14s.12,3,.18,4.48.14,2.91.2,4.2c-.26-1.29-.55-2.66-.87-4.12s-.65-2.93-1-4.4-.69-2.88-1-4.22L134.16,5.06h-15.4V59.79h9.85v-23c0-1.28,0-2.66-.09-4.17s-.13-3-.21-4.51-.17-2.84-.25-4.07q.43,1.82.94,4c.34,1.47.69,3,1,4.46s.68,2.88,1,4.18l6.1,23.06h14.39V5.06ZM95.31,46.5V18.35a4.5,4.5,0,0,1,.85-3,3.33,3.33,0,0,1,2.67-1,3.23,3.23,0,0,1,2.63,1,4.57,4.57,0,0,1,.81,3V46.5a4.57,4.57,0,0,1-.81,3,3.23,3.23,0,0,1-2.63,1,3.33,3.33,0,0,1-2.67-1A4.5,4.5,0,0,1,95.31,46.5ZM83.5,44.86q0,8,3.94,11.95c2.61,2.62,6.41,3.94,11.39,3.92s8.76-1.3,11.35-3.92,3.88-6.61,3.9-11.95V20q0-8-3.9-11.95c-2.59-2.62-6.37-3.94-11.35-3.92S90,5.43,87.44,8,83.51,14.64,83.5,20ZM61.84,46.5V18.35a4.49,4.49,0,0,1,.85-3,3.33,3.33,0,0,1,2.67-1,3.23,3.23,0,0,1,2.63,1,4.57,4.57,0,0,1,.81,3v8.21H79.67V20q0-8-3.74-11.95c-2.49-2.62-6.14-3.94-11-3.92S56.41,5.43,53.87,8,50.05,14.64,50,20V44.86q0,8,3.83,11.95c2.54,2.62,6.24,3.94,11.1,3.92s8.47-1.3,11-3.92,3.73-6.61,3.74-11.95V36.65H68.8V46.5a4.57,4.57,0,0,1-.81,3,3.23,3.23,0,0,1-2.63,1,3.33,3.33,0,0,1-2.67-1A4.49,4.49,0,0,1,61.84,46.5ZM33.62,59.79H45.43V5.06H33.62ZM10.87,40.4H0v4.46c0,5.34,1.24,9.33,3.7,11.95s6.1,3.94,10.92,3.92A18.19,18.19,0,0,0,22.87,59a10.83,10.83,0,0,0,4.9-4.85,16.86,16.86,0,0,0,1.63-7.78V45.25a21.6,21.6,0,0,0-1-6.79,15.55,15.55,0,0,0-2.51-4.81,19.3,19.3,0,0,0-3.43-3.41c-1.25-1-2.5-1.82-3.75-2.61s-2.38-1.58-3.43-2.38a10.36,10.36,0,0,1-2.51-2.74,7,7,0,0,1-1-3.69v-.47a4.83,4.83,0,0,1,.74-3,3.1,3.1,0,0,1,2.62-1,3,3,0,0,1,2.53,1,4.82,4.82,0,0,1,.76,3v4.77H29.4V20q0-8-3.74-11.95c-2.49-2.62-6.14-3.94-11-3.92A17.86,17.86,0,0,0,6.48,5.8,10.76,10.76,0,0,0,1.6,10.68,17.37,17.37,0,0,0,0,18.51v.31a21.61,21.61,0,0,0,1,6.79,15.62,15.62,0,0,0,2.51,4.8,19.7,19.7,0,0,0,3.43,3.4c1.25,1,2.5,1.82,3.75,2.59a41.48,41.48,0,0,1,3.43,2.38,10.21,10.21,0,0,1,2.51,2.75,7,7,0,0,1,1,3.71V46.5a4.74,4.74,0,0,1-.77,3,3.13,3.13,0,0,1-2.59,1,3.13,3.13,0,0,1-2.59-1,4.73,4.73,0,0,1-.77-3Zm319,46.17V76.86a3,3,0,0,1,.29-1.28,2.45,2.45,0,0,1,.78-.94,1.89,1.89,0,0,1,1.11-.36,2,2,0,0,1,.95.19,1.25,1.25,0,0,1,.58.69,4,4,0,0,1,.19,1.4v10h1.41v-10a5.94,5.94,0,0,0-.2-1.7,2.62,2.62,0,0,0-.56-1.07,2,2,0,0,0-.85-.55,3.26,3.26,0,0,0-1.07-.16,2.74,2.74,0,0,0-2.16,1,3.06,3.06,0,0,0-.56,1V73.3h-1.33V86.57ZM324.52,83a3,3,0,0,1-.29,1.28,2.47,2.47,0,0,1-.78.94,1.89,1.89,0,0,1-1.11.36,2.18,2.18,0,0,1-.95-.17,1.18,1.18,0,0,1-.57-.66,3.62,3.62,0,0,1-.2-1.35v-.28a3.21,3.21,0,0,1,.27-1.37,2.86,2.86,0,0,1,.7-.95,5.24,5.24,0,0,1,1-.68l1-.57a6.19,6.19,0,0,0,.93-.63Zm.31,3.53h1.36c-.05-.27-.09-.54-.12-.81s-.05-.56-.07-.88,0-.69,0-1.12,0-.93,0-1.52V76.73a5.13,5.13,0,0,0-.38-2.12,2.45,2.45,0,0,0-1.09-1.19,4.3,4.3,0,0,0-3.52,0,2.45,2.45,0,0,0-1.09,1.19,5.14,5.14,0,0,0-.38,2.12v.77h1.33v-.92a2.8,2.8,0,0,1,.43-1.72,1.69,1.69,0,0,1,1.44-.58,1.9,1.9,0,0,1,1.06.26,1.45,1.45,0,0,1,.58.78,3.76,3.76,0,0,1,.17,1.27v.15a1.48,1.48,0,0,1-.29.91,2.69,2.69,0,0,1-.76.67c-.32.19-.66.38-1,.57s-.75.4-1.13.63a5.39,5.39,0,0,0-1,.84,3.73,3.73,0,0,0-.75,1.2,4.61,4.61,0,0,0-.29,1.71v.23a5.69,5.69,0,0,0,.2,1.64,2.43,2.43,0,0,0,.56,1,2,2,0,0,0,.85.52,3.55,3.55,0,0,0,1.07.14,2.85,2.85,0,0,0,1.21-.26,2.79,2.79,0,0,0,.92-.7,2.85,2.85,0,0,0,.56-1c0,.31,0,.61.08.9A5.92,5.92,0,0,0,324.82,86.57ZM310.56,68.64V86.57h1l.38-1.66a3,3,0,0,0,.57,1,2.75,2.75,0,0,0,.91.68,2.83,2.83,0,0,0,1.2.26,3.28,3.28,0,0,0,1.07-.16,2,2,0,0,0,.85-.55,2.62,2.62,0,0,0,.56-1.07,5.93,5.93,0,0,0,.21-1.7V76.53a5.93,5.93,0,0,0-.21-1.7,2.62,2.62,0,0,0-.56-1.07,2,2,0,0,0-.85-.55,3.26,3.26,0,0,0-1.07-.16,2.84,2.84,0,0,0-1.14.23,2.8,2.8,0,0,0-.89.62,2.87,2.87,0,0,0-.58.88V68.64ZM312,76.86a3,3,0,0,1,.29-1.28,2.45,2.45,0,0,1,.78-.94,1.89,1.89,0,0,1,1.11-.36,2,2,0,0,1,.95.19,1.25,1.25,0,0,1,.58.69,4,4,0,0,1,.19,1.4v6.76a4,4,0,0,1-.19,1.4,1.25,1.25,0,0,1-.58.69,2,2,0,0,1-.95.19,1.89,1.89,0,0,1-1.11-.36,2.47,2.47,0,0,1-.78-.94A3,3,0,0,1,312,83ZM304.31,89a3.22,3.22,0,0,1-1.18-.17,1.07,1.07,0,0,1-.58-.52,2,2,0,0,1-.16-.86,1.91,1.91,0,0,1,.12-.68,1.16,1.16,0,0,1,.44-.56,1.5,1.5,0,0,1,.88-.24h2a3,3,0,0,1,1,.12,1,1,0,0,1,.59.45,1.84,1.84,0,0,1,.2.94,1.62,1.62,0,0,1-.23.91,1.27,1.27,0,0,1-.64.49,2.93,2.93,0,0,1-1,.14Zm2.13-12.5v2.66A2.76,2.76,0,0,1,306,80.9a2.19,2.19,0,0,1-3,0,2.76,2.76,0,0,1-.44-1.73V76.5a2.76,2.76,0,0,1,.44-1.73,2.19,2.19,0,0,1,3,0A2.76,2.76,0,0,1,306.44,76.5Zm-5.22,11.14a2.65,2.65,0,0,0,.28,1.27,1.89,1.89,0,0,0,.92.84,4.15,4.15,0,0,0,1.69.3h1.66a4.35,4.35,0,0,0,1.68-.29,2.23,2.23,0,0,0,1.08-.9,2.94,2.94,0,0,0,.38-1.55,3.23,3.23,0,0,0-.35-1.61,2,2,0,0,0-1-.87,4.59,4.59,0,0,0-1.68-.26h-2.1a1.1,1.1,0,0,1-.59-.15.89.89,0,0,1-.33-.38,1.16,1.16,0,0,1-.11-.5,1.24,1.24,0,0,1,.08-.43,1.07,1.07,0,0,1,.22-.37.79.79,0,0,1,.37-.23,3.49,3.49,0,0,0,.51.08l.57,0a4.1,4.1,0,0,0,1.81-.35,2.41,2.41,0,0,0,1.14-1.14,4.75,4.75,0,0,0,.4-2.09V75.43a1.53,1.53,0,0,1,.12-.68.42.42,0,0,1,.39-.24l.27,0,.29.06V73.35l-.23,0h-.33a1,1,0,0,0-.78.32,1.51,1.51,0,0,0-.3.8,2.44,2.44,0,0,0-1.12-1.06,4.06,4.06,0,0,0-1.72-.32,4,4,0,0,0-1.79.35,2.41,2.41,0,0,0-1.13,1.14,4.89,4.89,0,0,0-.39,2.09V79a4.82,4.82,0,0,0,.35,2,2.43,2.43,0,0,0,1,1.14,1.78,1.78,0,0,0-.86,1,2.44,2.44,0,0,0,.05,1.77,1.71,1.71,0,0,0,.58.68,1.76,1.76,0,0,0-.8.76A2.64,2.64,0,0,0,301.21,87.64Zm-6.5-15.72h.92l2.3-3h-1.56ZM297.58,83a3,3,0,0,1-.29,1.28,2.47,2.47,0,0,1-.78.94,1.89,1.89,0,0,1-1.11.36,2.18,2.18,0,0,1-.95-.17,1.18,1.18,0,0,1-.57-.66,3.62,3.62,0,0,1-.2-1.35v-.28a3.22,3.22,0,0,1,.27-1.37,2.85,2.85,0,0,1,.7-.95,5.24,5.24,0,0,1,1-.68l1-.57a6.18,6.18,0,0,0,.93-.63Zm.31,3.53h1.36c-.05-.27-.09-.54-.12-.81s-.05-.56-.07-.88,0-.69,0-1.12,0-.93,0-1.52V76.73a5.15,5.15,0,0,0-.38-2.12,2.46,2.46,0,0,0-1.09-1.19,4.3,4.3,0,0,0-3.52,0,2.46,2.46,0,0,0-1.09,1.19,5.14,5.14,0,0,0-.38,2.12v.77h1.33v-.92a2.8,2.8,0,0,1,.43-1.72,1.69,1.69,0,0,1,1.44-.58,1.9,1.9,0,0,1,1.06.26,1.45,1.45,0,0,1,.58.78,3.77,3.77,0,0,1,.17,1.27v.15a1.49,1.49,0,0,1-.29.91,2.69,2.69,0,0,1-.76.67c-.32.19-.66.38-1,.57s-.75.4-1.13.63a5.39,5.39,0,0,0-1,.84,3.73,3.73,0,0,0-.76,1.2,4.62,4.62,0,0,0-.29,1.71v.23a5.69,5.69,0,0,0,.2,1.64,2.43,2.43,0,0,0,.56,1,2,2,0,0,0,.85.52,3.55,3.55,0,0,0,1.07.14,2.85,2.85,0,0,0,1.21-.26,2.79,2.79,0,0,0,.92-.7,2.86,2.86,0,0,0,.56-1c0,.31,0,.61.08.9A5.93,5.93,0,0,0,297.88,86.57Zm-7.81,0V68.64h-1.43V86.57ZM286,70.84v-2.2h-1.43v2.2Zm0,15.72V73.3h-1.43V86.57Zm-6.12-5.22c-.15.7-.29,1.38-.41,2.05s-.22,1.29-.31,1.86c-.06-.57-.16-1.19-.28-1.86s-.26-1.36-.41-2.05l-1.82-8H275.2l3,13.27H280l3-13.27h-1.31Zm-11.73,2.13a3.44,3.44,0,0,1-.17,1.18,1.38,1.38,0,0,1-.57.74,2.06,2.06,0,0,1-1.11.26,2,2,0,0,1-1.11-.27,1.52,1.52,0,0,1-.59-.79,3.91,3.91,0,0,1-.17-1.26v-1.1h-1.33v1a5,5,0,0,0,.37,2.09,2.38,2.38,0,0,0,1.08,1.18,3.79,3.79,0,0,0,1.77.37,4,4,0,0,0,1.78-.35,2.39,2.39,0,0,0,1.1-1.13,4.53,4.53,0,0,0,.38-2v0a4.28,4.28,0,0,0-.28-1.59,3.63,3.63,0,0,0-.72-1.13,5.65,5.65,0,0,0-1-.82q-.54-.35-1.08-.67a8.66,8.66,0,0,1-1-.67,3,3,0,0,1-.72-.83,2.32,2.32,0,0,1-.28-1.14v-.1a3.44,3.44,0,0,1,.17-1.18,1.43,1.43,0,0,1,.59-.74,2.08,2.08,0,0,1,1.11-.26,2,2,0,0,1,1.11.27,1.5,1.5,0,0,1,.59.79,3.9,3.9,0,0,1,.17,1.26v.87h1.33v-.74a5,5,0,0,0-.38-2.09,2.43,2.43,0,0,0-1.1-1.18,3.81,3.81,0,0,0-1.78-.37,3.21,3.21,0,0,0-2.39.81,3.54,3.54,0,0,0-.84,2.59v0a4.35,4.35,0,0,0,.28,1.6,3.59,3.59,0,0,0,.72,1.13,5.69,5.69,0,0,0,1,.81c.35.23.71.45,1.07.65a8.52,8.52,0,0,1,1,.65,2.75,2.75,0,0,1,.72.81,2.29,2.29,0,0,1,.28,1.14Zm-7.27-12.62v-2.2h-1.43v2.2Zm0,15.72V73.3h-1.43V86.57Zm-4.1,0V68.64h-1.43V86.57Zm-8.25-14.65h.92l2.3-3h-1.56ZM251.38,83a3,3,0,0,1-.29,1.28,2.47,2.47,0,0,1-.78.94,1.89,1.89,0,0,1-1.11.36,2.18,2.18,0,0,1-.95-.17,1.18,1.18,0,0,1-.57-.66,3.62,3.62,0,0,1-.2-1.35v-.28a3.21,3.21,0,0,1,.27-1.37,2.86,2.86,0,0,1,.7-.95,5.25,5.25,0,0,1,1-.68l1-.57a6.22,6.22,0,0,0,.93-.63Zm.31,3.53H253c-.05-.27-.09-.54-.12-.81s-.05-.56-.07-.88,0-.69,0-1.12,0-.93,0-1.52V76.73a5.13,5.13,0,0,0-.38-2.12,2.45,2.45,0,0,0-1.09-1.19,4.3,4.3,0,0,0-3.52,0,2.45,2.45,0,0,0-1.09,1.19,5.14,5.14,0,0,0-.38,2.12v.77h1.33v-.92a2.8,2.8,0,0,1,.43-1.72,1.69,1.69,0,0,1,1.44-.58,1.9,1.9,0,0,1,1.06.26,1.45,1.45,0,0,1,.58.78,3.78,3.78,0,0,1,.18,1.27v.15a1.49,1.49,0,0,1-.29.91,2.69,2.69,0,0,1-.76.67c-.32.19-.66.38-1,.57s-.75.4-1.13.63a5.39,5.39,0,0,0-1,.84,3.73,3.73,0,0,0-.75,1.2,4.62,4.62,0,0,0-.29,1.71v.23a5.69,5.69,0,0,0,.2,1.64,2.43,2.43,0,0,0,.56,1,2,2,0,0,0,.85.52,3.55,3.55,0,0,0,1.07.14,2.85,2.85,0,0,0,1.21-.26,2.79,2.79,0,0,0,.92-.7,2.85,2.85,0,0,0,.56-1c0,.31,0,.61.08.9A5.93,5.93,0,0,0,251.69,86.57Zm-8.09.15a5.76,5.76,0,0,0,.67,0,3.41,3.41,0,0,0,.59-.12V85.39a2.16,2.16,0,0,1-.42.08l-.61,0a1,1,0,0,1-.8-.28,1.47,1.47,0,0,1-.25-1V74.53h2.07V73.3h-2.07V70.46h-1.43V73.3h-1.15v1.23h1.15v9.81a3.36,3.36,0,0,0,.24,1.39,1.5,1.5,0,0,0,.73.76A2.94,2.94,0,0,0,243.6,86.72Zm-5.3-15.88v-2.2h-1.43v2.2Zm0,15.72V73.3h-1.43V86.57ZM230.61,89a3.22,3.22,0,0,1-1.18-.17,1.07,1.07,0,0,1-.58-.52,1.94,1.94,0,0,1-.16-.86,1.91,1.91,0,0,1,.11-.68,1.17,1.17,0,0,1,.44-.56,1.5,1.5,0,0,1,.88-.24h2a3,3,0,0,1,1,.12,1,1,0,0,1,.59.45,1.84,1.84,0,0,1,.2.94,1.62,1.62,0,0,1-.23.91,1.27,1.27,0,0,1-.64.49,2.93,2.93,0,0,1-1,.14Zm2.13-12.5v2.66a2.76,2.76,0,0,1-.44,1.73,2.19,2.19,0,0,1-3,0,2.76,2.76,0,0,1-.44-1.73V76.5a2.76,2.76,0,0,1,.44-1.73,2.19,2.19,0,0,1,3,0A2.76,2.76,0,0,1,232.74,76.5Zm-5.22,11.14a2.65,2.65,0,0,0,.28,1.27,1.89,1.89,0,0,0,.92.84,4.15,4.15,0,0,0,1.69.3h1.66a4.35,4.35,0,0,0,1.68-.29,2.23,2.23,0,0,0,1.08-.9,2.94,2.94,0,0,0,.38-1.55,3.23,3.23,0,0,0-.35-1.61,2,2,0,0,0-1-.87,4.59,4.59,0,0,0-1.68-.26h-2.1a1.1,1.1,0,0,1-.58-.15.89.89,0,0,1-.33-.38,1.17,1.17,0,0,1-.11-.5,1.24,1.24,0,0,1,.08-.43,1.08,1.08,0,0,1,.22-.37.8.8,0,0,1,.37-.23,3.51,3.51,0,0,0,.51.08l.57,0a4.1,4.1,0,0,0,1.81-.35,2.42,2.42,0,0,0,1.14-1.14,4.75,4.75,0,0,0,.4-2.09V75.43a1.53,1.53,0,0,1,.12-.68.42.42,0,0,1,.39-.24l.27,0,.29.06V73.35l-.23,0h-.33a1,1,0,0,0-.78.32,1.5,1.5,0,0,0-.3.8,2.44,2.44,0,0,0-1.12-1.06,4.06,4.06,0,0,0-1.72-.32,4,4,0,0,0-1.79.35,2.4,2.4,0,0,0-1.13,1.14,4.89,4.89,0,0,0-.39,2.09V79a4.82,4.82,0,0,0,.35,2,2.43,2.43,0,0,0,1,1.14,1.79,1.79,0,0,0-.86,1,2.44,2.44,0,0,0,.05,1.77,1.71,1.71,0,0,0,.58.68,1.76,1.76,0,0,0-.8.76A2.64,2.64,0,0,0,227.51,87.64Zm-2.36-16.8v-2.2h-1.43v2.2Zm0,15.72V73.3h-1.43V86.57Zm-5.22,0h1.38c-.06-.27-.1-.54-.14-.81s-.06-.56-.08-.88,0-.69,0-1.12,0-.93,0-1.52V68.64h-1.41v6.17a3,3,0,0,0-.6-.9,2.73,2.73,0,0,0-.9-.63A2.84,2.84,0,0,0,217,73a3.24,3.24,0,0,0-1.06.16,2.07,2.07,0,0,0-.85.55,2.68,2.68,0,0,0-.57,1.07,6.07,6.07,0,0,0-.21,1.7v6.81a6.09,6.09,0,0,0,.21,1.7,2.68,2.68,0,0,0,.57,1.07,2.07,2.07,0,0,0,.85.55,3.26,3.26,0,0,0,1.06.16,2.91,2.91,0,0,0,1.19-.25,2.84,2.84,0,0,0,1.5-1.64c0,.31,0,.61.08.89A5.24,5.24,0,0,0,219.93,86.57ZM219.65,83a3,3,0,0,1-.29,1.28,2.47,2.47,0,0,1-.78.94,1.88,1.88,0,0,1-1.11.36,2,2,0,0,1-1-.19,1.23,1.23,0,0,1-.59-.69,3.91,3.91,0,0,1-.2-1.4V76.55a3.91,3.91,0,0,1,.2-1.4,1.23,1.23,0,0,1,.59-.69,2,2,0,0,1,1-.19,1.89,1.89,0,0,1,1.11.36,2.44,2.44,0,0,1,.78.94,3,3,0,0,1,.29,1.28Zm-13.47,0a3,3,0,0,1-.29,1.28,2.47,2.47,0,0,1-.78.94,1.89,1.89,0,0,1-1.11.36,2.18,2.18,0,0,1-.95-.17,1.18,1.18,0,0,1-.57-.66,3.61,3.61,0,0,1-.2-1.35v-.28a3.22,3.22,0,0,1,.27-1.37,2.86,2.86,0,0,1,.7-.95,5.24,5.24,0,0,1,1-.68l1-.57a6.18,6.18,0,0,0,.93-.63Zm.31,3.53h1.36c-.05-.27-.09-.54-.12-.81s-.05-.56-.07-.88,0-.69,0-1.12,0-.93,0-1.52V76.73a5.14,5.14,0,0,0-.38-2.12,2.45,2.45,0,0,0-1.09-1.19,4.3,4.3,0,0,0-3.52,0,2.45,2.45,0,0,0-1.09,1.19,5.14,5.14,0,0,0-.38,2.12v.77h1.33v-.92a2.8,2.8,0,0,1,.43-1.72,1.69,1.69,0,0,1,1.44-.58,1.9,1.9,0,0,1,1.06.26,1.46,1.46,0,0,1,.58.78,3.78,3.78,0,0,1,.17,1.27v.15a1.49,1.49,0,0,1-.29.91,2.68,2.68,0,0,1-.76.67c-.32.19-.66.38-1,.57s-.75.4-1.13.63a5.37,5.37,0,0,0-1,.84,3.73,3.73,0,0,0-.76,1.2,4.61,4.61,0,0,0-.29,1.71v.23a5.68,5.68,0,0,0,.2,1.64,2.44,2.44,0,0,0,.56,1,2,2,0,0,0,.85.52,3.54,3.54,0,0,0,1.07.14,2.85,2.85,0,0,0,1.21-.26,2.79,2.79,0,0,0,.92-.7,2.85,2.85,0,0,0,.56-1c0,.31,0,.61.08.9A5.93,5.93,0,0,0,206.49,86.57Zm-17.05,2a3.05,3.05,0,0,1-1-.13.84.84,0,0,1-.49-.38,1.31,1.31,0,0,1-.13-.64,1.37,1.37,0,0,1,.1-.52.92.92,0,0,1,.36-.41,1.24,1.24,0,0,1,.67-.17h2a2.31,2.31,0,0,1,.71.09.77.77,0,0,1,.44.33,1.31,1.31,0,0,1,.15.68,1,1,0,0,1-.4.9,2.35,2.35,0,0,1-1.26.25Zm1.66-12v2.25a1.93,1.93,0,0,1-.32,1.22,1.63,1.63,0,0,1-2.17,0,1.91,1.91,0,0,1-.33-1.22V76.55a2,2,0,0,1,.33-1.24,1.59,1.59,0,0,1,2.17,0A2,2,0,0,1,191.1,76.55Zm-5.33,11.14A2.41,2.41,0,0,0,186.1,89a2,2,0,0,0,1,.8,5.3,5.3,0,0,0,1.84.27h2a4.57,4.57,0,0,0,3-.79,2.87,2.87,0,0,0,.94-2.36,3,3,0,0,0-.81-2.32,3.66,3.66,0,0,0-2.59-.78h-2.43a.9.9,0,0,1-.47-.12.67.67,0,0,1-.26-.28.86.86,0,0,1-.08-.37,1,1,0,0,1,.09-.44.66.66,0,0,1,.29-.3l.52,0,.55,0a6,6,0,0,0,2.19-.35,2.6,2.6,0,0,0,1.36-1.2,4.74,4.74,0,0,0,.47-2.29V76.17a1,1,0,0,1,.12-.53.41.41,0,0,1,.37-.18,3.19,3.19,0,0,1,.69.08V73.38a1.31,1.31,0,0,0-.32-.07h-.38a1.17,1.17,0,0,0-.82.27,1.45,1.45,0,0,0-.41.81,2.62,2.62,0,0,0-1.33-1.05,5.73,5.73,0,0,0-2-.3,5.58,5.58,0,0,0-2.14.34,2.53,2.53,0,0,0-1.32,1.19,4.89,4.89,0,0,0-.45,2.29v1.69a5,5,0,0,0,.4,2.17,2.59,2.59,0,0,0,1.17,1.21,2.08,2.08,0,0,0-.82.79,2.61,2.61,0,0,0-.33,1.34,2.88,2.88,0,0,0,.17,1,1.8,1.8,0,0,0,.55.76,1.91,1.91,0,0,0-.77.73A2.31,2.31,0,0,0,185.77,87.69Zm-7-15.67h1.77L183,68.77h-2.56Zm2.74,10.81a2.1,2.1,0,0,1-.2.93,1.6,1.6,0,0,1-.55.65,1.46,1.46,0,0,1-.82.24,1.49,1.49,0,0,1-.7-.13.89.89,0,0,1-.44-.47,2.4,2.4,0,0,1-.15-.93v-.18a2.31,2.31,0,0,1,.26-1.13,2.35,2.35,0,0,1,.67-.75,5.25,5.25,0,0,1,.92-.54l1-.48Zm.41,3.74h2.48q-.08-.45-.14-.87c0-.28-.06-.58-.09-.91s0-.69,0-1.1,0-.89,0-1.45v-5a4.5,4.5,0,0,0-1-3.18,3.75,3.75,0,0,0-2.87-1,3.83,3.83,0,0,0-2.91,1,4.49,4.49,0,0,0-1,3.18v.64h2.43v-1a2,2,0,0,1,.31-1.24,1.23,1.23,0,0,1,1-.43,1.19,1.19,0,0,1,1,.43,2,2,0,0,1,.31,1.24V77a1.17,1.17,0,0,1-.3.79,2.7,2.7,0,0,1-.78.56c-.32.16-.67.32-1.06.49a11.13,11.13,0,0,0-1.15.57,4.93,4.93,0,0,0-1.06.8,3.61,3.61,0,0,0-.77,1.19,4.67,4.67,0,0,0-.3,1.74v.2a4.92,4.92,0,0,0,.37,2.08,2.2,2.2,0,0,0,1,1.08,3.21,3.21,0,0,0,1.46.3,3,3,0,0,0,1.22-.25,2.69,2.69,0,0,0,.9-.67,2.87,2.87,0,0,0,.57-1,8.78,8.78,0,0,0,.12.9A3.89,3.89,0,0,0,181.88,86.57Zm-9.73-3.38a1.81,1.81,0,0,1-.31,1.18,1.27,1.27,0,0,1-1.08.41,1.21,1.21,0,0,1-1.05-.45,2.08,2.08,0,0,1-.3-1.24v-.92H167v.67a4.14,4.14,0,0,0,1,3,3.89,3.89,0,0,0,2.86,1,4.76,4.76,0,0,0,2.08-.41,2.91,2.91,0,0,0,1.32-1.26,4.53,4.53,0,0,0,.46-2.14V83a4.69,4.69,0,0,0-.29-1.72,3.41,3.41,0,0,0-.73-1.16,4.42,4.42,0,0,0-1-.76,11.87,11.87,0,0,0-1.09-.54,11.14,11.14,0,0,1-1-.48,2.33,2.33,0,0,1-.73-.59,1.36,1.36,0,0,1-.29-.87v-.15a1.84,1.84,0,0,1,.32-1.18,1.28,1.28,0,0,1,1.07-.41,1.21,1.21,0,0,1,1.05.45,2.09,2.09,0,0,1,.3,1.24v.77h2.41V77a4.14,4.14,0,0,0-1-3,3.84,3.84,0,0,0-2.84-1,4.81,4.81,0,0,0-2.1.41,2.92,2.92,0,0,0-1.33,1.25,4.47,4.47,0,0,0-.46,2.12v.05a4.84,4.84,0,0,0,.29,1.73,3.36,3.36,0,0,0,.73,1.16,4.39,4.39,0,0,0,1,.76,11.55,11.55,0,0,0,1.09.53,10.69,10.69,0,0,1,1,.47,2.26,2.26,0,0,1,.73.58,1.34,1.34,0,0,1,.29.87ZM160,86.57v-9.5a2.15,2.15,0,0,1,.2-.93,1.58,1.58,0,0,1,.54-.65,1.41,1.41,0,0,1,.8-.24,1.49,1.49,0,0,1,.71.15.94.94,0,0,1,.43.51,2.66,2.66,0,0,1,.15,1v9.68h2.61V76.71A5.51,5.51,0,0,0,165,74.5a2.31,2.31,0,0,0-1-1.15,3,3,0,0,0-1.46-.33,2.91,2.91,0,0,0-1.28.28,2.74,2.74,0,0,0-.93.74,3.12,3.12,0,0,0-.56,1V73.3h-2.43V86.57Zm-7.07-9.68V83a1.88,1.88,0,0,1-.34,1.23,1.32,1.32,0,0,1-1.07.41,1.35,1.35,0,0,1-1.1-.41,1.88,1.88,0,0,1-.33-1.23V76.89a1.88,1.88,0,0,1,.33-1.22,1.35,1.35,0,0,1,1.1-.41,1.32,1.32,0,0,1,1.07.41A1.88,1.88,0,0,1,152.89,76.89Zm2.59,5.74V77.24a4.38,4.38,0,0,0-1-3.2,4,4,0,0,0-3-1,4,4,0,0,0-3,1,4.38,4.38,0,0,0-1,3.2v5.38a4.38,4.38,0,0,0,1,3.2,4,4,0,0,0,3,1,4,4,0,0,0,3-1A4.38,4.38,0,0,0,155.48,82.62Zm-10.76,4.1q.45,0,.88,0a7,7,0,0,0,.81-.12v-2.2a2,2,0,0,1-.43.07h-.57a.86.86,0,0,1-.68-.23,1.12,1.12,0,0,1-.22-.77V75.53h1.9V73.3h-1.9V70.46h-2.59V73.3h-1.13v2.23h1.13V83.8a4.23,4.23,0,0,0,.29,1.7,1.81,1.81,0,0,0,.9.93A3.75,3.75,0,0,0,144.72,86.72Zm-11.8-11.19h4.28l-4.56,9.09v1.95H140V84.34h-4.56L140,75.25V73.3h-7.12Zm-1.74-4.23V68.64h-2.61V71.3Zm0,15.26V73.3h-2.61V86.57ZM118.66,68.64V86.57h2l.46-1.72a3.05,3.05,0,0,0,.55,1,2.74,2.74,0,0,0,.93.71,3,3,0,0,0,1.25.27,3,3,0,0,0,1.46-.33,2.31,2.31,0,0,0,1-1.15,5.53,5.53,0,0,0,.37-2.21V76.71a5.52,5.52,0,0,0-.37-2.21,2.31,2.31,0,0,0-1-1.15,3,3,0,0,0-1.46-.33,2.91,2.91,0,0,0-1.11.21,2.76,2.76,0,0,0-.87.57,3,3,0,0,0-.6.83v-6Zm2.61,8.42a2.14,2.14,0,0,1,.2-.93,1.57,1.57,0,0,1,.54-.65,1.41,1.41,0,0,1,.8-.24,1.48,1.48,0,0,1,.71.15.94.94,0,0,1,.43.51,2.66,2.66,0,0,1,.15,1V83a2.66,2.66,0,0,1-.15,1,1,1,0,0,1-.43.51,1.48,1.48,0,0,1-.71.15,1.41,1.41,0,0,1-.8-.24,1.58,1.58,0,0,1-.54-.65,2.14,2.14,0,0,1-.2-.93ZM339.46,8.29c0-.14,0-.28,0-.42s0-.29-.07-.43L339.27,7l-.39-2h-1.09V9.8h.65V7.55c0-.17,0-.34,0-.5s0-.32,0-.48l0-.5.08.49.08.48.09.5.47,2.26h.61l.47-2.26.09-.5c0-.16.05-.32.08-.48s.05-.32.08-.49c0,.17,0,.34,0,.5s0,.32,0,.48,0,.33,0,.5V9.8h.76V5.08H340l-.39,2-.07.41c0,.14,0,.28-.07.43S339.47,8.15,339.46,8.29Zm-2-3.21h-2.21v.68H336V9.8h.78V5.75h.72Zm-56.93,0h43.77A11,11,0,0,1,335.29,16V48.85a11,11,0,0,1-10.94,10.94H280.57Z"/><path d="M306.39,9.3a42.44,42.44,0,0,0-13.52,2.29A3,3,0,0,0,291,15.32a29.11,29.11,0,0,1,1.62,8.93,19.12,19.12,0,0,1-2.82,10,2.94,2.94,0,0,0-.23,2.53c2.89,7.84,7.26,15.56,17.29,18.38a2.63,2.63,0,0,0,1.59,0c10-2.82,14.41-10.54,17.31-18.38a3,3,0,0,0-.23-2.53,19,19,0,0,1-2.82-10,29.16,29.16,0,0,1,1.59-8.93,2.93,2.93,0,0,0-1.82-3.69,41.64,41.64,0,0,0-13.19-2.3c0-3,.38-7.19,6.95-7.19,3.65,0,5.54,1.21,6.52,3h1.8C323.43,2.5,321.67,0,316.28,0c-8.68,0-9.75,6.48-9.89,9.3" fill="#6b8aad" fill-rule="evenodd"/><path d="M307.31,29.69a.69.69,0,0,0,.46,0,.68.68,0,0,0,.25,0,77.89,77.89,0,0,0,7.93-2.23,1.47,1.47,0,0,0-1-2.78,60.83,60.83,0,0,1-6,1.71V16.19a1.48,1.48,0,1,0-3,0V26.34a55.13,55.13,0,0,1-6-1.71,1.47,1.47,0,0,0-1.87.91,1.45,1.45,0,0,0,.91,1.87,73.54,73.54,0,0,0,7.95,2.23.45.45,0,0,0,.23,0m.39-17.45a39.9,39.9,0,0,1,13.85,2.14c-2.28,7-2.88,14.08,1.48,21.39-2.78,7.57-6.7,14.13-15.33,16.56-8.62-2.43-12.53-9-15.31-16.56,4.35-7.31,3.75-14.41,1.46-21.39A40,40,0,0,1,307.7,12.25Z" fill="#fff" fill-rule="evenodd"/></svg>