<svg xmlns="http://www.w3.org/2000/svg" viewBox="0 0 255.12 124.94"><defs><style>.a{fill:#33669a}</style></defs><path class="a" d="M236.67 74.7l17.86-28.34h-12.4L225.62 72.43a6.21 6.21 0 0 0-.67 2.44c0 .42.25 1.78 2.55 5.39l12.42 19.55a9.14 9.14 0 0 0 7.72 4.24h7.48zM208.34 46.36V89.22l-23-36.84a12.79 12.79 0 0 0-10.85-6H151.83A15.25 15.25 0 0 0 136.42 61.6c0 7.67 4.95 13.76 11.54 15.25l12.86 2.88a7.64 7.64 0 0 1 6.07 8.09A8 8 0 0 1 158.82 95H140l-5.74 9.07H160.2c9.42 0 17.42-7.44 17.52-16.86a16.81 16.81 0 0 0-13.19-16.68l-13.19-2.88a5.09 5.09 0 0 1-4.12-4.78V60.37c0-2.72 2.06-4.94 5.52-4.94h14.44a11.86 11.86 0 0 1 10 5.53l27.16 43.09H214a5.77 5.77 0 0 0 5.77-5.77V46.36zM20.59 34.26v8a9 9 0 0 1-.14 1.59A8.53 8.53 0 0 1 20 45.37a7.89 7.89 0 0 1-.7 1.41 7.35 7.35 0 0 1-1 1.24 42 42 0 0 0-5.06 6.15 41.44 41.44 0 0 0-3.82 7A41.12 41.12 0 0 0 6.2 77.29a41.51 41.51 0 0 0 .36 5.48 41.08 41.08 0 0 0 5 14.94A20.92 20.92 0 0 1 12.7 99.9a19.74 19.74 0 0 1 .81 2.29 18.67 18.67 0 0 1 .51 2.37 17.86 17.86 0 0 1 .19 2.43v4.05A46.79 46.79 0 0 1 1 87a47.59 47.59 0 0 1 13.7-44q.49-.47.94-1t.87-1q.42-.53.8-1.09T18 38.7zM74.71 34.26l2.57 4.44q.34.59.72 1.15t.8 1.09q.42.53.87 1t.94 1a48.08 48.08 0 0 1 6.11 7.13 47.56 47.56 0 0 1-5.64 61.14V107a17.85 17.85 0 0 1 .19-2.43 18.64 18.64 0 0 1 .51-2.37 19.69 19.69 0 0 1 .81-2.29 20.86 20.86 0 0 1 1.09-2.19A41.34 41.34 0 0 0 77 48.06a7.53 7.53 0 0 1-1-1.26 7.92 7.92 0 0 1-.71-1.42 8.48 8.48 0 0 1-.42-1.53 9 9 0 0 1-.14-1.59zM29.29 7.55l1.92 3.33v62l2 2v7.61l-6.87 9.67v27.74l-.77-.39-.76-.41-.75-.42-.74-.43a8.19 8.19 0 0 1-1.73-1.37 8.42 8.42 0 0 1-1.29-1.75 8.68 8.68 0 0 1-.81-2 8.8 8.8 0 0 1-.28-2.2V91.35A3.79 3.79 0 0 1 20 89l5.57-7.16V18H23.27zM66 7.55L72 18H69.75V81.85L75.32 89a3.82 3.82 0 0 1 .75 1.71 3.78 3.78 0 0 1 .05.63v19.51a8.78 8.78 0 0 1-.28 2.2 8.67 8.67 0 0 1-.81 2 8.43 8.43 0 0 1-1.29 1.75A8.2 8.2 0 0 1 72 118.22l-.74.43-.75.42-.76.41-.77.39V92.13l-6.87-9.67V74.85l2-2v-62z"/><path class="a" d="M59.13,0V70.83l-2,2V84L64,93.71V122q-1.92.7-3.91,1.25t-4,.91q-2.05.37-4.16.56t-4.27.19q-2.16,0-4.27-.19t-4.16-.56q-2.05-.37-4-.91T31.27,122V93.71L38.14,84V72.79l-2-2V0Z"/></svg>