<svg xmlns="http://www.w3.org/2000/svg" viewBox="0 0 619.59 441.86"><defs><style>.a{fill:#e60000}</style></defs><circle class="a" cx="314.66" cy="141.73" r="141.73"/><path d="M315.78 220.76c-38.94.13-79.46-33.11-79.63-86.48C236 99 255.07 65 279.41 44.87c23.74-19.66 56.26-32.27 85.76-32.37 3.8 0 7.77.3 10.2 1.13C349.58 19 329.05 43 329.14 70.21a14.78 14.78 0 0 0 .17 2.31c43.16 10.51 62.75 36.55 62.87 72.58s-28.32 75.5-76.4 75.66z" fill="#fff"/><path class="a" d="M32.83 440.07L0 361.72h21.46l20.48 52 19.83-52h20.48l-31.86 78.35zm126.39-39.5a49.27 49.27 0 0 1-2.36 15 41.37 41.37 0 0 1-7 13.25 34.61 34.61 0 0 1-11.7 9.43 36.12 36.12 0 0 1-16.5 3.57 36.11 36.11 0 0 1-16.5-3.57 34.61 34.61 0 0 1-11.7-9.43 41.29 41.29 0 0 1-7-13.25 49.14 49.14 0 0 1-2.36-15 48.39 48.39 0 0 1 2.36-15 40.53 40.53 0 0 1 7-13.09 34.21 34.21 0 0 1 11.7-9.26 36.82 36.82 0 0 1 16.5-3.49 36.31 36.31 0 0 1 16.42 3.49 35.32 35.32 0 0 1 11.7 9.26 39.8 39.8 0 0 1 7.07 13.09 48.52 48.52 0 0 1 2.37 15zm-19.83-.08a37.13 37.13 0 0 0-1.14-9.3 22.63 22.63 0 0 0-3.41-7.58 17.49 17.49 0 0 0-5.53-5.06 16.48 16.48 0 0 0-15.28 0 17.44 17.44 0 0 0-5.52 5.06 22.54 22.54 0 0 0-3.41 7.58 38.86 38.86 0 0 0 0 18.68 24.76 24.76 0 0 0 3.33 7.58 16.1 16.1 0 0 0 5.53 5.14 15.49 15.49 0 0 0 7.72 1.87 15 15 0 0 0 7.64-1.87 17.16 17.16 0 0 0 5.53-5.14 23.67 23.67 0 0 0 3.41-7.58 36.86 36.86 0 0 0 1.13-9.38zm82 39.58l-.82-6a25.21 25.21 0 0 1-7.29 5.44 22.9 22.9 0 0 1-10.69 2.36 28.9 28.9 0 0 1-14.26-3.41 32.15 32.15 0 0 1-10.37-9.1 41.43 41.43 0 0 1-6.4-13.17 55.28 55.28 0 0 1-2.19-15.6 50.19 50.19 0 0 1 2.27-15 39.46 39.46 0 0 1 6.89-13.09 34.33 34.33 0 0 1 11.59-9.26 36.07 36.07 0 0 1 16.36-3.49 44.25 44.25 0 0 1 13.27 2.25v-30.35h20.16v108.42zM219.75 379a29.82 29.82 0 0 0-10.83-2.28 18.86 18.86 0 0 0-8.89 2 17.58 17.58 0 0 0-6.14 5.3 24.18 24.18 0 0 0-3.64 7.5A30.38 30.38 0 0 0 189 400a41 41 0 0 0 1.05 9.38 24.42 24.42 0 0 0 3.23 7.83 17.38 17.38 0 0 0 5.5 5.38 14.67 14.67 0 0 0 7.84 2 16.28 16.28 0 0 0 7.6-2 13.23 13.23 0 0 0 5.5-4.81zm78.52 61l-.81-5.85a22.29 22.29 0 0 1-8.32 5.66 29.29 29.29 0 0 1-11.09 2 27.92 27.92 0 0 1-9.71-1.71 25.69 25.69 0 0 1-8.24-4.88 23.85 23.85 0 0 1-8-18.29 22.33 22.33 0 0 1 2.28-10.32 22.64 22.64 0 0 1 6.2-7.56 34.33 34.33 0 0 1 9-5 56.79 56.79 0 0 1 10.6-2.93 74.53 74.53 0 0 1 8.57-1.22q4.65-.4 7.75-.73v-1.14q0-6.5-3.35-9.27t-9.24-2.76a25.71 25.71 0 0 0-6.53.82 28.76 28.76 0 0 0-5.56 2 43.53 43.53 0 0 0-4.33 2.44 29.27 29.27 0 0 0-3 2.2l-6.66-14.14a30 30 0 0 1 4-2.76 45.87 45.87 0 0 1 6.5-3.17 54.41 54.41 0 0 1 8.62-2.6 48 48 0 0 1 10.32-1.06 39 39 0 0 1 11.87 1.71 24 24 0 0 1 9.26 5.36 24.86 24.86 0 0 1 6.1 9.25 37.2 37.2 0 0 1 2.2 13.56V440zm-1.62-36.66q-3.27.16-6.71.57T283.4 405q-6.54 1.3-9.08 4.47a10.82 10.82 0 0 0-2.54 6.91 7.7 7.7 0 0 0 2.86 6.26q2.86 2.36 8.1 2.36a18.64 18.64 0 0 0 7.61-1.62 22.41 22.41 0 0 0 6.3-4.06zm82.27-53.81a30.81 30.81 0 0 0-3.82-1.38 26 26 0 0 0-7.56-.89 10.27 10.27 0 0 0-7.07 2.52q-2.85 2.52-2.85 8.21v3.74h16.91V378h-16.75v62.09h-20.15V378h-10.4v-16.28h10.4v-4.22a37.53 37.53 0 0 1 1.95-12.92A22.38 22.38 0 0 1 345 336a21.38 21.38 0 0 1 8.21-4.88 32.67 32.67 0 0 1 10.24-1.55 44.76 44.76 0 0 1 12.11 1.38 37.78 37.78 0 0 1 5.61 1.87zm74.76 51.04a49.27 49.27 0 0 1-2.36 15 41.37 41.37 0 0 1-7 13.25 34.61 34.61 0 0 1-11.7 9.43 39.86 39.86 0 0 1-33 0 34.61 34.61 0 0 1-11.7-9.43 41.29 41.29 0 0 1-7-13.25 49.14 49.14 0 0 1-2.36-15 48.39 48.39 0 0 1 2.36-15 40.53 40.53 0 0 1 7-13.09 34.21 34.21 0 0 1 11.7-9.26 36.82 36.82 0 0 1 16.5-3.49 36.31 36.31 0 0 1 16.42 3.49 35.32 35.32 0 0 1 11.7 9.26 39.8 39.8 0 0 1 7.07 13.09 48.52 48.52 0 0 1 2.37 15zm-19.83-.08a37.13 37.13 0 0 0-1.14-9.3 22.63 22.63 0 0 0-3.41-7.58 17.49 17.49 0 0 0-5.53-5.06 16.48 16.48 0 0 0-15.28 0 17.44 17.44 0 0 0-5.52 5.06 22.54 22.54 0 0 0-3.41 7.58 38.86 38.86 0 0 0 0 18.68 24.76 24.76 0 0 0 3.33 7.58 16.1 16.1 0 0 0 5.53 5.14 15.49 15.49 0 0 0 7.72 1.87 15 15 0 0 0 7.64-1.87 17.16 17.16 0 0 0 5.53-5.14 23.67 23.67 0 0 0 3.41-7.58 36.86 36.86 0 0 0 1.13-9.38zm82.4 39.58v-44.7q0-8.94-3.74-13.82a12.37 12.37 0 0 0-10.4-4.88 16.34 16.34 0 0 0-8.7 2.44 37.14 37.14 0 0 0-6.91 5.37v55.59h-20.15v-78.35h18.37l1 6.18a34.91 34.91 0 0 1 10.65-6 35.43 35.43 0 0 1 11.95-2.11 33.48 33.48 0 0 1 11.38 1.87 22.18 22.18 0 0 1 8.94 5.93 27.48 27.48 0 0 1 5.77 10.57 52.7 52.7 0 0 1 2 15.6v46.32zm52.46-34.14q.65 9.92 6.2 14.3t14.36 4.39a38.2 38.2 0 0 0 7.67-.73 35.19 35.19 0 0 0 6.36-1.89 38.65 38.65 0 0 0 4.73-2.28 14.68 14.68 0 0 0 2.94-2.11l5.36 16.42a40 40 0 0 1-3.66 2.19 37.18 37.18 0 0 1-6.26 2.6 65.88 65.88 0 0 1-8.78 2.11 63.67 63.67 0 0 1-11.05.89 43.35 43.35 0 0 1-14.58-2.4 32.4 32.4 0 0 1-12.11-7.56 37 37 0 0 1-8.29-12.76 48.45 48.45 0 0 1-3.09-18.2 50.11 50.11 0 0 1 2.84-17.55 37.06 37.06 0 0 1 7.8-12.84 34 34 0 0 1 11.54-8 36 36 0 0 1 14.06-2.76 38.2 38.2 0 0 1 13.82 2.44 28.34 28.34 0 0 1 11 7.56 36.51 36.51 0 0 1 7.34 13.25 62 62 0 0 1 2.68 19.34v3.58zm30.39-14.47a20.82 20.82 0 0 0-1.72-7.07 15.1 15.1 0 0 0-3.43-4.88 13.75 13.75 0 0 0-4.42-2.76 13.6 13.6 0 0 0-4.82-.89 15.49 15.49 0 0 0-10 3.9q-4.74 3.9-5.56 11.7z"/></svg>