<svg xmlns="http://www.w3.org/2000/svg" viewBox="0 0 298.07 159.78"><defs><style>.a{fill:#fff;}.b{fill:none;stroke:#fff;stroke-miterlimit:10;stroke-width:3px;}</style></defs><path class="a" d="M235.93,57.55A29.1,29.1,0,0,0,207.12,32a29.57,29.57,0,0,0-3.6.22L84.68,46.79A29.09,29.09,0,0,0,59.34,79.21l2.82,23a29.12,29.12,0,0,0,32.41,25.33L213.42,113a29.12,29.12,0,0,0,25.33-32.41Z"/><path class="a" d="M280.53,20.51A17.91,17.91,0,0,1,263.58,7.22l-10,1.23a3.49,3.49,0,0,1-3.06,3.35l-.42,0a3.5,3.5,0,0,1-3.35-2.54L37.17,35a3.49,3.49,0,0,1-3.07,3.35l-.42,0a3.5,3.5,0,0,1-3.35-2.54L20.33,37A17.91,17.91,0,0,1,7.09,54l10.47,85.38A17.89,17.89,0,0,1,34.5,152.59l10.2-1.25a3.49,3.49,0,0,1,6.43-.79l105-12.87,105-12.82a3.49,3.49,0,0,1,6.46-.79l10.2-1.25A17.91,17.91,0,0,1,291,105.89ZM31.83,48.43l-.12-.94a3.5,3.5,0,1,1,6.95-.85l.12.94a3.5,3.5,0,0,1-3,3.9l-.43,0A3.5,3.5,0,0,1,31.83,48.43Zm1.61,13.15-.12-.94a3.5,3.5,0,0,1,6.95-.85l.12.94a3.5,3.5,0,0,1-3,3.9l-.43,0A3.5,3.5,0,0,1,33.44,61.58ZM35,74.73l-.12-.94a3.5,3.5,0,1,1,6.95-.85l.12.94a3.5,3.5,0,0,1-3,3.9l-.43,0A3.5,3.5,0,0,1,35,74.73Zm1.61,13.15-.12-.94a3.5,3.5,0,1,1,6.95-.85l.12.94a3.5,3.5,0,0,1-3,3.9l-.43,0A3.5,3.5,0,0,1,36.66,87.88ZM38.27,101l-.12-.94a3.5,3.5,0,1,1,6.95-.85l.12.94a3.5,3.5,0,0,1-3,3.9l-.43,0A3.5,3.5,0,0,1,38.27,101Zm1.61,13.15-.12-.94a3.5,3.5,0,1,1,6.95-.85l.12.94a3.5,3.5,0,0,1-3,3.9l-.43,0A3.5,3.5,0,0,1,39.88,114.19Zm1.61,13.15-.12-.94a3.5,3.5,0,0,1,6.95-.85l.12.94a3.5,3.5,0,0,1-3,3.9l-.43,0A3.5,3.5,0,0,1,41.49,127.34ZM47,143.54l-.43,0a3.5,3.5,0,0,1-3.47-3.07l-.12-.94a3.5,3.5,0,0,1,6.95-.85l.12.94A3.5,3.5,0,0,1,47,143.54Zm167-25.59L95.19,132.52a34.07,34.07,0,0,1-38-29.69l-2.82-23a34.09,34.09,0,0,1,29.69-38L202.91,27.26a34.09,34.09,0,0,1,38,29.69l2.82,23A34.13,34.13,0,0,1,214,117.95Zm34.21-96-.12-.94a3.5,3.5,0,0,1,6.95-.85l.12.94a3.5,3.5,0,0,1-3,3.9l-.43,0A3.5,3.5,0,0,1,248.24,21.91Zm1.61,13.15-.12-.94a3.5,3.5,0,0,1,6.95-.85l.12.94a3.5,3.5,0,0,1-3,3.9l-.43,0A3.5,3.5,0,0,1,249.85,35.06Zm1.61,13.15-.12-.94a3.5,3.5,0,0,1,6.95-.85l.12.94a3.5,3.5,0,0,1-3,3.9l-.43,0A3.5,3.5,0,0,1,251.46,48.21Zm1.61,13.15-.12-.94a3.5,3.5,0,0,1,6.95-.85l.12.94a3.5,3.5,0,0,1-3,3.9l-.43,0A3.5,3.5,0,0,1,253.07,61.36Zm1.61,13.15-.12-.94a3.5,3.5,0,0,1,6.95-.85l.12.94a3.5,3.5,0,0,1-3,3.9l-.43,0A3.5,3.5,0,0,1,254.68,74.51Zm1.61,13.15-.11-.94a3.5,3.5,0,1,1,6.95-.85l.12.94a3.5,3.5,0,0,1-3,3.9l-.43,0A3.5,3.5,0,0,1,256.29,87.67Zm1.61,13.16-.12-.94a3.5,3.5,0,0,1,6.95-.86l.12.94a3.5,3.5,0,0,1-3,3.9l-.43,0A3.5,3.5,0,0,1,257.9,100.82Zm5.51,16.2-.43,0a3.5,3.5,0,0,1-3.47-3.07l-.12-.94a3.5,3.5,0,1,1,6.95-.86l.12.94A3.5,3.5,0,0,1,263.42,117Z"/><path class="b" d="M267.45,1.67,141.35,17.12,15.25,32.58A15.82,15.82,0,0,1,1.67,50.36h0L7.41,97.23l5.74,46.87a15.82,15.82,0,0,1,17.47,14v0l126.1-15.45,126.1-15.45a15.82,15.82,0,0,1,13.58-17.78l-5.74-46.87-5.74-46.87a15.82,15.82,0,0,1-17.47-14Z"/></svg>