<svg xmlns="http://www.w3.org/2000/svg" viewBox="0 0 622.71 253.33"><defs><style>.a,.b{fill:none;stroke:#fff;stroke-miterlimit:10}.a{stroke-width:3px}.b{stroke-width:2px}</style></defs><path class="a" d="M157.57,13.22a8.54,8.54,0,0,1,4.91,5.17c.36,1,.38,5.65.38,108.26s0,107.23-.38,108.26a8.54,8.54,0,0,1-4.91,5.17l-1.22.48L83,240.62c-54.15,0-73.72,0-74.64-.17a8.28,8.28,0,0,1-6.49-5.86c-.31-1-.34-10.41-.34-107.95,0-96.94,0-106.9.34-107.95A8.4,8.4,0,0,1,7.9,12.93c.82-.21,16.61-.25,74.75-.23l73.7,0Z"/><path class="a" d="M152.1 125.49L152.1 216.73 82.18 216.73 12.26 216.73 12.26 125.49 12.26 34.26 82.18 34.26 152.1 34.26 152.1 125.49z"/><circle class="b" cx="82.18" cy="228.84" r="5.5"/><circle class="a" cx="82.18" cy="23.59" r="2.75"/><rect class="b" x="259.71" y="1" width="362" height="182.01" rx="4.29" ry="4.29"/><rect class="b" x="271.71" y="12.66" width="338" height="159.15" rx="4.29" ry="4.29"/><path class="b" d="M381.71 246.69H499.71999999999997V252.32999999999998H381.71zM417.21 183.34L417.21 246.34M464.21 183.34L464.21 246.34"/></svg>