<svg xmlns="http://www.w3.org/2000/svg" viewBox="0 0 437.8 135.07"><path d="M67.53 0a67.46 67.46 0 0 0-55.77 29.45h9.48a59.85 59.85 0 1 1-9.43 16h94.74v37.4l-38.41 24.47-38.87-24.76V53.78h-8v33.13l39.42 25.11 7.43 4.73 7.43-4.73 39.22-25-.26-.41V37.44H7.07A67.54 67.54 0 1 0 67.53 0z"/><path d="M65.53 82.66h-5.64l-5.3-11.8-5.26 11.8h-5.41l7.68-15.34-7.07-13.46h5.64l4.49 10 4.68-10h5.41l-7.1 13.26zm18.13 0h-6l-8.1-28.8H75l5.76 23.93 5.61-23.93h5.18zm122.89-59.92l-4.49 5.17a16 16 0 0 0-10.69-4.07c-4.28 0-7.38 1.93-7.38 5.66 0 3.45 1.86 5 9.8 7.45 8.35 2.62 14.15 6.07 14.15 15 0 8.56-6.69 14.63-18.08 14.63-7.59 0-13.25-2.69-17.18-6.56l4.69-5.24a18.19 18.19 0 0 0 12.28 4.76c5.11 0 8.76-2.48 8.76-7.11 0-4-2-5.8-9.45-8.07-10-3.1-14.35-7.11-14.35-14.35 0-7.94 6.83-13.18 16.22-13.18 6.96.05 11.58 2.12 15.72 5.91zm18.29 42.85h-9.11V17.91h9.11zm56.37 0h-8.9l-1.24-19.94c-.41-7-.76-14.42-.62-19.46l-8.69 34.22h-8.62l-9.25-34.29a191.07 191.07 0 0 1-.28 19.8l-1.17 19.67h-8.84l3.8-47.68h11.73l8.49 33.4 8-33.4h11.87zm47.2-23.87c0 15.73-8.07 24.91-20.84 24.91s-20.91-8.9-20.91-24.84c0-15.66 8.14-24.91 20.91-24.91s20.84 8.9 20.84 24.84zm-32.15.07c0 12.83 4.35 17.87 11.32 17.87s11.25-5 11.25-17.94-4.07-17.87-11.25-17.87-11.33 5.15-11.33 17.94zm75.89 23.8h-11.8L344 27a151.46 151.46 0 0 1 1.24 19.11v19.48H337V17.91h11.52l16.63 38.64a118 118 0 0 1-1.24-16.28V17.91h8.28zm30.02-18.08v18.08h-9.25v-18L377.6 17.91h10.07l10.07 22.15 10.07-22.15h9.66zM432 65.59h-9.11V17.91H432zm-253.4 51.96h-5.68V87.83h5.68zm6.4-16.26l11.09 16.25h-6.75l-10.49-15.87 10.28-13.85h6.15zm38 1.38c0 9.8-5 15.52-13 15.52s-13-5.55-13-15.48c0-9.71 5-15.52 13-15.52s13 5.55 13 15.48zm-20 0c0 8 2.71 11.14 7.05 11.14s7-3.14 7-11.18-2.54-11.14-7-11.14-7.12 3.22-7.12 11.22zm47.23 14.88h-7.35l-10.19-24a94.49 94.49 0 0 1 .77 11.91v12.13h-5.16V87.83h7.18l10.36 24.08a73.61 73.61 0 0 1-.77-10.15V87.83h5.16zm6.97-29.72H274l-.6 4.21h-10.53v8.9H272v4.21h-9.16v12.38h-5.64zM294.87 92h-11v8.3h9.55v4.21h-9.52v8.73h11.74v4.26h-17.41V87.83h17.24zm15.43 13.64h-3.61v11.91H301V87.83h8.86c7.78 0 11.78 2.84 11.78 8.73 0 4-2 6.45-6 8l7.78 12.94h-6.54zm-3.61-4.08h3.53c3.53 0 5.5-1.42 5.5-5 0-3.22-1.85-4.6-6-4.6h-3.05zM343.93 92H333v8.3h9.55v4.21H333v8.73h11.7v4.26h-17.41V87.83h17.24zM372 117.55h-7.35l-10.19-24a94.49 94.49 0 0 1 .77 11.91v12.13h-5.16V87.83h7.18l10.36 24.08a73.61 73.61 0 0 1-.77-10.15V87.83H372zm27-27.22l-2.88 3.35a8.57 8.57 0 0 0-5.5-2.11c-4.13 0-7.31 3-7.31 11.05 0 7.83 3.1 11 7.31 11a9.62 9.62 0 0 0 6.06-2.41l2.67 3.35a12.51 12.51 0 0 1-8.94 3.61c-7.7 0-13.07-5.46-13.07-15.57s5.68-15.44 13-15.44a12.49 12.49 0 0 1 8.66 3.17zm10.07 27.22h-5.67V87.83h5.68zm20.86-6.88h-9.85l-1.85 6.88h-5.89l9.25-29.71h7l9.2 29.71h-6zm-1.16-4.3L425 92.18l-3.78 14.19z"/></svg>