<svg xmlns="http://www.w3.org/2000/svg" viewBox="0 0 433.08 135.07" fill="white"><path d="M45.93 54.09l7 10 7.05-10h5.66L56 67.87l10.47 14.92h-5.78L52.94 72l-7.71 10.79h-5.66L50 68.07l-9.72-14zm26.73 0l8.86 23.33 8.94-23.33h5l-11.6 28.7h-5l-11.41-28.7z"/><path d="M67.53 0a67.46 67.46 0 0 0-55.77 29.45h9.48a59.85 59.85 0 1 1-9.43 16h94.74v37.4l-38.41 24.47-38.87-24.76V53.78h-8v33.13l39.42 25.11 7.43 4.73 7.43-4.73 39.22-25-.26-.41V37.44H7.07A67.54 67.54 0 1 0 67.53 0zm109.85 31.26c-4.62 0-7.64 1.74-7.64 4.89 0 10.25 25.33 4.76 25.26 21.64 0 8.38-7.37 13.53-17.69 13.53a28.85 28.85 0 0 1-19.16-7.44l3.42-6.83c4.82 4.42 10.85 6.83 15.88 6.83 5.49 0 8.78-2.08 8.78-5.7 0-10.45-25.33-4.62-25.33-21.31 0-8 6.9-13.07 17.08-13.07a30.55 30.55 0 0 1 16.42 4.82l-3.28 7a28 28 0 0 0-13.74-4.36zm32.1-7.1v46.9h-7.91v-46.9zm19.02 0L244 55.32l15.41-31.16h9.31v46.9h-7.3l-.07-35-14.82 30.11h-5.16L226.56 36v35h-7.44V24.16zm95.75 23.45c0 13.4-10.85 23.79-24.86 23.79S274.53 61 274.53 47.61 285.39 24 299.39 24s24.86 10.21 24.86 23.61zm-41.67 0a16.81 16.81 0 0 0 16.88 16.69 16.62 16.62 0 1 0-16.88-16.68zm55.2-23.45l25.13 33.7v-33.7h7.77v46.9h-7.77l-25-33.63v33.63H330v-46.9zm61.84 31.29v15.61h-7.84V55.72l-17.49-31.56h8L395.67 47l13.13-22.84h8zm28.68-31.29v46.9h-7.91v-46.9zM178.51 111l-9-12.15-4.72 5.15v7h-4.64V83.53h4.64v14.23l13.13-14.23h5.46l-10.65 11.75L184.09 111z"/><path d="M212.78 97.29c0 7.86-6.37 14-14.58 14s-14.58-6.09-14.58-14S190 83.41 198.2 83.41s14.58 6.02 14.58 13.88zm-24.45 0a9.86 9.86 0 0 0 9.9 9.79 9.75 9.75 0 1 0-9.9-9.79zm32.4-13.76l14.74 19.77V83.53H240V111h-4.56l-14.63-19.68V111h-4.64V83.53zm43.47 0v4.17h-13.8v7.94h12.5v4.13h-12.5V111h-4.64V83.53zm22.21 0v4.17h-15v7.47h13.44v4.13H271.4v7.59h15.49V111h-20.13V83.53zM308.43 111l-5-8.33h-7.78V111H291V83.53h11.16c7 0 11.08 3.42 11.08 9.39 0 4.4-2 7.51-5.7 8.92l6.17 9.2zm-6.29-12.46c4.24 0 6.68-1.81 6.68-5.54s-2.44-5.34-6.68-5.34h-6.52v10.93zm35.34-15.01v4.17h-15v7.47h13.44v4.13h-13.46v7.59H338V111h-20.17V83.53zm9.12 0l14.74 19.77V83.53h4.56V111h-4.56l-14.66-19.68V111H342V83.53zm37.27 4.01a9.69 9.69 0 1 0 0 19.38 11.38 11.38 0 0 0 7.66-3.26l2.75 3.07a15.62 15.62 0 0 1-10.65 4.52 14 14 0 0 1-14.31-14c0-7.82 6.33-13.83 14.46-13.83a15.19 15.19 0 0 1 10.46 4.24L391.53 91a10.74 10.74 0 0 0-7.66-3.46zm18.2-4.01V111h-4.64V83.53zm23.42 21.31h-13.87L409 111h-4.83l12.13-27.47h4.76l12 27.51h-5zm-1.77-4.13l-5.19-12.22-5.19 12.22z"/></svg>